<svg width="40" height="40" viewBox="0 0 40 40" fill="none" xmlns="http://www.w3.org/2000/svg">
<path d="M34.1045 40H5.89552C2.63681 40 0 37.3632 0 34.1045V5.89552C0 2.63681 2.63681 0 5.89552 0H34.1045C37.3632 0 40 2.63681 40 5.89552V34.1045C40 37.3632 37.3632 40 34.1045 40Z" fill="#00218A"/>
<path d="M26.269 11.8662V7.93586C26.269 7.93586 22.2392 7.88611 21.9655 7.88611C20.1496 7.88611 17.5128 9.95079 17.5128 12.314C17.5128 14.9508 17.5128 16.5428 17.5128 16.5428H13.7317V21.0204H17.463V32.115H21.866V20.9707H25.7715L26.269 16.5926H21.9406C21.9406 16.5926 21.9406 13.906 21.9406 13.3836C21.9406 12.6125 22.5128 11.8662 23.3834 11.8662C23.9556 11.8413 26.269 11.8662 26.269 11.8662Z" fill="#F7F7F5"/>
</svg>
