<svg width="300" height="300" viewBox="0 0 300 300" fill="none" xmlns="http://www.w3.org/2000/svg">
<g clip-path="url(#clip0_214_2991)">
<path fill-rule="evenodd" clip-rule="evenodd" d="M261.279 68.3399C282.888 86.8255 287.236 114.085 292.101 139.825C297.292 167.288 307.781 197.468 290.224 221.479C272.741 245.389 235.763 251.757 204.005 260.305C175.83 267.889 146.824 272.98 118.203 267.782C89.8708 262.637 62.1443 251.385 45.6809 231.551C30.0945 212.774 39.4995 187.348 32.9169 165.036C24.5891 136.809 -8.79948 111.97 2.16104 84.039C13.1364 56.0707 51.1955 40.4334 84.971 32.3877C116.019 24.9918 146.902 35.8363 177.943 42.1661C207.552 48.2037 240.076 50.2008 261.279 68.3399Z" fill="#F7F8FC"/>
<path d="M134.088 65.8999H71.0791C70.5382 65.8999 70.0997 66.3384 70.0997 66.8793V114.707C70.0997 115.248 70.5382 115.687 71.0791 115.687H134.088C134.629 115.687 135.067 115.248 135.067 114.707V66.8793C135.067 66.3384 134.629 65.8999 134.088 65.8999Z" fill="#F2F6FB"/>
<path d="M84.4998 91.5714C87.685 91.5714 90.2671 89.0049 90.2671 85.8389C90.2671 82.673 87.685 80.1064 84.4998 80.1064C81.3145 80.1064 78.7324 82.673 78.7324 85.8389C78.7324 89.0049 81.3145 91.5714 84.4998 91.5714Z" fill="#D8DEED"/>
<path d="M84.4967 85.7573C83.67 85.7573 82.9998 85.1002 82.9998 84.2895C82.9998 83.4789 83.67 82.8218 84.4967 82.8218C85.3234 82.8218 85.9936 83.4789 85.9936 84.2895C85.9936 85.1002 85.3234 85.7573 84.4967 85.7573ZM84.4967 86.4912C85.9952 86.4912 87.2099 87.6823 87.2099 89.1515H81.7835C81.7835 87.6823 82.9982 86.4912 84.4967 86.4912Z" fill="#F2F6FB"/>
<path d="M79.6357 93.08H89.3639C90.0304 93.08 90.5707 93.6203 90.5707 94.2868C90.5707 94.9533 90.0304 95.4936 89.3639 95.4936H79.6357C78.9692 95.4936 78.4289 94.9533 78.4289 94.2868C78.4289 93.6203 78.9692 93.08 79.6357 93.08ZM81.1535 97.0022H87.8461C88.5127 97.0022 89.053 97.5425 89.053 98.209C89.053 98.8755 88.5127 99.4159 87.8461 99.4159H81.1535C80.4869 99.4159 79.9466 98.8755 79.9466 98.209C79.9466 97.5425 80.4869 97.0022 81.1535 97.0022Z" fill="#E1E5F0"/>
<path d="M80.5409 103.414H88.4587C89.6251 103.414 90.5707 104.359 90.5707 105.526C90.5707 106.692 89.6251 107.638 88.4587 107.638H80.5409C79.3745 107.638 78.4289 106.692 78.4289 105.526C78.4289 104.359 79.3745 103.414 80.5409 103.414ZM98.6088 103.414H106.527C107.693 103.414 108.639 104.359 108.639 105.526C108.639 106.692 107.693 107.638 106.527 107.638H98.6088C97.4424 107.638 96.4968 106.692 96.4968 105.526C96.4968 104.359 97.4424 103.414 98.6088 103.414ZM116.805 103.414H124.723C125.889 103.414 126.835 104.359 126.835 105.526C126.835 106.692 125.889 107.638 124.723 107.638H116.805C115.638 107.638 114.693 106.692 114.693 105.526C114.693 104.359 115.638 103.414 116.805 103.414Z" fill="#334FC0"/>
<path d="M102.568 91.5714C105.753 91.5714 108.335 89.0049 108.335 85.8389C108.335 82.673 105.753 80.1064 102.568 80.1064C99.3825 80.1064 96.8003 82.673 96.8003 85.8389C96.8003 89.0049 99.3825 91.5714 102.568 91.5714Z" fill="#D8DEED"/>
<path d="M102.565 85.7573C101.738 85.7573 101.068 85.1002 101.068 84.2895C101.068 83.4789 101.738 82.8218 102.565 82.8218C103.391 82.8218 104.062 83.4789 104.062 84.2895C104.062 85.1002 103.391 85.7573 102.565 85.7573ZM102.565 86.4912C104.063 86.4912 105.278 87.6823 105.278 89.1515H99.8514C99.8514 87.6823 101.066 86.4912 102.565 86.4912Z" fill="#F2F6FB"/>
<path d="M97.7036 93.08H107.432C108.098 93.08 108.639 93.6203 108.639 94.2868C108.639 94.9533 108.098 95.4936 107.432 95.4936H97.7036C97.0371 95.4936 96.4968 94.9533 96.4968 94.2868C96.4968 93.6203 97.0371 93.08 97.7036 93.08ZM97.7036 97.0022H107.432C108.098 97.0022 108.639 97.5425 108.639 98.209C108.639 98.8755 108.098 99.4159 107.432 99.4159H97.7036C97.0371 99.4159 96.4968 98.8755 96.4968 98.209C96.4968 97.5425 97.0371 97.0022 97.7036 97.0022Z" fill="#E1E5F0"/>
<path d="M120.764 91.5714C123.949 91.5714 126.531 89.0049 126.531 85.8389C126.531 82.673 123.949 80.1064 120.764 80.1064C117.579 80.1064 114.996 82.673 114.996 85.8389C114.996 89.0049 117.579 91.5714 120.764 91.5714Z" fill="#D8DEED"/>
<path d="M120.761 85.7573C119.934 85.7573 119.264 85.1002 119.264 84.2895C119.264 83.4789 119.934 82.8218 120.761 82.8218C121.587 82.8218 122.258 83.4789 122.258 84.2895C122.258 85.1002 121.587 85.7573 120.761 85.7573ZM120.761 86.4912C122.259 86.4912 123.474 87.6823 123.474 89.1515H118.047C118.047 87.6823 119.262 86.4912 120.761 86.4912Z" fill="#F2F6FB"/>
<path d="M117.417 93.08H124.11C124.777 93.08 125.317 93.6203 125.317 94.2868C125.317 94.9533 124.777 95.4936 124.11 95.4936H117.417C116.751 95.4936 116.211 94.9533 116.211 94.2868C116.211 93.6203 116.751 93.08 117.417 93.08ZM115.9 97.0022H125.628C126.294 97.0022 126.835 97.5425 126.835 98.209C126.835 98.8755 126.294 99.4159 125.628 99.4159H115.9C115.233 99.4159 114.693 98.8755 114.693 98.209C114.693 97.5425 115.233 97.0022 115.9 97.0022Z" fill="#E1E5F0"/>
<path d="M70.0997 68.7156C70.0997 67.1605 71.3611 65.8999 72.9148 65.8999H132.252C133.807 65.8999 135.067 67.1602 135.067 68.7156V71.5313H70.0997V68.7156Z" fill="#D8DEED"/>
<path d="M73.8799 69.9955C74.5522 69.9955 75.0973 69.4511 75.0973 68.7796C75.0973 68.1081 74.5522 67.5637 73.8799 67.5637C73.2076 67.5637 72.6626 68.1081 72.6626 68.7796C72.6626 69.4511 73.2076 69.9955 73.8799 69.9955Z" fill="#FF5645"/>
<path d="M77.8523 69.9955C78.5246 69.9955 79.0696 69.4511 79.0696 68.7796C79.0696 68.1081 78.5246 67.5637 77.8523 67.5637C77.18 67.5637 76.6349 68.1081 76.6349 68.7796C76.6349 69.4511 77.18 69.9955 77.8523 69.9955Z" fill="#FFCB3D"/>
<path d="M81.9528 69.9955C82.6251 69.9955 83.1701 69.4511 83.1701 68.7796C83.1701 68.1081 82.6251 67.5637 81.9528 67.5637C81.2805 67.5637 80.7355 68.1081 80.7355 68.7796C80.7355 69.4511 81.2805 69.9955 81.9528 69.9955Z" fill="#3ABF7C"/>
<path d="M172.611 97.7308H132.619C130.816 97.7308 129.354 99.1925 129.354 100.996V144.906C129.354 146.709 130.816 148.171 132.619 148.171H172.611C174.415 148.171 175.876 146.709 175.876 144.906V100.996C175.876 99.1925 174.415 97.7308 172.611 97.7308Z" fill="#E1E5F0"/>
<path d="M136.239 131.005H169.017C169.484 131.005 169.862 131.384 169.862 131.85C169.862 132.317 169.484 132.696 169.017 132.696H136.239C135.772 132.696 135.394 132.317 135.394 131.85C135.394 131.384 135.772 131.005 136.239 131.005ZM136.239 136.499H169.017C169.484 136.499 169.862 136.877 169.862 137.344C169.862 137.81 169.484 138.189 169.017 138.189H136.239C135.772 138.189 135.394 137.81 135.394 137.344C135.394 136.877 135.772 136.499 136.239 136.499ZM140.68 133.752H164.577C165.043 133.752 165.422 134.13 165.422 134.597C165.422 135.064 165.043 135.442 164.577 135.442H140.68C140.213 135.442 139.835 135.064 139.835 134.597C139.835 134.13 140.213 133.752 140.68 133.752ZM142.794 139.245H162.462C162.929 139.245 163.307 139.623 163.307 140.09C163.307 140.557 162.929 140.935 162.462 140.935H142.794C142.328 140.935 141.949 140.557 141.949 140.09C141.949 139.623 142.328 139.245 142.794 139.245Z" fill="#F2F6FB"/>
<path d="M152.522 115.343C155.676 115.343 158.232 112.789 158.232 109.638C158.232 106.488 155.676 103.934 152.522 103.934C149.369 103.934 146.813 106.488 146.813 109.638C146.813 112.789 149.369 115.343 152.522 115.343Z" fill="#7585D3"/>
<path d="M152.52 109.581C151.944 109.581 151.477 109.121 151.477 108.553C151.477 107.986 151.944 107.526 152.52 107.526C153.096 107.526 153.563 107.986 153.563 108.553C153.563 109.121 153.096 109.581 152.52 109.581ZM152.52 110.095C153.564 110.095 154.41 110.929 154.41 111.958H150.63C150.63 110.929 151.476 110.095 152.52 110.095Z" fill="#F2F6FB"/>
<path d="M158.696 120.202H146.348C145.882 120.202 145.503 120.58 145.503 121.047C145.503 121.514 145.882 121.892 146.348 121.892H158.696C159.163 121.892 159.541 121.514 159.541 121.047C159.541 120.58 159.163 120.202 158.696 120.202Z" fill="#F2F6FB"/>
<path d="M161.145 117.455H143.9C143.433 117.455 143.055 117.834 143.055 118.3C143.055 118.767 143.433 119.146 143.9 119.146H161.145C161.612 119.146 161.99 118.767 161.99 118.3C161.99 117.834 161.612 117.455 161.145 117.455Z" fill="#F2F6FB"/>
<path d="M128.717 233.68L128.652 233.713C128.309 233.893 127.869 233.795 127.705 233.485L108.591 198.373C108.411 198.046 108.558 197.638 108.901 197.459L108.966 197.426C109.309 197.246 109.75 197.344 109.913 197.654L114.647 206.339C117.732 212.019 120.817 217.683 123.918 223.364L129.028 232.734C129.207 233.06 129.06 233.485 128.717 233.68Z" fill="#D8DEED"/>
<path d="M81.8526 196.855H93.8178C101.065 196.855 108.313 196.855 115.544 196.855H126.644C127.036 196.855 127.379 197.181 127.379 197.573V197.654C127.379 198.046 127.052 198.373 126.644 198.373H81.82C81.4282 198.373 81.0854 198.046 81.0854 197.654V197.573C81.0854 197.181 81.4282 196.855 81.8526 196.855Z" fill="#D8DEED"/>
<path d="M75.4212 232.734L80.5305 223.364C83.6156 217.683 86.7008 212.019 89.8022 206.338L94.5361 197.654C94.6993 197.344 95.14 197.23 95.4828 197.426L95.5481 197.458C95.8909 197.638 96.0378 198.062 95.8583 198.373L76.7434 233.484C76.5802 233.795 76.1395 233.909 75.7967 233.713L75.7314 233.68C75.3886 233.484 75.2417 233.06 75.4212 232.734Z" fill="#D8DEED"/>
<path d="M76.776 150.43L78.3267 162.967C79.2735 170.557 80.2039 178.148 81.1507 185.722L82.5872 197.344C82.6361 197.752 82.3586 198.16 81.9669 198.209L81.8853 198.226C81.4935 198.275 81.1344 197.981 81.0691 197.54L75.2416 150.594C75.1926 150.186 75.4701 149.778 75.8619 149.729L75.9435 149.712C76.3516 149.663 76.727 149.99 76.776 150.43Z" fill="#D8DEED"/>
<path d="M176.823 233.615L176.888 233.648C177.231 233.827 177.672 233.729 177.835 233.419L196.95 198.307C197.129 197.981 196.983 197.573 196.64 197.393L196.574 197.361C196.232 197.181 195.791 197.279 195.628 197.589L190.894 206.273C187.809 211.954 184.724 217.618 181.622 223.299L176.513 232.668C176.333 232.995 176.48 233.419 176.823 233.615Z" fill="#D8DEED"/>
<path d="M224.275 196.789H212.31C205.063 196.789 197.815 196.789 190.584 196.789H179.484C179.092 196.789 178.749 197.116 178.749 197.508V197.589C178.749 197.981 179.076 198.307 179.484 198.307H224.308C224.7 198.307 225.043 197.981 225.043 197.589V197.508C225.043 197.116 224.7 196.789 224.275 196.789Z" fill="#D8DEED"/>
<path d="M224.994 193.606V181.87C224.994 174.753 224.994 167.652 224.994 160.551V149.663C224.994 149.272 218.219 148.945 210.074 148.945H208.376C200.247 148.945 193.457 149.272 193.457 149.663V193.639C193.457 194.031 200.231 194.357 208.376 194.357H210.074C218.203 194.357 224.994 194.014 224.994 193.606Z" fill="#D8DEED"/>
<path d="M230.119 232.668L225.01 223.299C221.925 217.618 218.84 211.954 215.738 206.273L211.004 197.589C210.841 197.279 210.4 197.165 210.058 197.361L209.992 197.393C209.65 197.573 209.503 197.997 209.682 198.307L228.797 233.419C228.96 233.73 229.401 233.844 229.744 233.648L229.809 233.615C230.152 233.419 230.299 232.995 230.119 232.668Z" fill="#D8DEED"/>
<path d="M163.193 233.706H189.131C189.539 233.706 189.865 233.379 189.865 232.971C189.865 232.563 189.539 232.237 189.131 232.237H163.193C162.785 232.237 162.458 232.563 162.458 232.971C162.458 233.379 162.785 233.706 163.193 233.706ZM210.939 233.706C211.347 233.706 211.674 233.423 211.674 233.084V232.858C211.674 232.519 211.331 232.237 210.939 232.237H194.208C193.799 232.237 193.473 232.519 193.473 232.858V233.084C193.473 233.423 193.816 233.706 194.208 233.706H210.939Z" fill="#263238"/>
<path d="M162.949 232.29C163.034 232.255 163.127 232.237 163.225 232.237H189.164C189.268 232.237 189.367 232.258 189.457 232.297C189.478 232.223 189.49 232.144 189.49 232.062L188.946 222.118L177.704 221.953C177.525 221.953 177.362 222.002 177.215 222.118C175.354 224.137 173.575 225.262 172.285 225.924C171.289 226.437 167.959 227.86 166.458 228.555C165.996 228.764 165.312 229.139 164.407 229.681C164.192 229.81 163.997 229.971 163.831 230.158C163.362 230.688 163.068 231.163 162.948 231.582C162.915 231.682 162.915 231.764 162.899 231.864C162.883 231.946 162.899 232.029 162.899 232.112V232.128C162.911 232.185 162.927 232.239 162.949 232.29ZM193.89 232.312C193.994 232.264 194.113 232.237 194.24 232.237H210.729L206.94 222.132L195.252 223.716L193.89 232.312Z" fill="#455A64"/>
<path d="M190.03 193.556C190.5 193.79 190.94 194.008 191.348 194.212L191.433 195.503C191.53 197.198 191.645 198.688 191.775 200C191.873 201.032 193.13 212.724 193.587 217.014C193.685 217.987 194.387 218.813 195.35 219.078C196.803 219.491 197.733 219.727 201.504 219.86C201.749 219.875 201.994 219.86 202.222 219.845C205.879 219.55 207.707 219.02 208.115 218.843C208.638 218.621 208.915 218.518 209.193 218.268C210.172 217.412 210.107 216.056 210.123 215.555C210.206 212.36 210.427 203.758 210.495 196.356C210.594 196.357 210.693 196.357 210.792 196.357C211.721 196.357 212.615 195.966 213.438 195.28C214.49 194.399 218.187 191.484 218.416 185.35C218.575 181.083 217.832 177.842 216.187 175.627C216.187 175.61 214.139 172.378 212.894 172.378H194.568C193.294 172.422 187.608 172.569 177.509 172.82L177.514 172.859C177.458 172.858 177.402 172.857 177.345 172.856C173.215 172.78 169.869 176.072 169.967 180.093C169.967 180.124 169.967 180.139 169.967 180.169C170.228 192.642 173.281 210.411 173.493 216.42C173.509 216.647 173.575 217.148 173.917 217.679C174.978 219.303 177.46 218.939 183.254 219.075C188.184 219.197 190.176 219.561 191.188 218.225C191.743 217.497 191.726 216.663 191.71 216.283C191.306 208.67 190.719 200.986 190.03 193.556Z" fill="#334FC0"/>
<path opacity="0.2" d="M190.065 193.524C190.536 193.758 190.975 193.977 191.383 194.18L190.635 182.743C190.618 182.08 190.537 178.07 193.785 175.519C196.152 173.676 199.025 173.558 200.935 173.484C203.873 173.366 206.158 174.133 206.599 174.28C207.154 174.472 207.432 174.575 207.709 174.708C210.876 176.241 210.631 183.613 210.598 184.955C210.566 186.651 210.549 189.29 210.549 192.357C210.549 193.604 210.542 194.935 210.53 196.308C210.617 196.308 210.704 196.308 210.792 196.309C211.721 196.309 212.615 195.917 213.438 195.231C214.49 194.35 218.187 191.435 218.416 185.301C218.575 181.034 217.832 177.793 216.187 175.578C216.187 175.561 214.139 172.329 212.894 172.329H194.568C193.327 172.372 187.759 172.539 177.865 172.831C179.072 172.858 180.268 172.884 181.477 172.911C185.15 173.002 188.203 175.718 188.594 179.269C189.113 183.848 189.611 188.631 190.065 193.524Z" fill="#263238"/>
<path d="M189.957 153.526C187.557 151.73 181.354 146.849 181.354 146.849C179.33 148.678 184.195 151.959 184.195 151.959" fill="#482D1F"/>
<path d="M178.882 146.156C180.099 144.122 179.75 141.446 177.922 139.8C175.846 137.93 172.646 138.098 170.776 140.175C168.906 142.252 169.074 145.451 171.15 147.321C172.935 148.928 175.549 149.031 177.436 147.709L183.234 152.93C183.368 153.05 183.574 153.039 183.695 152.905L184.678 151.814C184.799 151.68 184.788 151.473 184.654 151.353L178.882 146.156ZM177.084 145.855C175.817 147.262 173.65 147.375 172.243 146.108C170.836 144.841 170.722 142.674 171.989 141.267C173.256 139.86 175.423 139.747 176.83 141.013C178.237 142.28 178.351 144.448 177.084 145.855Z" fill="#474961"/>
<path d="M193.534 148.172C193.289 148.813 193.091 149.472 192.939 150.148C192.036 154.169 190.561 156.537 191.577 158.461C192.177 159.596 193.329 159.937 194.223 160.033L194.837 167.705C195.081 169.783 195.243 170.939 195.325 171.173C195.31 173.093 197.722 172.605 202.214 172.605C207.441 172.605 214.412 173.308 214.828 171.374C215.203 169.631 215.113 165.975 214.559 160.406C216.375 159.931 217.711 159.109 218.051 158.444C219.01 156.598 217.91 153.614 216.684 150.264C215.207 146.249 214.405 144.274 212.598 142.642C211.101 141.294 209.466 140.829 208.088 141.089C206.975 140.641 205.753 140.443 204.491 140.554L200.913 140.87C197.102 141.178 194.15 144.365 193.534 148.172Z" fill="#C4CAEC"/>
<path opacity="0.176986" d="M193.422 148.41C193.212 148.987 193.039 149.578 192.903 150.183C192 154.203 190.524 156.571 191.541 158.496C192.133 159.617 193.265 159.963 194.154 160.063L194.115 159.576L194.104 159.413L193.395 150.676L193.374 150.383C193.318 149.716 193.337 149.055 193.422 148.41Z" fill="#444444"/>
<path d="M206.063 140.575C205.781 139.626 205.375 138.059 204.844 135.873L204.798 134.953C204.83 134.774 204.861 134.768 205.024 134.719C205.448 134.605 205.677 134.329 205.97 134.003C206.509 133.382 206.656 132.468 206.395 131.636C206.068 130.836 205.219 130.232 204.436 130.297C204.142 130.33 203.865 130.444 203.603 130.607L203.587 130.624C203.505 130.705 203.391 130.722 203.277 130.738C202.999 130.738 202.771 130.542 202.755 130.265L202.608 126.004C202.608 125.727 202.395 125.531 202.118 125.531C201.514 125.531 200.926 125.498 200.322 125.367C200.241 125.367 200.175 125.351 200.11 125.351C199.523 125.286 196.372 125.09 194.674 127.424C194.528 127.653 194.381 127.881 194.266 128.11C193.973 128.697 193.842 129.35 193.891 130.036L194.07 133.007C194.103 133.301 194.136 133.595 194.201 133.905C194.985 137.577 196.65 140.124 198.053 140.206C198.772 140.222 199.49 140.14 200.192 139.928C200.279 139.884 200.224 139.919 201.205 139.522L201.405 140.602C199.456 140.92 198.372 141.54 198.253 141.6C198.6 141.984 198.648 142.113 198.948 142.355C202.301 145.065 207.744 141.497 208.43 141.04C207.593 140.825 206.804 140.674 206.063 140.575ZM191.744 163.067L191.482 164.943L178.521 167.389C178.138 167.323 177.768 167.287 177.411 167.277C176.184 167.226 175.127 167.464 174.411 167.651C172.622 167.566 170.849 167.464 169.076 167.379C167.627 167.038 164.389 166.528 164.287 168.57C164.287 168.57 165.684 168.944 167.576 169.437C168.019 169.553 168.489 169.675 168.975 169.801C171.484 170.668 174.767 172.454 176.657 173.06L196.023 172.384C195.73 172.025 195.512 171.618 195.382 171.16C195.301 170.925 195.138 169.769 194.894 167.692L194.66 164.766C198.197 166.777 201.482 168.459 204.514 169.813C206.351 170.634 208.597 171.278 210.399 171.893C214.599 172.748 215.392 171.236 215.871 170.74C216.429 170.163 218.288 168.524 217.451 159.114C215.93 160.257 212.294 161.371 208.667 160.385C207.729 160.13 206.891 159.889 206.153 159.663L206.212 160.23L186.822 152.092C186.776 152.056 186.725 152.024 186.671 151.996L181.072 149.336C180.647 149.14 180.125 149.319 179.913 149.744L179.717 150.119C179.518 150.532 179.678 151.003 180.048 151.235C179.654 151.152 179.263 151.338 179.097 151.713L178.901 152.088C178.734 152.434 178.819 152.821 179.069 153.074C178.856 153.138 178.665 153.283 178.547 153.498L178.332 153.862C178.097 154.291 178.266 154.807 178.679 155.041L181.602 156.623C185.173 159.019 188.554 161.167 191.744 163.067ZM177.656 218.937L177.509 222.167L188.947 223.05L188.897 219.138C187.646 219.22 185.87 219.09 183.289 219.026C180.887 218.97 179.054 218.999 177.656 218.937ZM195.571 219.082L195.258 224.028L207.018 222.631L206.468 219.241C205.501 219.436 204.115 219.646 202.257 219.796C202.029 219.811 201.784 219.826 201.539 219.811C197.932 219.684 196.924 219.463 195.571 219.082Z" fill="#F2B489"/>
<path d="M205.259 137.679C205.449 138.52 205.616 139.216 205.732 139.569C205.99 139.569 206.249 139.569 206.509 139.569C206.899 139.569 208.309 139.421 209.627 139.341C209.627 139.341 209.725 139.341 209.806 139.324C210.231 139.259 210.639 139.194 211.047 138.981C211.047 138.981 211.178 138.932 211.292 138.834C213.593 136.941 214.099 134.231 213.12 132.713C212.418 131.652 211.047 131.244 210.851 131.179C210.59 131.097 210.329 131.064 210.1 131.048C210.011 130.781 209.922 130.499 209.833 130.217C209.809 129.264 209.597 127.998 208.762 126.951C208.419 126.51 207.962 126.184 207.472 125.939C206.166 125.286 205.17 125.612 202.591 125.547C202.069 125.547 200.266 125.317 200.201 125.317C197.542 125.149 195.682 125.884 194.622 127.522C195.408 127.403 196.046 127.403 196.535 127.522C199.702 128.306 200.633 133.791 202.085 133.562C202.099 133.56 202.114 133.558 202.129 133.554L202.118 133.546L202.82 131.619C202.983 131.228 203.261 130.918 203.587 130.656C203.848 130.493 204.126 130.379 204.42 130.346C205.203 130.281 206.052 130.885 206.378 131.685C206.432 131.822 206.471 131.962 206.498 132.103C206.588 132.796 206.41 133.497 205.97 134.003C205.946 134.03 205.921 134.057 205.895 134.083C205.894 134.085 205.892 134.087 205.891 134.088C205.549 134.441 205.105 134.684 204.618 134.779C204.82 135.863 205.141 137.276 205.259 137.679ZM196.372 132.142C196.699 132.223 197.237 132.305 197.678 132.191C198.445 132.028 197.727 131.571 197.025 131.538C196.699 131.522 196.437 131.652 196.274 131.783C196.16 131.897 196.209 132.109 196.372 132.142ZM193.615 132.142C193.95 132.228 194.467 132.33 194.932 132.207C195.719 132.024 194.99 131.563 194.3 131.542C193.938 131.524 193.704 131.659 193.535 131.789C193.397 131.899 193.448 132.108 193.615 132.142Z" fill="#482D1F"/>
<path opacity="0.2" d="M191.995 163.168C191.915 163.122 191.835 163.075 191.755 163.028L191.481 164.959L178.522 167.39C178.139 167.324 177.769 167.287 177.411 167.277C176.184 167.226 175.127 167.464 174.411 167.651C172.622 167.566 170.849 167.464 169.076 167.379C167.627 167.038 164.389 166.528 164.286 168.57C164.286 168.57 165.684 168.944 167.576 169.437C168.019 169.553 168.489 169.675 168.975 169.801C171.484 170.668 174.767 172.454 176.657 173.06L196.023 172.384C195.73 172.025 195.512 171.618 195.382 171.16C195.301 170.925 195.138 169.77 194.894 167.692L194.675 164.949L194.66 164.887L194.67 164.885L194.66 164.766L191.995 163.168Z" fill="#8C2A00"/>
<path d="M156.931 162.591C156.783 163.092 157.059 163.608 157.56 163.756L179.99 170.648C180.491 170.796 181.007 170.52 181.155 170.019C181.304 169.518 181.028 169.002 180.526 168.854L158.096 161.962C157.611 161.814 157.079 162.09 156.931 162.591Z" fill="#474961"/>
<path d="M201.211 139.502L202.491 138.93L201.452 140.837L201.211 139.502Z" fill="#482D1F"/>
<path d="M194.805 134.133C194.952 133.937 194.903 133.497 194.854 133.203C194.838 132.991 194.642 132.86 194.462 132.86C194.348 132.876 194.201 132.942 194.168 133.17C194.054 133.709 194.609 134.46 194.805 134.133ZM197.498 134.15C197.662 133.954 197.596 133.497 197.547 133.219C197.531 133.007 197.335 132.876 197.156 132.876C197.041 132.893 196.894 132.958 196.862 133.187C196.748 133.725 197.286 134.476 197.498 134.15Z" fill="#482D1F"/>
<path d="M195.089 133.862L194.943 132.912C194.93 132.822 194.991 132.739 195.08 132.725C195.169 132.712 195.252 132.773 195.266 132.862L195.414 133.823L195.415 133.843L195.462 135.572C195.468 135.592 195.484 135.604 195.505 135.606C195.703 135.581 195.957 135.557 196.269 135.535C196.358 135.528 196.437 135.596 196.443 135.686C196.45 135.776 196.382 135.854 196.292 135.86C195.98 135.883 195.727 135.906 195.535 135.931L195.517 135.933C195.327 135.936 195.172 135.803 195.138 135.623L195.136 135.598L195.089 133.862Z" fill="#482D1F"/>
<path d="M196.405 137.186C196.519 137.169 196.813 137.104 196.878 136.925C196.878 136.892 196.911 136.843 196.894 136.81C196.845 136.729 196.339 136.729 196.339 136.729C195.67 136.745 195.507 136.712 195.458 136.794C195.442 136.843 195.442 136.908 195.556 137.055C195.703 137.333 196.242 137.235 196.405 137.186Z" fill="#482D1F"/>
<path d="M206.294 159.494L205.4 151.242C205.386 151.107 205.483 150.987 205.618 150.972C205.752 150.958 205.873 151.055 205.887 151.189L206.781 159.441C206.796 159.576 206.698 159.696 206.564 159.711C206.429 159.725 206.309 159.628 206.294 159.494Z" fill="#455A64"/>
<path d="M133.088 232.237H110.444C110.031 232.237 109.701 232.563 109.701 232.971C109.701 233.379 110.031 233.706 110.444 233.706H136.707H155.406C155.815 233.706 156.141 233.379 156.141 232.971C156.141 232.563 155.815 232.237 155.406 232.237H133.088Z" fill="#263238"/>
<path d="M155.626 232.253C155.659 232.187 155.685 232.116 155.7 232.041V232.024C155.7 231.943 155.717 231.861 155.7 231.78C155.684 231.682 155.684 231.6 155.651 231.502C155.439 230.768 154.868 230.147 154.492 229.804C154.443 229.755 154.411 229.739 154.362 229.707C153.643 229.266 152.909 228.858 152.142 228.515C150.64 227.829 147.31 226.425 146.314 225.919C145.025 225.266 143.245 224.156 141.384 222.165C141.238 222.051 141.074 222.002 140.895 222.002L129.681 222.067C129.207 222.067 128.832 222.459 128.864 222.949L128.97 226.837C128.495 226.612 128.012 226.364 127.469 226.05C126.697 225.609 125.613 224.891 124.398 223.814C123.724 223.226 123.035 222.638 122.361 222.051L112.195 221.92L110.072 232.376C110.194 232.288 110.345 232.237 110.51 232.237H133.153H155.472C155.525 232.237 155.576 232.242 155.626 232.253Z" fill="#455A64"/>
<path opacity="0.176986" d="M136.536 232.237H155.447C155.489 232.162 155.521 232.08 155.539 231.992V231.976C155.539 231.894 155.555 231.812 155.539 231.731C155.523 231.633 155.523 231.551 155.49 231.453C155.278 230.719 154.706 230.098 154.331 229.756C154.282 229.707 154.249 229.69 154.2 229.658C153.482 229.217 152.748 228.809 151.98 228.466C150.479 227.78 147.149 226.377 146.153 225.871C144.863 225.218 143.084 224.108 141.223 222.116C141.076 222.002 140.913 221.953 140.734 221.953L129.519 222.018C129.046 222.018 128.83 222.362 128.862 222.852L128.972 226.921C130.095 227.441 131.218 227.857 133.045 228.727C133.829 229.103 134.58 229.527 135.314 230C135.673 230.327 136.294 230.996 136.489 231.78C136.522 231.91 136.522 232.041 136.538 232.155C136.538 232.183 136.538 232.21 136.536 232.237Z" fill="#263238"/>
<path d="M131.123 224.275C131.179 224.281 131.236 224.285 131.293 224.285L141.893 224.171H142.75C143.592 224.171 144.304 223.522 144.347 222.559C144.449 220.619 144.58 218.064 144.739 215.112C145.175 207.664 145.407 205.292 145.669 199.552C145.712 198.59 145.756 197.728 145.785 196.915C145.901 193.05 146.206 189.434 146.801 184.706C147.135 182.085 147.295 180.46 147.31 179.083C147.324 177.806 146.99 176.545 146.351 175.5C146.032 174.986 145.669 174.538 145.233 174.156C144.115 173.178 142.619 172.348 141.429 172.431C138.342 172.446 135.256 172.448 132.17 172.459C131.524 172.305 130.803 172.23 130.007 172.231L128.459 172.248C128.468 172.229 121.952 172.195 108.911 172.144C104.871 168.973 100.407 167.643 95.5195 168.155C93.5687 168.359 91.8012 168.916 90.2169 169.825C88.4679 170.815 86.9408 172.232 85.6355 174.076C84.8307 174.917 82.4146 178.759 82.8945 184.609C82.9874 185.686 83.1886 188.086 84.4885 190.371C85.8505 192.754 87.5219 194.501 90.3231 195.497C92.7993 196.378 95.6933 196.688 98.6957 196.345C102.926 195.54 107.818 194.871 113.373 194.338C111.873 198.443 110.901 201.023 110.458 202.079C109.792 203.646 107.986 210.411 107.307 215.595C106.975 218.129 107.091 220.371 107.655 222.318C107.998 223.506 109.087 224.323 110.323 224.322L124.216 224.308L130.453 224.275H131.123Z" fill="#334FC0"/>
<path opacity="0.2" d="M131.945 172.46C133.322 172.753 134.372 173.386 135.097 174.358C136.66 176.455 136.21 178.471 136.21 179.712V179.793C136.194 181.148 136.024 182.748 135.684 185.327C135.049 189.979 134.724 193.522 134.6 197.341C134.569 198.125 134.523 198.99 134.477 199.937C134.214 205.568 133.95 207.903 133.486 215.248C133.3 218.154 133.161 220.651 133.068 222.577C133.022 223.524 132.264 224.275 131.366 224.275H131.118C131.176 224.283 131.234 224.287 131.293 224.287L141.893 224.171H142.75C143.592 224.171 144.347 223.474 144.347 222.402C144.449 220.467 144.58 217.921 144.739 214.977C145.175 207.553 145.407 205.188 145.669 199.467C145.712 198.508 145.756 197.648 145.785 196.838C145.901 192.985 146.206 189.38 146.801 184.668C147.135 182.055 147.295 180.434 147.31 179.062C147.324 177.789 146.99 176.532 146.351 175.49C146.032 174.978 145.669 174.531 145.233 174.151C144.115 173.175 142.619 172.349 141.429 172.431C138.267 172.446 135.106 172.448 131.945 172.46Z" fill="#263238"/>
<path d="M106.635 142.386C108.055 143.494 109.202 145.198 109.417 145.823C111.2 151.008 113.346 150.802 113.518 151.925C113.774 153.606 111.807 153.81 111.807 153.81C110.894 153.897 110.199 153.964 109.724 154.01L109.611 158.647L109.6 158.811L109.41 166.935L109.368 168.521C109.372 168.652 109.36 168.766 109.348 168.898C109.337 169.045 109.325 169.176 109.314 169.323C109.278 169.7 109.209 170.062 109.107 170.425C109.064 170.574 109.036 170.721 108.976 170.871C95.3922 171.345 88.5589 170.397 88.4761 168.026L88.8146 153.874L86.7545 153.805C86.7545 153.805 84.5154 153.654 84.771 151.964C84.9419 150.834 87.3975 150.926 89.3182 145.66C89.5819 144.936 91.1938 142.754 93.0986 141.631C93.1589 141.595 93.2195 141.561 93.2803 141.527C94.5804 140.793 96.0891 140.389 97.6881 140.427L101.448 140.524C103.419 140.564 105.215 141.255 106.635 142.386Z" fill="#C4CAEC"/>
<path opacity="0.176986" d="M108.403 144.18C108.942 144.868 109.317 145.502 109.431 145.833C111.214 151.017 113.346 150.802 113.518 151.925C113.774 153.606 111.831 153.805 111.831 153.805L109.777 154.003L109.887 149.517L109.893 149.222C109.944 147.353 109.388 145.61 108.403 144.18Z" fill="#444444"/>
<mask id="mask0_214_2991" style="mask-type:alpha" maskUnits="userSpaceOnUse" x="82" y="124" width="49" height="49">
<path d="M99.1127 133.702C99.0832 133.675 99.054 133.646 99.0253 133.617C98.5083 133.072 98.2057 132.206 98.4909 131.369C98.7565 130.562 99.5476 129.909 100.332 129.942C100.774 129.956 101.96 130.227 101.952 129.834L101.866 125.67C101.861 125.408 102.065 125.184 102.328 125.179C102.905 125.157 103.47 125.086 104.079 124.921C104.145 124.911 104.212 124.902 104.279 124.892C104.83 124.803 107.923 124.424 109.695 126.605C109.856 126.785 109.998 126.996 110.137 127.24C110.456 127.797 110.618 128.435 110.615 129.089L110.603 132C110.589 132.293 110.574 132.585 110.527 132.875C109.965 136.496 108.464 139.054 107.102 139.206C106.935 139.238 106.059 139.293 105.017 139.053C104.922 139.027 104.998 139.067 103.64 138.59L103.416 140.799C102.767 140.63 102.088 140.533 101.387 140.519L98.5822 140.447L98.9365 137.088L99.0901 135.632L99.1127 133.702ZM109.441 165.177L109.579 159.321L109.593 158.771L109.602 158.645L109.667 155.959L109.718 154.015L111.046 153.887L115.626 166.353C116.054 166.434 116.55 166.535 117.13 166.658C118.064 166.653 118.837 166.674 119.45 166.722C121.93 166.916 124.06 166.997 126.555 168.479C131.102 171.182 131.457 172.426 127.618 172.212L119.789 172.167C119.692 172.202 119.594 172.225 119.497 172.234C119.497 172.234 108.055 172.133 85.1726 171.932C84.2522 171.924 83.3879 171.488 82.8336 170.753C82.567 170.4 82.3734 169.753 82.2528 168.814C81.8791 166.83 82.9471 163.99 84.9764 158.473C85.6217 156.724 86.2329 155.134 86.8082 153.721L99.4567 154.2C98.4811 156.623 96.7599 162.389 96.2723 163.272C96.2711 163.273 96.2699 163.273 96.2688 163.274C99.9112 163.765 104.275 164.373 109.441 165.177Z" fill="white"/>
</mask>
<g mask="url(#mask0_214_2991)">
<path d="M99.1127 133.702C99.0832 133.675 99.054 133.646 99.0253 133.617C98.5083 133.072 98.2057 132.206 98.4909 131.369C98.7565 130.562 99.5476 129.909 100.332 129.942C100.774 129.956 101.96 130.227 101.952 129.834L101.866 125.67C101.861 125.408 102.065 125.184 102.328 125.179C102.905 125.157 103.47 125.086 104.079 124.921C104.145 124.911 104.212 124.902 104.279 124.892C104.83 124.803 107.923 124.424 109.695 126.605C109.856 126.785 109.998 126.996 110.137 127.24C110.456 127.797 110.618 128.435 110.615 129.089L110.603 132C110.589 132.293 110.574 132.585 110.527 132.875C109.965 136.496 108.464 139.054 107.102 139.206C106.935 139.238 106.059 139.293 105.017 139.053C104.922 139.027 104.998 139.067 103.64 138.59L103.416 140.799C102.767 140.63 102.088 140.533 101.387 140.519L98.5822 140.447L98.9365 137.088L99.0901 135.632L99.1127 133.702ZM109.441 165.177L109.579 159.321L109.593 158.771L109.602 158.645L109.667 155.959L109.718 154.015L111.046 153.887L115.626 166.353C116.054 166.434 116.55 166.535 117.13 166.658C118.064 166.653 118.837 166.674 119.45 166.722C121.93 166.916 124.06 166.997 126.555 168.479C131.102 171.182 131.457 172.426 127.618 172.212L119.789 172.167C119.692 172.202 119.594 172.225 119.497 172.234C119.497 172.234 108.055 172.133 85.1726 171.932C84.2522 171.924 83.3879 171.488 82.8336 170.753C82.567 170.4 82.3734 169.753 82.2528 168.814C81.8791 166.83 82.9471 163.99 84.9764 158.473C85.6217 156.724 86.2329 155.134 86.8082 153.721L99.4567 154.2C98.4811 156.623 96.7599 162.389 96.2723 163.272C96.2711 163.273 96.2699 163.273 96.2688 163.274C99.9112 163.765 104.275 164.373 109.441 165.177Z" fill="#F2A98A"/>
<path d="M103.519 139.799L102.002 137.876L103.645 138.589L103.519 139.799Z" fill="#482D1F"/>
<path d="M109.536 131.843C109.555 131.62 109.733 131.454 109.957 131.455C110.094 131.445 110.221 131.539 110.289 131.773C110.433 132.344 109.889 133.202 109.641 132.861C109.489 132.649 109.523 132.152 109.536 131.843ZM105.931 131.768C105.949 131.545 106.127 131.378 106.352 131.38C106.489 131.37 106.616 131.464 106.684 131.698C106.827 132.269 106.284 133.127 106.036 132.786C105.884 132.574 105.918 132.076 105.931 131.768Z" fill="#482D1F"/>
<path d="M108.698 132.017L108.955 133.586C108.97 133.786 108.831 133.98 108.641 133.993C108.529 134.01 108.456 134.015 108.166 134.03C108.036 134.036 107.948 134.042 107.843 134.049C107.753 134.055 107.675 133.987 107.669 133.897C107.662 133.808 107.73 133.73 107.82 133.723C107.927 133.716 108.018 133.711 108.149 133.704C108.428 133.689 108.496 133.685 108.606 133.669C108.613 133.668 108.632 133.641 108.631 133.624L108.376 132.07C108.361 131.981 108.422 131.897 108.511 131.883C108.6 131.868 108.684 131.928 108.698 132.017Z" fill="#482D1F"/>
<path d="M107.67 135.049C107.559 135.021 107.286 134.915 107.243 134.739C107.24 134.703 107.221 134.651 107.235 134.632C107.291 134.538 107.498 134.596 107.781 134.629C108.284 134.684 108.703 134.654 108.703 134.654C108.703 134.654 108.584 134.967 108.513 135.062C108.357 135.287 107.845 135.108 107.67 135.049Z" fill="#482D1F"/>
<path d="M103.483 131.087C103.774 130.249 104.542 129.623 105.483 129.557C106.742 129.469 107.834 130.419 107.922 131.678C107.923 131.696 107.924 131.714 107.925 131.732C107.945 131.728 107.967 131.727 107.989 131.728L108.448 131.761C108.549 130.665 109.431 129.772 110.565 129.693C111.824 129.605 112.916 130.554 113.004 131.813C113.092 133.072 112.143 134.164 110.884 134.252C109.665 134.338 108.602 133.451 108.456 132.252L107.955 132.217C107.935 132.216 107.916 132.212 107.898 132.206C107.731 133.229 106.88 134.041 105.801 134.117C104.542 134.205 103.45 133.256 103.362 131.997C103.352 131.85 103.356 131.705 103.373 131.564L102.184 131.272C102.053 131.24 101.972 131.107 102.005 130.976C102.037 130.844 102.17 130.764 102.301 130.796L103.483 131.087ZM108.93 132.048C108.931 132.065 108.932 132.081 108.933 132.098C109.002 133.087 109.86 133.833 110.849 133.764C111.839 133.695 112.584 132.837 112.515 131.847C112.446 130.858 111.588 130.112 110.599 130.181C109.648 130.248 108.921 131.044 108.928 131.985C108.931 132.003 108.932 132.021 108.931 132.04C108.931 132.043 108.93 132.045 108.93 132.048ZM105.767 133.628C106.756 133.559 107.502 132.701 107.433 131.712C107.364 130.723 106.506 129.977 105.517 130.046C104.527 130.115 103.782 130.973 103.851 131.962C103.92 132.952 104.778 133.698 105.767 133.628Z" fill="#482D1F"/>
<path opacity="0.2" d="M109.439 165.224L109.589 158.826L109.6 158.662L109.713 154.012L111.041 153.884L115.613 166.383L109.439 165.224Z" fill="#8C2A00"/>
<path d="M94.433 164.665C94.3143 164.73 94.1655 164.686 94.1007 164.568C94.036 164.449 94.0797 164.3 94.1984 164.236L96.2388 163.122C96.3575 163.057 96.5063 163.101 96.571 163.22C96.6358 163.338 96.5921 163.487 96.4734 163.552L94.433 164.665ZM99.6174 154.375C99.5646 154.499 99.4209 154.557 99.2964 154.504C99.1719 154.452 99.1138 154.308 99.1666 154.183L101.353 149.03C101.406 148.906 101.549 148.848 101.674 148.901C101.798 148.953 101.856 149.097 101.804 149.222L99.6174 154.375Z" fill="#455A64"/>
</g>
<path d="M102.212 131.14C102.145 131.019 101.889 130.595 101.422 130.267C101.377 130.23 101.022 130.012 100.58 129.998C99.796 129.965 99.0049 130.621 98.7393 131.43C98.4541 132.27 98.7405 133.137 99.2575 133.684C99.6567 134.106 100.141 134.273 100.438 134.345C100.435 134.899 100.447 135.501 100.472 136.152C99.2065 136.069 98.091 135.517 97.1259 134.497C96.7268 134.077 95.6672 132.915 95.3371 131.059C95.2992 130.823 95.2239 130.372 95.2173 129.813C92.7055 129.854 90.6742 128.732 89.9271 127.14C89.2312 125.641 89.7142 123.847 89.7829 123.593C90.4719 121.035 92.792 121.065 92.9906 121.06C92.9906 121.06 96.3352 119.898 98.9791 125.248C98.9808 125.251 98.9825 125.255 98.9841 125.258C99.7421 125.199 100.661 125.252 102.062 125.167C102.574 125.139 103.32 125.014 104.237 124.881C104.302 124.887 105.086 124.808 105.153 124.798C105.484 124.798 106.593 124.694 108.028 125.336C109.463 125.979 109.993 126.945 109.971 126.986C109.93 127.063 109.198 127.395 108.76 127.496C107.532 127.778 106.466 127.616 105.811 127.449C105.638 127.841 105.394 128.291 105.069 128.733C104.126 130.046 102.939 130.725 102.198 131.058C102.203 131.085 102.207 131.112 102.212 131.14Z" fill="#482D1F"/>
<path d="M113.615 194.47L118.35 189.501C118.443 189.403 118.439 189.248 118.342 189.155C118.244 189.062 118.089 189.065 117.995 189.163L113.26 194.132C113.167 194.23 113.171 194.385 113.269 194.478C113.367 194.571 113.522 194.568 113.615 194.47Z" fill="#482D1F"/>
<path d="M215.706 172.003H85.1173C84.4863 172.003 83.9747 172.514 83.9747 173.145C83.9747 173.777 84.4863 174.288 85.1173 174.288H215.706C216.337 174.288 216.848 173.777 216.848 173.145C216.848 172.514 216.337 172.003 215.706 172.003Z" fill="#D8DEED"/>
<path d="M223.051 69.4911H169.347C167.544 69.4911 166.082 70.9527 166.082 72.7558V112.422C166.082 114.225 167.544 115.687 169.347 115.687H223.051C224.854 115.687 226.316 114.225 226.316 112.422V72.7558C226.316 70.9527 224.854 69.4911 223.051 69.4911Z" fill="#F2F6FB"/>
<path d="M170.462 85.0221H191.309C191.759 85.0221 192.125 85.3875 192.125 85.8383V86.4419C192.125 86.8926 191.759 87.258 191.309 87.258H170.462C170.012 87.258 169.646 86.8926 169.646 86.4419V85.8383C169.646 85.3875 170.012 85.0221 170.462 85.0221ZM170.462 88.6555H194.118C194.569 88.6555 194.935 89.0209 194.935 89.4717V90.0753C194.935 90.526 194.569 90.8915 194.118 90.8915H170.462C170.012 90.8915 169.646 90.526 169.646 90.0753V89.4717C169.646 89.0209 170.012 88.6555 170.462 88.6555ZM170.462 95.9223H196.928C197.379 95.9223 197.744 96.2878 197.744 96.7385V97.3421C197.744 97.7929 197.379 98.1583 196.928 98.1583H170.462C170.012 98.1583 169.646 97.7929 169.646 97.3421V96.7385C169.646 96.2878 170.012 95.9223 170.462 95.9223ZM170.462 99.5558H188.499C188.95 99.5558 189.315 99.9212 189.315 100.372V100.976C189.315 101.426 188.95 101.792 188.499 101.792H170.462C170.012 101.792 169.646 101.426 169.646 100.976V100.372C169.646 99.9212 170.012 99.5558 170.462 99.5558ZM170.462 103.189H194.118C194.569 103.189 194.935 103.555 194.935 104.005V104.609C194.935 105.06 194.569 105.425 194.118 105.425H170.462C170.012 105.425 169.646 105.06 169.646 104.609V104.005C169.646 103.555 170.012 103.189 170.462 103.189ZM170.462 106.823H196.928C197.379 106.823 197.744 107.188 197.744 107.639V108.242C197.744 108.693 197.379 109.059 196.928 109.059H170.462C170.012 109.059 169.646 108.693 169.646 108.242V107.639C169.646 107.188 170.012 106.823 170.462 106.823Z" fill="#E1E5F0"/>
<path d="M196.928 81.4854H170.462C170.012 81.4854 169.646 81.8508 169.646 82.3015V82.7496C169.646 83.2004 170.012 83.5658 170.462 83.5658H196.928C197.379 83.5658 197.744 83.2004 197.744 82.7496V82.3015C197.744 81.8508 197.379 81.4854 196.928 81.4854Z" fill="#D8DEED"/>
<path d="M205.221 85.0221H223.361C223.812 85.0221 224.177 85.3875 224.177 85.8383V86.4723C224.177 86.923 223.812 87.2884 223.361 87.2884H205.221C204.77 87.2884 204.405 86.923 204.405 86.4723V85.8383C204.405 85.3875 204.77 85.0221 205.221 85.0221ZM205.221 88.7049H217.712C218.163 88.7049 218.528 89.0703 218.528 89.5211V90.1551C218.528 90.6059 218.163 90.9713 217.712 90.9713H205.221C204.77 90.9713 204.405 90.6059 204.405 90.1551V89.5211C204.405 89.0703 204.77 88.7049 205.221 88.7049ZM205.221 92.3877H220.537C220.987 92.3877 221.353 92.7532 221.353 93.2039V93.8379C221.353 94.2887 220.987 94.6541 220.537 94.6541H205.221C204.77 94.6541 204.405 94.2887 204.405 93.8379V93.2039C204.405 92.7532 204.77 92.3877 205.221 92.3877ZM205.221 96.0706H214.887C215.338 96.0706 215.703 96.436 215.703 96.8868V97.5208C215.703 97.9715 215.338 98.3369 214.887 98.3369H205.221C204.77 98.3369 204.405 97.9715 204.405 97.5208V96.8868C204.405 96.436 204.77 96.0706 205.221 96.0706Z" fill="#E1E5F0"/>
<path d="M166.082 72.1037C166.082 70.6608 167.251 69.4911 168.694 69.4911H223.704C225.146 69.4911 226.316 70.6605 226.316 72.1037V74.7163H166.082V72.1037Z" fill="#E1E5F0"/>
</g>
<defs>
<clipPath id="clip0_214_2991">
<rect width="300" height="300" fill="white"/>
</clipPath>
</defs>
</svg>
