<svg width="300" height="300" viewBox="0 0 300 300" fill="none" xmlns="http://www.w3.org/2000/svg">
<g clip-path="url(#clip0_214_2843)">
<path fill-rule="evenodd" clip-rule="evenodd" d="M142.89 281.229C114.55 281.928 89.9862 264.819 66.3169 249.165C41.0625 232.462 10.3133 217.261 2.06634 188.093C-6.14579 159.048 11.9026 130.007 24.9359 102.809C36.4989 78.6787 50.5786 55.8284 72.6624 40.7706C94.5231 25.8649 120.897 15.8329 147.096 19.5141C171.899 22.9993 186.384 47.8304 208.383 59.8408C236.213 75.0354 277.019 71.2277 292.537 98.9193C308.075 126.648 296.777 163.195 282.078 191.355C268.566 217.24 240.541 229.652 216.036 245.475C192.662 260.568 170.699 280.544 142.89 281.229Z" fill="#F7F8FC"/>
<path d="M76.9254 190.673H64.0132C63.6214 190.673 63.2787 190.346 63.2787 189.952V189.87C63.2787 189.477 63.6214 189.149 64.0459 189.149H76.011C83.2587 189.149 90.5063 189.149 97.7376 189.149H108.838C109.229 189.149 109.572 189.477 109.572 189.87V189.952C109.572 190.346 109.246 190.673 108.838 190.673H93.0852L97.4275 198.67C100.513 204.372 103.598 210.058 106.699 215.761L111.809 225.167C111.988 225.494 111.841 225.92 111.498 226.117L111.433 226.15C111.09 226.33 110.65 226.232 110.486 225.92L91.3714 190.673H78.6391L59.5242 225.92C59.361 226.232 58.9203 226.346 58.5775 226.15L58.5122 226.117C58.1694 225.92 58.0225 225.494 58.202 225.167L63.3113 215.761C66.3964 210.058 69.4816 204.372 72.5831 198.67L76.9254 190.673ZM63.3276 184.261V174.724C63.3276 167.458 63.3276 160.208 63.3276 152.958V144.291C63.3276 142.938 64.4239 141.842 65.7762 141.842H92.4161C93.7684 141.842 94.8647 142.938 94.8647 144.291V184.29C94.8647 185.642 93.7684 186.738 92.4161 186.738C92.4153 186.738 92.4144 186.738 92.4136 186.738L65.7736 186.71C64.4223 186.708 63.3276 185.613 63.3276 184.261Z" fill="#D8DEED"/>
<path d="M70.51 225.938H87.2579C87.6497 225.938 87.9925 225.655 87.9925 225.316V225.09C87.9925 224.751 87.666 224.469 87.2579 224.469H70.5263C70.1346 224.469 69.7918 224.751 69.7918 225.09V225.316C69.7591 225.655 70.1019 225.938 70.51 225.938ZM99.2354 224.454L83.0218 212.374C82.6954 212.129 82.222 212.195 81.9771 212.521C81.7323 212.848 81.7976 213.321 82.124 213.566L98.5128 225.776C98.8393 226.021 99.3127 225.955 99.5575 225.629C99.8024 225.302 99.7371 224.829 99.4106 224.584L99.2354 224.454H99.0025C98.5945 224.454 98.2517 224.789 98.2517 225.188C98.268 225.603 98.5945 225.923 99.0025 225.923H108.062C108.47 225.923 108.813 225.587 108.813 225.188C108.813 224.789 108.47 224.454 108.062 224.454H99.2354Z" fill="#263238"/>
<path d="M84.9644 215.693L74.2806 214.245L70.4891 224.469C70.4967 224.469 70.5044 224.469 70.512 224.469H87.2437C87.2757 224.469 87.3072 224.471 87.3381 224.474L86.0782 216.522L84.9644 215.693ZM83.003 212.371C83.0045 212.372 83.006 212.373 83.0075 212.374L99.2211 224.454H108.048C108.139 224.454 108.226 224.47 108.307 224.5C108.34 224.381 108.367 224.255 108.372 224.142C108.356 224.028 108.356 223.897 108.323 223.767C108.242 223.473 108.111 223.196 107.964 222.951C107.491 222.2 106.642 221.677 106.642 221.677C105.662 221.041 104.765 220.616 103.704 220.159C103.149 219.915 102.365 219.588 101.451 219.229C101.157 218.282 100.863 217.335 100.569 216.372C100.014 214.528 99.4595 212.699 98.9208 210.871L89.0941 203.738L83.003 212.371Z" fill="#455A64"/>
<path d="M89.5459 194.306L89.5968 194.127C89.7136 193.816 89.7022 193.805 89.5626 194.093C89.6455 193.022 89.7206 191.854 89.7881 190.58L90.0018 187.015L93.7591 185.589C92.3428 188.505 90.9299 191.463 89.5349 194.443C89.5386 194.397 89.5422 194.352 89.5459 194.306V194.306ZM70.7068 188.043C70.7247 196.69 71.0029 208.466 71.0976 212.468C71.1139 213.015 71.0486 214.496 72.0281 215.429C72.3056 215.703 72.5831 215.815 73.1054 216.057C73.5135 216.25 75.3417 216.829 78.9982 217.151C79.2267 217.167 79.4716 217.183 79.7164 217.167C83.4679 217.023 84.408 216.768 85.8482 216.321L82.1499 213.566C81.8234 213.321 81.7581 212.848 82.003 212.521C82.2444 212.199 82.7079 212.131 83.0338 212.364L85.8686 208.346C86.9855 208.973 88.8406 209.483 91.6776 210.46C97.1502 212.35 99.343 213.575 100.936 212.364C101.468 211.976 101.717 211.513 101.814 211.291C104.257 205.53 113.744 189.32 118.655 177.287C118.661 177.256 118.68 177.244 118.687 177.213C120.262 173.334 118.341 169.752 113.129 167.133C111.044 166.322 109.367 165.914 107.994 165.816L107.997 165.811C87.9688 164.289 76.8617 163.752 74.6759 164.202C71.3972 164.877 68.9505 166.401 67.3614 169.548C65.7723 172.695 65.1931 176.192 66.1655 181.057C67.0637 185.55 69.6374 187.725 70.7068 188.043Z" fill="#334FC0"/>
<path d="M85.7075 208.395C84.9796 207.896 84.4357 207.325 84.291 206.758C84.0794 205.969 84.2241 205.228 84.551 204.497C86.339 200.501 87.5776 197.851 88.2689 196.542C88.3321 196.422 88.4802 196.376 88.5998 196.439C88.7194 196.503 88.7651 196.651 88.702 196.77C88.0172 198.067 86.7817 200.711 84.998 204.697C84.7128 205.335 84.5879 205.975 84.7648 206.634C84.8724 207.056 85.3472 207.554 85.9842 207.991C86.0958 208.067 86.1243 208.219 86.0479 208.331C85.9715 208.443 85.8191 208.471 85.7075 208.395Z" fill="#482D1F"/>
<path opacity="0.2" d="M70.6587 188.088C70.6581 187.808 70.6578 187.532 70.6578 187.259C70.6578 183.912 70.6415 181.031 70.6088 179.18C70.5762 177.716 70.3313 169.669 73.4981 167.995C73.7756 167.85 74.0531 167.738 74.6081 167.528C75.0488 167.367 77.3341 166.53 80.2724 166.659C82.1822 166.74 85.0552 166.868 87.4221 168.88C90.6868 171.664 90.6052 176.058 90.5725 176.766L89.9517 187.124L93.6911 185.705C96.3203 180.293 98.9618 175.026 101.523 170.033C102.778 167.594 104.27 165.596 108.032 165.898L108.04 165.886C88.0111 164.363 76.904 163.827 74.7182 164.276C71.4395 164.951 68.9927 166.475 67.4037 169.622C65.8146 172.769 65.2354 176.266 66.2078 181.131C67.0816 185.502 69.5411 187.68 70.6587 188.088Z" fill="#263238"/>
<path d="M74.3499 148.787C73.3634 148.721 72.4595 148.63 71.6384 148.513C70.7243 148.513 69.3042 148.35 68.6186 147.371C67.6229 145.967 68.7655 143.698 70.0387 141.151C71.5731 138.099 72.6117 136.93 74.2828 135.357C77.1278 132.678 79.1326 132.338 80.7498 133.576C80.7713 133.593 80.7925 133.611 80.8135 133.63C81.5354 133.435 82.2964 133.336 83.0812 133.347L86.6724 133.409C91.2267 133.455 95.0137 137.143 94.9484 141.603V141.88L94.8505 150.476L94.8342 158.554C94.66 159.547 94.5675 160.084 94.5567 160.166C94.5403 160.305 94.5403 160.429 94.524 160.568C94.4914 160.938 94.4424 161.277 94.3445 161.617C94.3118 161.756 93.3461 162.358 93.2971 162.497C79.8552 163.529 73.069 163.902 72.9384 163.614C72.6736 163.002 73.1441 158.059 74.3499 148.787Z" fill="#C4CAEC"/>
<path d="M83.6578 132.954C83.9334 132.605 84.1839 132.279 84.4093 131.974C85.2389 132.316 86.1471 132.667 87.134 133.025C87.2308 133.061 87.3362 133.064 87.4353 133.036C87.6954 132.962 87.8464 132.692 87.7724 132.431L87.5817 131.761C86.889 131.316 86.5388 131.04 86.3665 130.909C86.3224 130.869 85.5005 130.376 85.4565 130.337L85.4551 127.745C85.4477 127.563 83.9177 125.343 84.2922 124.557C84.727 123.812 86.0242 122.567 86.792 122.741C87.0789 122.814 88.6155 123.479 88.6702 123.207L89.4074 119.019C89.4459 118.745 89.6836 118.581 89.9587 118.62C90.5576 118.704 91.1449 118.754 91.7619 118.709C91.8428 118.72 91.9098 118.713 91.9746 118.722C92.5663 118.74 95.7175 118.985 97.0768 121.528C97.1907 121.774 97.3047 122.02 97.3863 122.262C97.596 122.883 97.6349 123.546 97.4911 124.217L96.9006 127.127C96.837 127.375 96.7734 127.623 96.6871 127.879C97.1537 127.789 97.511 127.754 97.759 127.775C98.9005 127.871 99.071 128.458 98.2705 129.534L94.7861 133.583C100.3 146.56 102.974 154.864 102.807 158.496L110.865 158.902C113.6 159.586 117.48 160.453 117.48 160.453C117.381 162.803 114.494 162.479 113.082 162.163L109.128 163.084L106.163 163.749C105.588 164.177 104.563 165.412 101.544 165.412C97.8152 165.412 88.1383 165.016 72.5132 164.224C69.5092 163.854 67.8738 163.194 67.6073 162.242C67.2074 160.814 65.7038 159.993 68.8471 151.136C69.209 150.117 69.5699 149.159 69.9207 148.269C70.5294 148.483 71.1955 148.533 71.7046 148.533C74.1648 148.883 77.3674 149.004 81.3123 148.895C80.8457 150.065 80.5027 151.025 80.2932 151.406C79.7585 152.547 79.4939 153.139 79.4994 153.184L94.6711 156.862L94.7371 150.65L94.7534 150.496L94.8514 141.9V141.623C94.8987 138.392 93.0096 135.566 90.2333 134.236C91.0458 134.423 91.8324 134.472 92.5929 134.384C93.9053 134.233 94.8973 132.908 95.5688 130.408L95.5544 130.411C95.7569 130.045 95.953 129.654 96.1398 129.239C94.8741 132.042 93.1819 133.784 91.9517 133.683C91.2372 133.599 90.5364 133.419 89.8698 133.111C89.7853 133.053 89.8447 133.102 88.7794 132.487L88.4254 133.522C89.5505 133.869 90.0864 134.236 90.021 134.196C89.6838 134.637 89.4735 134.899 89.1008 135.181C86.8963 136.892 83.9679 136.509 81.6324 135.737C81.3947 134.565 81.1005 133.845 80.7498 133.576C80.6329 133.487 80.5143 133.405 80.3938 133.333C81.5921 133.101 82.6805 132.987 83.6578 132.954Z" fill="#ED9474"/>
<path opacity="0.2" d="M90.1944 134.236C91.007 134.422 91.7936 134.472 92.5541 134.384C93.8665 134.233 94.8585 132.908 95.53 130.408L95.5156 130.411C95.912 129.695 96.284 128.881 96.61 127.987C96.623 127.951 96.6356 127.915 96.6477 127.879C97.1146 127.789 97.4721 127.754 97.7202 127.775C98.8616 127.871 99.0322 128.457 98.2317 129.534L94.7472 133.583C100.29 146.629 102.963 154.952 102.765 158.554L102.238 158.527C100.917 158.28 99.6605 158.087 99.5867 158.109L94.6318 156.908L94.6983 150.65L94.7146 150.496L94.8126 141.9V141.623C94.8599 138.392 92.9708 135.566 90.1944 134.236Z" fill="#8C2A00"/>
<path d="M88.8012 132.445C89.8572 133.055 89.7984 133.006 89.8827 133.064C90.5492 133.372 91.2501 133.552 91.9645 133.636C93.0168 133.723 94.4071 132.46 95.5794 130.34L95.6307 130.331C94.9035 132.962 93.8837 134.354 92.5713 134.505C91.2589 134.656 89.8618 134.32 88.3801 133.495L88.8012 132.445ZM88.8266 126.547L88.8391 126.54L88.4121 124.535C88.305 124.124 88.0733 123.778 87.7864 123.474C87.5505 123.276 87.2916 123.125 87.0052 123.051C86.2383 122.878 85.3137 123.358 84.8791 124.104C84.4607 124.853 84.4812 125.763 84.9606 126.456C85.2595 126.911 85.7058 127.253 86.2256 127.425L86.4196 127.449L87.8476 132.473C87.9216 132.733 87.7706 133.004 87.5105 133.078C87.4127 133.106 87.3087 133.102 87.2129 133.068C80.8508 130.812 77.7534 128.827 77.9207 127.115C78.0685 125.601 79.5155 123.333 82.2616 120.312C82.4868 119.879 82.7843 119.457 83.1779 119.085C83.5787 118.696 84.0767 118.436 84.5958 118.262C85.9798 117.797 86.9204 118.259 89.4835 118.553C90.0008 118.626 90.7696 118.668 91.7531 118.708C91.8339 118.719 91.9009 118.712 91.9655 118.721C92.5566 118.738 95.5585 118.819 97.0737 121.549C97.0508 121.595 95.9581 121.277 95.2057 121.352C91.9607 121.687 90.276 126.989 88.8692 126.561C88.8557 126.557 88.8415 126.553 88.8266 126.547ZM94.8061 125.862C94.4715 125.897 93.9428 125.905 93.5061 125.728C92.7691 125.46 93.544 125.107 94.2436 125.173C94.5691 125.202 94.8096 125.368 94.9531 125.52C95.0503 125.649 94.9723 125.852 94.8061 125.862ZM97.5632 126.183C97.224 126.251 96.7047 126.31 96.245 126.179C95.4689 125.955 96.2205 125.533 96.9108 125.547C97.2732 125.549 97.4998 125.696 97.6617 125.834C97.7935 125.952 97.7317 126.157 97.5632 126.183Z" fill="#482D1F"/>
<path d="M93.4114 127.693C93.2771 127.476 93.4053 127.033 93.4924 126.765C93.5381 126.557 93.7503 126.455 93.9281 126.48C94.039 126.512 94.1754 126.597 94.1759 126.828C94.2141 127.377 93.5761 128.046 93.4114 127.693ZM96.0809 128.052C95.9788 127.84 96.0747 127.392 96.1619 127.124C96.2076 126.916 96.4197 126.814 96.5975 126.839C96.7084 126.871 96.8448 126.956 96.8453 127.187C96.8835 127.736 96.2294 128.402 96.0809 128.052Z" fill="#482D1F"/>
<path d="M96.0895 126.806C96.114 126.719 96.0634 126.629 95.9767 126.604C95.8899 126.58 95.7997 126.631 95.7753 126.717L95.5119 127.653L95.5076 127.673L95.2509 129.384C95.242 129.402 95.2249 129.413 95.2034 129.412C94.9048 129.338 94.5916 129.37 94.2972 129.488C94.2134 129.521 94.1726 129.616 94.206 129.7C94.2394 129.783 94.3344 129.824 94.4181 129.791C94.6554 129.696 94.9031 129.672 95.1343 129.731L95.152 129.734C95.3408 129.761 95.5107 129.648 95.5655 129.473L95.5713 129.449L95.829 127.731L96.0895 126.806Z" fill="#482D1F"/>
<path d="M94.0719 130.852C93.961 130.82 93.6791 130.714 93.6394 130.527C93.644 130.495 93.6185 130.442 93.6392 130.412C93.699 130.338 94.2001 130.408 94.2001 130.408C94.8606 130.518 95.0268 130.508 95.0639 130.596C95.0733 130.646 95.0642 130.711 94.9306 130.841C94.7465 131.095 94.2451 130.909 94.0719 130.852Z" fill="#482D1F"/>
<path d="M79.1138 153.085C79.2243 153.007 79.3771 153.033 79.4549 153.144C79.5328 153.255 79.5063 153.407 79.3957 153.485L76.6925 155.389C76.5819 155.466 76.4292 155.44 76.3513 155.329C76.2734 155.219 76.3 155.066 76.4105 154.988L79.1138 153.085ZM81.7567 145.346C81.7117 145.219 81.7786 145.079 81.9061 145.034C82.0336 144.989 82.1735 145.056 82.2185 145.183C82.2299 145.216 82.2491 145.274 82.2733 145.354C82.3132 145.485 82.3531 145.631 82.3902 145.788C82.4918 146.217 82.5549 146.645 82.5608 147.049C82.5789 148.3 82.0383 149.101 80.7927 149.085C80.6575 149.083 80.5494 148.972 80.5512 148.837C80.5529 148.701 80.664 148.593 80.7992 148.595C81.7188 148.607 82.0857 148.063 82.0711 147.056C82.0659 146.692 82.0077 146.298 81.9137 145.901C81.879 145.754 81.8418 145.618 81.8047 145.496C81.7827 145.423 81.7658 145.372 81.7567 145.346Z" fill="#455A64"/>
<path d="M126.329 162.882C126.166 163.169 125.857 163.363 125.504 163.363H102.047C101.525 163.363 101.117 162.939 101.117 162.417C101.117 161.894 101.541 161.47 102.047 161.47H124.863L132.817 140.07C132.996 139.58 133.535 139.335 134.025 139.515C134.515 139.694 134.759 140.233 134.58 140.723L126.402 162.727C126.382 162.782 126.357 162.833 126.329 162.882Z" fill="#474961"/>
<path d="M197.099 72.0397H138.171C137.63 72.0397 137.192 72.4782 137.192 73.0191V129.172C137.192 129.713 137.63 130.152 138.171 130.152H197.099C197.64 130.152 198.078 129.713 198.078 129.172V73.0191C198.078 72.4782 197.64 72.0397 197.099 72.0397Z" fill="#F2F6FB"/>
<path d="M137.192 75.3053C137.192 73.5018 138.653 72.0397 140.457 72.0397H194.813C196.616 72.0397 198.078 73.5026 198.078 75.3053V79.0589H137.192V75.3053ZM147.633 94.0956H187.719V129.447C187.719 129.807 187.428 130.099 187.065 130.099H148.287C147.925 130.099 147.633 129.806 147.633 129.447V94.0956ZM151.325 99.523V104.098C151.325 104.458 151.617 104.75 151.977 104.75H154.892C155.251 104.75 155.544 104.458 155.544 104.098V99.523C155.544 99.163 155.252 98.8715 154.892 98.8715H151.977C151.618 98.8715 151.325 99.1632 151.325 99.523ZM151.325 109.442V114.017C151.325 114.377 151.617 114.669 151.977 114.669H154.892C155.251 114.669 155.544 114.377 155.544 114.017V109.442C155.544 109.082 155.252 108.791 154.892 108.791H151.977C151.618 108.791 151.325 109.082 151.325 109.442ZM158.445 99.523V104.098C158.445 104.458 158.737 104.75 159.098 104.75H162.013C162.372 104.75 162.665 104.458 162.665 104.098V99.523C162.665 99.163 162.373 98.8715 162.013 98.8715H159.098C158.739 98.8715 158.445 99.1632 158.445 99.523ZM158.445 109.442V114.017C158.445 114.377 158.737 114.669 159.098 114.669H162.013C162.372 114.669 162.665 114.377 162.665 114.017V109.442C162.665 109.082 162.373 108.791 162.013 108.791H159.098C158.739 108.791 158.445 109.082 158.445 109.442ZM165.566 99.523V104.098C165.566 104.458 165.858 104.75 166.218 104.75H169.133C169.492 104.75 169.785 104.458 169.785 104.098V99.523C169.785 99.163 169.493 98.8715 169.133 98.8715H166.218C165.859 98.8715 165.566 99.1632 165.566 99.523ZM165.566 109.442V114.017C165.566 114.377 165.858 114.669 166.218 114.669H169.133C169.492 114.669 169.785 114.377 169.785 114.017V109.442C169.785 109.082 169.493 108.791 169.133 108.791H166.218C165.859 108.791 165.566 109.082 165.566 109.442ZM172.686 99.523V104.098C172.686 104.458 172.979 104.75 173.339 104.75H176.254C176.613 104.75 176.906 104.458 176.906 104.098V99.523C176.906 99.163 176.614 98.8715 176.254 98.8715H173.339C172.98 98.8715 172.686 99.1632 172.686 99.523ZM179.807 99.523V104.098C179.807 104.458 180.099 104.75 180.459 104.75H183.374C183.733 104.75 184.027 104.458 184.027 104.098V99.523C184.027 99.163 183.734 98.8715 183.374 98.8715H180.459C180.1 98.8715 179.807 99.1632 179.807 99.523ZM179.807 109.442V114.017C179.807 114.377 180.099 114.669 180.459 114.669H183.374C183.733 114.669 184.027 114.377 184.027 114.017V109.442C184.027 109.082 183.734 108.791 183.374 108.791H180.459C180.1 108.791 179.807 109.082 179.807 109.442ZM151.325 119.361V123.936C151.325 124.296 151.617 124.588 151.977 124.588H154.892C155.251 124.588 155.544 124.296 155.544 123.936V119.361C155.544 119.001 155.252 118.71 154.892 118.71H151.977C151.618 118.71 151.325 119.002 151.325 119.361ZM158.445 119.361V123.936C158.445 124.296 158.737 124.588 159.098 124.588H162.013C162.372 124.588 162.665 124.296 162.665 123.936V119.361C162.665 119.001 162.373 118.71 162.013 118.71H159.098C158.739 118.71 158.445 119.002 158.445 119.361ZM165.566 119.361V123.936C165.566 124.296 165.858 124.588 166.218 124.588H169.133C169.492 124.588 169.785 124.296 169.785 123.936V119.361C169.785 119.001 169.493 118.71 169.133 118.71H166.218C165.859 118.71 165.566 119.002 165.566 119.361ZM172.686 119.361V123.936C172.686 124.296 172.979 124.588 173.339 124.588H176.254C176.613 124.588 176.906 124.296 176.906 123.936V119.361C176.906 119.001 176.614 118.71 176.254 118.71H173.339C172.98 118.71 172.686 119.002 172.686 119.361ZM179.807 119.361V123.936C179.807 124.296 180.099 124.588 180.459 124.588H183.374C183.733 124.588 184.027 124.296 184.027 123.936V119.361C184.027 119.001 183.734 118.71 183.374 118.71H180.459C180.1 118.71 179.807 119.002 179.807 119.361Z" fill="#E1E5F0"/>
<path d="M176.253 105.673H173.339C172.979 105.673 172.686 105.965 172.686 106.326V110.399C172.686 110.76 172.979 111.052 173.339 111.052H176.253C176.614 111.052 176.906 110.76 176.906 110.399V106.326C176.906 105.965 176.614 105.673 176.253 105.673Z" fill="#7585D3"/>
<path d="M147.633 85.8559C147.633 85.4958 147.924 85.2039 148.287 85.2039H187.065C187.426 85.2039 187.719 85.4967 187.719 85.8559V93.2972H147.633V85.8559ZM161.409 87.9016C161.229 87.9016 161.083 88.0478 161.083 88.2281V90.2729C161.083 90.4532 161.229 90.5994 161.409 90.5994H173.942C174.123 90.5994 174.269 90.4532 174.269 90.2729V88.2281C174.269 88.0478 174.123 87.9016 173.942 87.9016H161.409Z" fill="#D8DEED"/>
<path d="M145.843 63.7147H83.9768C83.4359 63.7147 82.9974 64.1532 82.9974 64.6941V110.727C82.9974 111.267 83.4359 111.706 83.9768 111.706H145.843C146.384 111.706 146.822 111.267 146.822 110.727V64.6941C146.822 64.1532 146.384 63.7147 145.843 63.7147Z" fill="#F2F6FB"/>
<path d="M110.315 83.454H119.505V86.8712C119.505 87.2324 119.212 87.5253 118.851 87.5253H110.969C110.608 87.5253 110.315 87.2325 110.315 86.8712V83.454Z" fill="#E1E5F0"/>
<path d="M95.5862 101.466H104.776V104.883C104.776 105.244 104.483 105.537 104.122 105.537H96.2397C95.8788 105.537 95.5862 105.244 95.5862 104.883V101.466Z" fill="#E1E5F0"/>
<path d="M110.315 101.466H119.505V104.883C119.505 105.244 119.212 105.537 118.851 105.537H110.969C110.608 105.537 110.315 105.244 110.315 104.883V101.466Z" fill="#E1E5F0"/>
<path d="M125.17 101.466H134.36V104.883C134.36 105.244 134.067 105.537 133.706 105.537H125.823C125.462 105.537 125.17 105.244 125.17 104.883V101.466Z" fill="#E1E5F0"/>
<path d="M110.315 76.5802C110.315 76.2202 110.608 75.9284 110.969 75.9284H118.851C119.212 75.9284 119.505 76.2207 119.505 76.5802V84.2786H110.315V76.5802ZM95.5862 94.511C95.5862 94.1497 95.879 93.8567 96.2397 93.8567H104.122C104.483 93.8567 104.776 94.1484 104.776 94.511V102.33H95.5862V94.511ZM110.315 94.511C110.315 94.1497 110.608 93.8567 110.969 93.8567H118.851C119.212 93.8567 119.505 94.1484 119.505 94.511V102.33H110.315V94.511ZM125.17 94.511C125.17 94.1497 125.463 93.8567 125.823 93.8567H133.706C134.067 93.8567 134.36 94.1484 134.36 94.511V102.33H125.17V94.511Z" fill="#7585D3"/>
<path d="M129.576 93.9405V93.4305V91.4289C129.576 91.2502 129.43 91.103 129.251 91.103H100.947C100.767 91.103 100.622 91.2493 100.622 91.4299V93.9405H99.7405V91.0562C99.7405 90.6051 100.107 90.2394 100.558 90.2394H129.639C130.091 90.2394 130.457 90.6035 130.457 91.0557V92.0297V93.9405H129.576Z" fill="#E1E5F0"/>
<path d="M115.35 87.5253H114.469V93.9406H115.35V87.5253Z" fill="#E1E5F0"/>
<path d="M82.9974 66.4289C82.9974 64.9299 84.2119 63.7147 85.7118 63.7147H144.108C145.607 63.7147 146.822 64.9296 146.822 66.4289V69.143H82.9974V66.4289Z" fill="#E1E5F0"/>
<path d="M86.7112 67.6626C87.3717 67.6626 87.9071 67.1379 87.9071 66.4906C87.9071 65.8433 87.3717 65.3185 86.7112 65.3185C86.0507 65.3185 85.5152 65.8433 85.5152 66.4906C85.5152 67.1379 86.0507 67.6626 86.7112 67.6626Z" fill="#FF5645"/>
<path d="M90.6136 67.6626C91.2741 67.6626 91.8095 67.1379 91.8095 66.4906C91.8095 65.8433 91.2741 65.3185 90.6136 65.3185C89.9531 65.3185 89.4177 65.8433 89.4177 66.4906C89.4177 67.1379 89.9531 67.6626 90.6136 67.6626Z" fill="#FFCB3D"/>
<path d="M94.6421 67.6626C95.3025 67.6626 95.838 67.1379 95.838 66.4906C95.838 65.8433 95.3025 65.3185 94.6421 65.3185C93.9816 65.3185 93.4461 65.8433 93.4461 66.4906C93.4461 67.1379 93.9816 67.6626 94.6421 67.6626Z" fill="#3ABF7C"/>
<path d="M235.9 189.18V189.21C235.9 189.602 235.557 189.928 235.165 189.928H222.841L227.183 197.894C230.285 203.575 233.37 209.239 236.455 214.92L241.564 224.289C241.744 224.616 241.597 225.04 241.254 225.236L241.189 225.269C240.846 225.465 240.405 225.35 240.242 225.04L221.127 189.928H208.395L189.28 225.04C189.117 225.35 188.676 225.448 188.333 225.269L188.268 225.236C187.925 225.04 187.778 224.616 187.958 224.289L193.067 214.92C196.169 209.239 199.254 203.575 202.339 197.894L206.681 189.928H190.341C189.933 189.928 189.606 189.602 189.606 189.21V189.128C189.606 188.737 189.949 188.41 190.341 188.41H201.441C208.672 188.41 215.92 188.41 223.168 188.41H234.459L235.835 177.278C236.782 169.703 237.712 162.113 238.659 154.523L240.209 141.986C240.258 141.545 240.634 141.219 241.042 141.268L241.124 141.284C241.515 141.333 241.793 141.741 241.744 142.149L235.916 189.096C235.912 189.124 235.907 189.152 235.9 189.18Z" fill="#D8DEED"/>
<path d="M152.944 224.012H179.225C179.63 224.012 179.959 224.341 179.959 224.746C179.959 225.152 179.63 225.481 179.225 225.481H152.944C152.538 225.481 152.209 225.152 152.209 224.746C152.209 224.341 152.538 224.012 152.944 224.012ZM208.683 224.042L224.65 212.138C224.766 212.059 224.881 212.012 225.012 212.014C225.241 212.002 225.467 212.104 225.611 212.286L225.659 212.368C225.899 212.65 225.826 213.089 225.528 213.313L209.283 225.486L199.716 225.515C199.34 225.508 199.035 225.209 199.026 224.833L199.027 224.736C199.05 224.36 199.349 224.055 199.725 224.062L208.683 224.042Z" fill="#263238"/>
<path d="M179.531 224.151C179.438 224.108 179.334 224.085 179.225 224.085H152.944C152.891 224.085 152.839 224.09 152.789 224.101C152.798 224.006 152.804 223.903 152.83 223.801C153.025 223.017 153.662 222.364 154.021 222.038C154.772 221.564 155.523 221.156 156.306 220.781C159.212 219.377 160.208 219.393 162.118 218.12C162.901 217.581 163.636 216.977 164.305 216.308C164.751 215.862 165.888 215.122 167.717 214.088H182.016L179.531 224.151ZM224.95 212.089C224.844 212.1 224.747 212.144 224.65 212.211L208.683 224.115L199.725 224.135C199.652 224.133 199.582 224.144 199.517 224.164C199.496 224.06 199.484 223.95 199.486 223.835C199.505 223.721 199.507 223.591 199.542 223.461C199.751 222.681 200.383 222.023 200.748 221.702C201.491 221.242 202.249 220.831 203.039 220.469C204.592 219.726 205.606 219.391 206.499 219.045C206.632 218.818 206.758 218.585 206.88 218.332C207.033 218.008 207.186 217.652 207.34 217.246C207.666 216.354 207.894 215.444 208.057 214.516L208.851 212.032L209.162 211.058L219.118 203.771L224.95 212.089Z" fill="#455A64"/>
<path d="M189.277 165.255C190.908 164.68 192.218 164.703 192.218 164.703C199.564 164.687 226.22 164.638 226.677 164.671C227.33 164.719 230.653 164.594 232.635 168.164C232.652 168.164 232.652 168.18 232.652 168.18C232.945 168.735 233.256 169.421 233.533 170.27C234.055 171.918 234.414 174.138 234.251 176.881C234.153 177.974 234.006 180.357 232.619 182.643C231.182 185.026 229.191 186.626 226.236 187.638C223.723 188.487 221.258 188.095 218.222 187.817H218.189C218.075 187.801 217.846 187.752 217.569 187.703L217.014 187.605C216.703 187.54 216.426 187.491 216.295 187.475H216.263C213.455 186.968 210.958 186.511 208.46 186.038L208.346 186.022C208.145 185.982 207.944 185.943 207.744 185.904C208.164 186.487 208.582 187.074 209 187.665C210.078 189.183 211.122 190.701 212.134 192.203L216.232 197.998C216.852 198.863 216.574 200.071 215.611 200.675L210.567 203.809L205.997 206.845L205.099 207.416C204.201 207.971 203.112 207.71 202.422 206.992C200.597 205.091 197.172 200.624 192.873 195.761C192.703 195.57 192.535 195.38 192.368 195.192C189.951 199.696 186.952 205.573 185.199 208.516C184.856 209.103 184.187 209.413 183.501 209.315L170.541 207.389C169.431 207.226 168.778 206.034 169.251 205.006C171.651 199.733 174.703 191.425 177.298 185.842C177.968 184.406 178.604 182.986 179.192 181.647C179.286 181.435 179.383 181.214 179.482 180.986C178.507 179.648 177.933 178.691 177.431 177.479C176.859 176.108 176.337 174.851 176.37 173.153C176.418 170.639 177.675 167.783 180.189 166.248C181.593 165.383 182.964 165.334 183.78 165.269C184.874 165.236 186.131 165.253 187.535 165.253C188.268 165.247 188.819 165.243 189.277 165.255Z" fill="#334FC0"/>
<path opacity="0.2" d="M189.038 165.25C187.128 165.962 184.836 167.501 183.69 170.824C183.675 170.855 181.144 176.948 179.419 180.899C178.482 179.606 177.922 178.664 177.431 177.479C176.859 176.108 176.337 174.851 176.37 173.153C176.418 170.639 177.675 167.783 180.189 166.248C181.593 165.383 182.964 165.334 183.78 165.269C184.874 165.236 186.131 165.253 187.535 165.253C188.144 165.248 188.629 165.244 189.038 165.25V165.25ZM207.701 185.844C208.135 186.447 208.568 187.054 209 187.665C210.078 189.183 211.122 190.701 212.134 192.203L216.232 197.998C216.852 198.863 216.574 200.071 215.611 200.675L210.567 203.809L205.997 206.845L205.099 207.416C204.201 207.971 203.112 207.71 202.422 206.992C200.597 205.091 197.172 200.624 192.873 195.761C192.681 195.544 192.49 195.329 192.301 195.116C192.898 194.003 193.46 192.974 193.958 192.094C193.958 192.094 194.415 191.278 195.394 189.727C196.194 188.454 197.027 187.344 197.728 186.413C198.104 185.907 198.626 185.205 199.279 184.389C200.014 184.487 200.748 184.585 201.483 184.699C202.495 184.879 203.507 185.075 204.535 185.254C205.599 185.448 206.651 185.641 207.701 185.844Z" fill="#263238"/>
<path d="M196.169 180.994C197.06 182.18 197.335 182.513 197.622 182.793C197.886 183.052 198.148 183.369 199.025 184.537C199.107 184.645 199.26 184.666 199.368 184.585C199.476 184.504 199.498 184.35 199.417 184.242C198.526 183.056 198.25 182.723 197.964 182.443C197.7 182.185 197.437 181.868 196.56 180.7C196.479 180.592 196.325 180.57 196.217 180.651C196.109 180.733 196.087 180.886 196.169 180.994Z" fill="#482D1F"/>
<path d="M213.606 133.091C216.555 132.245 219.591 132.986 221.794 134.816L221.911 134.894C222.249 135.136 222.623 135.538 223.015 136.049C223.296 136.395 223.554 136.765 223.784 137.156C225.544 139.903 227.376 144.126 227.625 145.762C227.625 146.245 227.328 146.659 226.907 146.831L229.414 155.362C229.567 155.867 230.236 157.904 230.399 161.004C230.508 163.071 229.474 164.315 227.298 164.736C224.745 164.71 220.473 164.758 214.481 164.88C208.49 165.002 204.91 158.521 203.743 145.439C202.453 141.16 204.478 136.711 208.33 134.817L207.841 133.398C207.783 133.228 207.873 133.042 208.044 132.983L212.674 131.389C212.845 131.33 213.03 131.421 213.089 131.591L213.606 133.091Z" fill="#C4CAEC"/>
<path d="M211.228 126.285L212.603 131.416L208.03 132.991L207.694 131.654C207.628 131.688 207.561 131.723 207.491 131.758C206.186 132.454 206.262 132.396 206.168 132.439C205.174 132.823 204.296 132.899 204.132 132.899C202.758 132.945 200.906 130.629 199.814 127.116C199.719 126.831 199.672 126.54 199.608 126.251L199.173 123.359C199.072 122.713 199.134 122.05 199.383 121.449C199.487 121.192 199.593 120.951 199.72 120.757C201.157 118.341 204.284 118.423 204.843 118.43C204.908 118.423 204.975 118.433 205.039 118.426C205.672 118.507 206.212 118.335 206.794 118.258C207.054 118.23 207.287 118.419 207.331 118.677L207.849 122.825C207.887 123.083 208.385 122.853 209.343 122.134C210.531 122.759 211.25 123.326 211.501 123.836C211.916 124.662 211.748 125.566 211.305 126.187C211.28 126.221 211.254 126.254 211.228 126.285ZM194.209 157.68C196.498 157.127 199.059 156.509 201.891 155.827L203.434 145.479C203.456 145.245 203.488 144.969 203.539 144.659C203.59 144.894 203.651 145.128 203.721 145.362C205.22 149.48 206.612 152.972 207.9 155.836C211.302 155.343 214.514 154.967 216.834 154.447C216.837 154.225 216.607 151.604 216.143 146.583L226.407 146.94C226.419 146.94 226.432 146.94 226.444 146.94C226.707 148.618 226.798 150.682 226.716 153.13C226.561 157.787 227.067 161.583 224.207 163.617C223.541 164.092 223.35 164.417 221.06 164.594C216.272 164.965 211.922 164.857 207.511 164.664C209.016 164.737 210.512 164.802 212.02 164.841C205.359 165.157 183.344 165.424 181.423 165.36C179.156 165.284 178.01 164.543 177.552 163.452C177.183 162.575 179.416 161.428 179.757 161.251C179.825 161.216 180.545 161.026 181.917 160.683C180.892 160.515 179.987 160.043 180.047 158.896C180.047 158.896 188.737 157.56 191.161 157.219L191.106 157.257C191.683 157.183 192.295 157.174 192.959 157.299C193.327 157.363 193.744 157.49 194.209 157.68ZM205.986 206.739L210.495 203.743L215.539 200.609C215.811 200.439 216.028 200.22 216.186 199.975L219.118 203.771L209.162 211.058L205.986 206.739ZM170.702 207.359L183.429 209.25C183.525 209.264 183.62 209.269 183.714 209.268L182.016 214.088H167.717L170.702 207.359Z" fill="#F2A98A"/>
<path opacity="0.2" d="M207.925 155.892C206.448 156.106 204.935 156.343 203.444 156.623C199.863 157.297 197.122 157.82 195.22 158.193C194.835 157.994 194.476 157.828 194.143 157.696C196.448 157.139 199.031 156.516 201.891 155.827L203.434 145.479C203.456 145.245 203.488 144.969 203.539 144.659C203.59 144.894 203.651 145.128 203.721 145.362C205.229 149.507 206.631 153.017 207.925 155.892ZM212.02 164.841C205.359 165.157 183.344 165.424 181.423 165.36C179.156 165.284 178.01 164.543 177.552 163.452C177.183 162.575 179.416 161.428 179.757 161.251C179.826 161.216 180.555 161.024 181.945 160.675C182.716 160.811 183.565 160.762 184.116 160.701C185.642 160.851 187.153 160.985 188.679 161.136C189.158 161.325 189.638 161.514 190.117 161.704C190.911 163.054 197.06 164.081 199.448 164.257C200.18 164.309 200.62 164.347 201.627 164.379C205.201 164.528 208.577 164.752 212.02 164.841Z" fill="#8C2A00"/>
<path d="M200.275 126.345C200.336 126.618 200.433 127.067 200.291 127.279C200.111 127.594 199.529 126.9 199.588 126.368C199.613 126.136 199.72 126.059 199.849 126.045C200.044 126.025 200.222 126.154 200.275 126.345ZM203.154 125.944C203.232 126.215 203.312 126.666 203.17 126.878C202.99 127.193 202.408 126.499 202.467 125.967C202.492 125.735 202.599 125.658 202.729 125.644C202.924 125.624 203.101 125.753 203.154 125.944Z" fill="#482D1F"/>
<path d="M202.687 129.309C202.797 129.264 203.063 129.138 203.093 128.954C203.09 128.922 203.101 128.871 203.081 128.841C203.006 128.75 202.8 128.821 202.511 128.884C201.997 128.987 201.57 128.983 201.57 128.983C201.57 128.983 201.734 129.294 201.823 129.367C202.013 129.61 202.514 129.376 202.687 129.309Z" fill="#482D1F"/>
<path d="M198.926 125.223C198.76 125.208 198.675 125.02 198.776 124.894C198.909 124.749 199.135 124.561 199.458 124.511C200.121 124.408 200.892 124.721 200.202 125.024C199.764 125.234 199.24 125.24 198.926 125.223ZM203.636 118.383C202.367 117.704 201.477 116.542 201.33 115.147C201.076 112.726 203.159 110.523 205.983 110.226C208.807 109.929 211.303 111.651 211.558 114.072C211.711 115.534 211.012 116.917 209.812 117.848C210.514 117.777 211.072 117.792 211.728 118.035C211.967 118.124 212.532 118.344 213.062 118.863C214.575 120.296 214.519 122.419 214.519 123.043C214.454 124.921 213.59 126.226 213.247 126.705C212.447 127.84 211.709 128.452 211.033 128.54C210.642 127.974 210.333 127.435 210.108 126.921C210.391 126.794 210.788 126.559 211.085 126.128C211.512 125.509 211.682 124.621 211.27 123.827C210.894 123.063 210.018 122.531 209.245 122.678C208.81 122.756 208.495 123.036 208.45 123.073C208.06 123.439 207.824 123.908 207.742 124.089C207.743 124.065 207.744 124.041 207.745 124.017C206.967 123.804 205.683 123.299 204.56 122.136C204.174 121.75 203.868 121.339 203.633 120.97C203.004 121.233 201.969 121.539 200.728 121.439C200.287 121.405 199.895 121.222 199.544 121.126C199.542 121.123 199.541 121.122 199.541 121.122C199.52 121.075 199.724 120.79 199.72 120.757C200.683 119.098 202.482 118.555 203.636 118.383ZM202.075 124.892C201.91 124.877 201.824 124.689 201.942 124.562C202.075 124.416 202.301 124.228 202.64 124.176C203.302 124.074 204.076 124.403 203.384 124.689C202.93 124.901 202.405 124.907 202.075 124.892Z" fill="#482D1F"/>
<path d="M207.937 132.63L209.364 130.731L207.692 131.651L207.937 132.63Z" fill="#482D1F"/>
<path d="M216.758 154.7C216.633 154.649 216.573 154.506 216.624 154.381C216.675 154.256 216.818 154.196 216.943 154.247L219.146 155.145C219.272 155.196 219.332 155.338 219.281 155.464C219.23 155.589 219.087 155.649 218.962 155.598L216.758 154.7ZM216.323 146.291C216.397 146.404 216.366 146.556 216.253 146.63C216.141 146.705 215.989 146.674 215.914 146.561C214.61 144.588 213.947 142.302 213.996 139.94C213.999 139.805 214.111 139.698 214.246 139.701C214.382 139.704 214.489 139.816 214.486 139.951C214.438 142.213 215.073 144.401 216.323 146.291Z" fill="#455A64"/>
<path d="M201.133 126.392L201.132 126.368L201.132 126.38L201.133 126.392ZM201.12 128.126L201.12 128.144C201.139 128.321 201.278 128.473 201.457 128.484C201.49 128.484 201.508 128.483 201.527 128.482C201.7 128.475 201.823 128.464 202.265 128.418C202.355 128.408 202.42 128.328 202.411 128.238C202.401 128.149 202.321 128.084 202.231 128.093C201.797 128.139 201.677 128.15 201.514 128.156C201.497 128.157 201.48 128.157 201.463 128.158C201.466 128.157 201.451 128.14 201.446 128.116L201.458 126.371L201.457 126.347L201.324 125.393C201.311 125.303 201.229 125.241 201.139 125.253C201.05 125.266 200.988 125.348 201 125.438L201.132 126.38L201.12 128.126Z" fill="#482D1F"/>
<path d="M176.458 162.882C176.62 163.169 176.929 163.363 177.282 163.363H200.739C201.261 163.363 201.669 162.939 201.669 162.417C201.669 161.894 201.245 161.47 200.739 161.47H177.923L169.969 140.07C169.79 139.58 169.251 139.335 168.761 139.515C168.272 139.694 168.027 140.233 168.206 140.723L176.384 162.727C176.404 162.782 176.429 162.833 176.458 162.882Z" fill="#474961"/>
<path d="M231.705 163.288H67.1636C66.5326 163.288 66.021 163.8 66.021 164.431C66.021 165.062 66.5326 165.574 67.1636 165.574H231.705C232.336 165.574 232.847 165.062 232.847 164.431C232.847 163.8 232.336 163.288 231.705 163.288Z" fill="#D8DEED"/>
<path d="M147.965 158.249C143.796 157.858 140.867 151.903 142.337 146.773C143.157 143.912 145.05 141.57 147.965 139.755V137.66C147.965 136.939 148.55 136.354 149.271 136.354H158.575H160.697L158.873 146.584C160.001 147.733 160.697 149.308 160.697 151.046V163.125H147.965V158.249ZM147.965 155.773V154.963V142.741C146.292 144.07 145.209 145.638 144.691 147.447C144.133 149.392 144.382 151.556 145.279 153.298C145.99 154.679 146.992 155.566 147.965 155.773Z" fill="#E1E5F0"/>
<path d="M162.656 152.025H169.349V159.942C169.349 161.79 167.851 163.288 166.003 163.288C164.154 163.288 162.656 161.79 162.656 159.942V152.025ZM137.192 152.025H143.884V159.942C143.884 161.79 142.386 163.288 140.538 163.288C138.69 163.288 137.192 161.79 137.192 159.942V152.025Z" fill="#F2F6FB"/>
<path d="M162.656 156.432H169.349V159.942C169.349 161.79 167.851 163.288 166.003 163.288C164.154 163.288 162.656 161.79 162.656 159.942V156.432ZM137.192 159.207H143.884V159.942C143.884 161.79 142.386 163.288 140.538 163.288C138.69 163.288 137.192 161.79 137.192 159.942V159.207ZM147.965 151.046H160.697V163.288H147.965V151.046Z" fill="#334FC0"/>
</g>
<defs>
<clipPath id="clip0_214_2843">
<rect width="300" height="300" fill="white"/>
</clipPath>
</defs>
</svg>
