<svg width="300" height="300" viewBox="0 0 300 300" fill="none" xmlns="http://www.w3.org/2000/svg">
<g clip-path="url(#clip0_214_2929)">
<path fill-rule="evenodd" clip-rule="evenodd" d="M175.861 269.967C140.741 270.513 111.949 264.303 82.5422 249.285C51.1658 233.261 12.9863 218.644 2.63125 190.812C-7.68007 163.099 14.5552 135.5 30.5834 109.635C44.8033 86.6893 62.1484 64.9732 89.4492 50.7171C116.474 36.605 149.115 27.1566 181.602 30.7758C212.359 34.2023 237.392 50.8882 257.745 69.4661C275.172 85.374 286.458 99.2822 286.458 132.203C286.458 160.757 300 177.889 300 197.306C300 227.12 290.529 235.31 268.083 246.404C239.182 260.688 210.324 269.432 175.861 269.967Z" fill="#F7F8FC"/>
<path d="M261.766 220.917H245.048C244.656 220.917 244.314 220.634 244.314 220.295V220.068C244.314 219.729 244.64 219.446 245.048 219.446H261.766C262.158 219.446 262.5 219.729 262.5 220.068V220.295C262.5 220.634 262.174 220.917 261.766 220.917ZM220.419 219.446C220.825 219.446 221.153 219.775 221.153 220.181C221.153 220.588 220.825 220.917 220.419 220.917H193.833C193.428 220.917 193.099 220.588 193.099 220.181C193.099 219.775 193.428 219.446 193.833 219.446H220.419Z" fill="#263238"/>
<path d="M220.5 219.45C220.474 219.447 220.448 219.446 220.421 219.446H193.949C193.931 219.356 193.922 219.244 193.925 219.098C193.943 218.984 193.946 218.853 193.98 218.723C194.19 217.942 194.443 217.423 195.186 216.962C195.928 216.501 196.685 216.089 197.475 215.727C200.386 214.355 201.381 214.373 203.295 213.115C204.087 212.589 204.815 211.981 205.496 211.323C205.949 210.884 206.875 210.171 208.274 209.183L220.5 209.466V219.45ZM261.828 219.448C261.808 219.447 261.788 219.446 261.768 219.446H245.105L246.582 210.192L257.543 208.936L261.828 219.448Z" fill="#455A64"/>
<path d="M225.479 119.025C226.037 118.395 226.661 117.812 227.347 117.288C229.34 116.537 233.144 115.744 235.858 116.61C239.033 117.623 240.992 120.394 240.992 120.394C240.992 120.394 241.457 119.909 246.312 133.498C249.549 142.557 252.69 154.833 255.735 170.326C256.026 172.061 257.708 181.845 260.781 199.68C260.784 199.695 260.786 199.71 260.788 199.724C260.917 200.618 260.299 201.447 259.408 201.576L242.407 204.043C241.589 204.161 240.812 203.648 240.598 202.847C238.478 194.901 237.331 190.558 237.158 189.817C236.787 188.338 236.422 186.662 236.044 184.743L233.069 170.331C233.04 170.191 232.983 169.738 232.9 168.971C231.512 163.871 230.325 159.51 229.34 155.888C228.547 158.936 227.69 162.205 226.768 165.693C226.32 185.254 225.985 196.377 225.764 199.063C225.73 199.479 225.621 201.008 225.438 203.652C225.376 204.54 224.617 205.215 223.731 205.172L206.205 204.312C205.37 204.271 204.702 203.605 204.656 202.769C203.881 188.675 204.394 175.417 206.195 162.995C208.99 143.715 213.214 135.836 215.733 128.42C215.761 128.332 217.76 125.16 221.729 118.905C223.109 118.913 224.359 118.953 225.479 119.025Z" fill="#334FC0"/>
<path opacity="0.2" d="M223.045 123.221C222.121 125.737 221.963 128.531 222.697 131.234C223.725 135.019 224.753 138.805 225.782 142.59C225.782 142.59 226.975 146.976 229.362 155.747C228.564 158.835 227.699 162.151 226.768 165.693C226.308 185.192 225.968 196.285 225.746 198.971C225.595 200.799 225.483 202.353 225.408 203.631C225.355 204.527 224.592 205.213 223.697 205.167L206.155 204.279C205.321 204.237 204.653 203.569 204.609 202.733C203.865 188.662 204.394 175.416 206.195 162.995C208.99 143.715 213.164 135.801 215.683 128.385C215.706 128.314 219.306 125.581 223.045 123.221Z" fill="#263238"/>
<path d="M221.619 92.332C221.971 92.202 222.321 92.0919 222.662 91.9986L222.594 90.7728C222.584 90.5944 222.719 90.4411 222.897 90.4287L230.549 89.8948C230.729 89.8825 230.884 90.0182 230.897 90.1982L230.946 90.8905C235.12 90.3794 237.556 90.2627 238.256 90.5403C244.743 93.1158 245.815 104.297 245.781 107.699C245.772 108.611 244.317 109.43 241.417 110.155C241.733 113.247 241.919 114.993 242.027 115.901C242.027 115.901 242.025 116.062 242.061 116.299C242.153 116.997 220.115 123.834 220.115 123.834C220.099 123.819 220.083 123.82 220.083 123.82C220.083 123.82 219.77 123.767 219.383 123.576C219.191 123.497 218.997 123.385 218.798 123.226C217.324 122.07 217.086 119.186 217.055 118.482C217.036 118.259 217.02 118.084 217.02 118.084C216.96 117.034 216.812 114.908 216.519 110.943C215.474 111.395 214.335 111.854 213.101 112.321L213.147 96.0087C213.15 94.8424 213.841 93.7881 214.907 93.3211C217.281 92.2815 219.519 91.9518 221.619 92.332Z" fill="#C4CAEC"/>
<path d="M220.458 209.538L217.554 209.472L208.273 209.183L208.749 204.394L220.58 204.97L220.458 209.538ZM245.056 203.624L256.594 201.954L257.543 208.936L246.582 210.192L245.056 203.624ZM230.311 83.8891V89.931L223.994 90.3631L224.082 89.0458C223.18 89.2763 223.232 89.2493 223.145 89.2683C222.096 89.4196 221.223 89.2958 221.064 89.2466C220.485 89.1372 219.92 88.5891 219.456 87.7091C218.825 86.5346 218.341 84.7559 218.201 82.6707C218.167 82.3737 218.181 82.0818 218.195 81.7898L218.436 78.8967C218.488 78.25 218.702 77.6202 219.088 77.0736C219.245 76.8292 219.397 76.6331 219.578 76.4727C221.529 74.4594 224.577 75.1039 225.12 75.2421C225.183 75.265 225.248 75.2718 225.311 75.2947C225.894 75.5187 226.457 75.6264 227.023 75.7018C227.282 75.7289 227.469 75.9767 227.442 76.2347L226.989 80.361C227.146 80.2795 229.605 79.2974 230.291 79.7929C230.857 80.2076 231.097 82.798 230.311 83.8891ZM217.151 120.379L217.318 120.232C217.394 120.232 217.437 120.236 217.451 120.244L230.974 114.127L231.253 111.662C237.24 111.013 241.38 110.247 243.675 109.364C243.715 115.703 243.249 119.35 242.275 120.304C240.069 122.468 228.58 127.814 217.078 129.257C214.507 130.399 210.255 131.23 204.321 131.752C202.628 130.667 201.719 128.772 201.593 126.066L205.713 124.646C205.547 124.589 205.461 124.546 205.461 124.546C204.569 122.505 215.865 120.699 217.306 120.309L217.151 120.379ZM213.777 111.928C208.223 114.489 199.282 116.437 196.892 113.646C193.763 109.992 193.351 100.042 195.656 83.7957C190.624 82.6787 187.138 81.4646 185.199 80.1532C184.674 79.7983 184.366 79.2013 184.381 78.5685C184.405 77.5408 185.259 76.7272 186.288 76.7513C191.216 76.8664 194.339 76.857 195.656 76.7228C195.689 76.7195 195.722 76.7163 195.755 76.7134C199.752 76.3616 203.278 79.3117 203.63 83.3026L205.141 100.421L213.143 96.5637L213.135 112.173C213.352 112.091 213.566 112.009 213.777 111.928Z" fill="#DB9E75"/>
<path opacity="0.2" d="M221.495 92.3012C220.031 92.8581 218.537 93.763 217.538 95.2331C217.252 95.6594 216.892 96.3009 216.647 97.2052C216.612 97.3367 216.576 97.4522 216.542 97.5837C216.458 97.8638 216.279 98.4574 216.134 99.0961C215.982 99.8158 215.915 101.17 215.941 103.046L215.945 103.094L215.983 103.877C216.197 106.714 216.37 109.039 216.51 110.939C215.472 111.388 214.34 111.845 213.114 112.309L213.148 96.0026C213.151 94.8392 213.837 93.7864 214.899 93.3169C217.228 92.2878 219.427 91.9492 221.495 92.3012V92.3012Z" fill="#263238"/>
<path d="M224.084 89.0841L226.587 88.4586L223.994 90.419L224.084 89.0841Z" fill="#482D1F"/>
<path d="M228.928 84.5629L228.943 84.5613C229.165 84.4864 229.812 84.2597 230.243 83.585C230.675 82.9104 230.825 81.9606 230.368 81.1601C229.925 80.3774 228.995 79.8707 228.189 80.048C227.736 80.1477 227.408 80.457 227.372 80.4859C226.876 80.9903 226.717 81.5627 226.717 81.5627L226.635 81.9558C226.545 81.8224 226.463 81.6903 226.389 81.561C225.366 80.2265 224.344 78.8757 223.321 77.525C222.654 77.635 221.597 77.7042 220.424 77.3194C220.012 77.178 219.663 76.9123 219.354 76.7327C219.447 76.6279 219.538 76.5393 219.615 76.4328C221.047 74.8321 223.682 74.8794 224.869 75.1348C225.013 75.1662 225.525 75.2854 226.266 75.4122C226.669 75.4871 226.993 75.5211 227.186 75.5577C229.593 75.9083 230.58 75.7173 231.729 76.4922C231.944 76.6293 232.432 76.9751 232.827 77.5891C233.939 79.3257 233.413 81.3649 233.267 81.9713C232.781 83.7856 231.641 84.7007 231.267 85.136C230.517 86.0228 229.544 85.136 229.544 85.136C229.544 85.136 229.294 84.9155 228.928 84.5629Z" fill="#482D1F"/>
<path d="M207.943 126.708C208.074 126.675 208.206 126.755 208.239 126.887C208.271 127.018 208.191 127.151 208.06 127.184C207.237 127.388 206.592 127.526 205.152 127.817C203.719 128.108 203.079 128.245 202.265 128.447C202.133 128.479 202.001 128.399 201.968 128.268C201.936 128.136 202.016 128.003 202.147 127.971C202.97 127.767 203.615 127.629 205.055 127.337C206.488 127.046 207.128 126.909 207.943 126.708ZM209.824 129.146C209.957 129.121 210.084 129.209 210.109 129.343C210.133 129.476 210.045 129.604 209.912 129.628C209.002 129.794 208.299 129.939 206.737 130.275C205.17 130.611 204.464 130.756 203.548 130.924C203.415 130.948 203.287 130.86 203.263 130.727C203.239 130.594 203.327 130.466 203.46 130.442C204.37 130.275 205.073 130.13 206.635 129.795C208.202 129.459 208.907 129.313 209.824 129.146Z" fill="#482D1F"/>
<path d="M219.173 81.9227C219.173 82.2036 219.187 82.6853 219.035 82.8898C218.799 83.1953 218.313 82.3828 218.46 81.8304C218.548 81.6145 218.661 81.5353 218.793 81.5419C218.991 81.5437 219.158 81.7219 219.173 81.9227ZM222.68 82.1075C222.696 82.3913 222.71 82.873 222.542 83.0747C222.306 83.3802 221.82 82.5677 221.967 82.0152C222.055 81.7994 222.169 81.7202 222.3 81.7267C222.498 81.7286 222.666 81.9067 222.68 82.1075Z" fill="#482D1F"/>
<path d="M220.612 82.2501L220.313 83.8498C220.312 83.8552 220.332 83.8835 220.34 83.8849C220.428 83.9003 220.519 83.9104 220.661 83.9215C220.689 83.9237 220.718 83.9258 220.759 83.9289C220.812 83.9327 220.841 83.9348 220.868 83.9369C220.963 83.9439 221.041 83.9501 221.124 83.9574C221.214 83.9653 221.28 84.0446 221.272 84.1345C221.265 84.2244 221.185 84.2909 221.096 84.2831C221.014 84.2759 220.937 84.2698 220.844 84.2629C220.817 84.2609 220.788 84.2588 220.736 84.2549C220.693 84.2518 220.664 84.2496 220.636 84.2474C220.484 84.2356 220.384 84.2245 220.283 84.2069C220.098 84.1743 219.959 83.9764 219.992 83.7912L220.292 82.1898C220.308 82.1011 220.394 82.0427 220.482 82.0593C220.571 82.0759 220.629 82.1613 220.612 82.2501Z" fill="#482D1F"/>
<path d="M225.612 82.1404C225.626 82.3266 225.617 82.5175 225.583 82.7098C225.36 83.9673 224.159 84.8065 222.9 84.5849C221.841 84.3986 221.077 83.5211 220.993 82.4988L220.459 82.4607C220.234 83.714 219.035 84.5494 217.778 84.3283C216.518 84.1067 215.677 82.9077 215.899 81.6499C216.121 80.3925 217.322 79.5533 218.582 79.7749C219.679 79.9679 220.459 80.9026 220.495 81.9717L221.005 82.0081C221.01 81.9743 221.015 81.9405 221.021 81.9066C221.243 80.6491 222.444 79.8099 223.704 80.0315C224.6 80.1891 225.284 80.8414 225.525 81.6576L226.618 81.501C226.752 81.4819 226.876 81.575 226.895 81.7091C226.914 81.8431 226.821 81.9673 226.688 81.9864L225.612 82.1404ZM220.005 82.1329C220.046 81.2321 219.412 80.4187 218.497 80.2578C217.503 80.083 216.556 80.7448 216.381 81.7355C216.206 82.7258 216.869 83.6705 217.862 83.8453C218.856 84.0202 219.804 83.3583 219.979 82.3677C219.987 82.3219 219.993 82.2761 219.998 82.2306C219.996 82.2147 219.995 82.1984 219.996 82.1819C219.998 82.165 220.001 82.1486 220.005 82.1329ZM225.101 82.6243C225.276 81.634 224.613 80.6892 223.619 80.5144C222.625 80.3396 221.678 81.0015 221.503 81.9921C221.328 82.9824 221.991 83.9272 222.984 84.102C223.978 84.2768 224.926 83.6149 225.101 82.6243Z" fill="#482D1F"/>
<path d="M221.242 85.2505C221.362 85.2222 221.658 85.142 221.703 84.9846C221.708 84.9525 221.733 84.9073 221.703 84.8856C221.637 84.7913 221.43 84.8376 221.127 84.8668C220.591 84.9046 220.167 84.8632 220.167 84.8632C220.167 84.8632 220.283 85.1479 220.368 85.2289C220.529 85.4391 221.067 85.3023 221.242 85.2505Z" fill="#482D1F"/>
<path d="M231.599 111.641C231.565 110.201 231.538 108.942 231.519 107.864C231.5 106.785 231.474 105.013 231.439 102.548C231.437 102.412 231.326 102.304 231.191 102.306C231.056 102.308 230.948 102.419 230.95 102.554C230.984 105.02 231.011 106.793 231.03 107.872C231.049 108.952 231.076 110.212 231.11 111.652C231.113 111.788 231.226 111.895 231.361 111.892C231.496 111.888 231.603 111.776 231.599 111.641Z" fill="#233DAA"/>
<path d="M126.835 224.219L126.836 224.317C126.826 224.693 126.504 224.993 126.108 225L98.6791 224.957C98.2831 224.947 97.9681 224.642 97.9615 224.266L97.9598 224.168C97.9705 223.792 98.2922 223.492 98.6879 223.485L126.1 223.529C126.513 223.522 126.828 223.827 126.835 224.219ZM53.8504 224.837L53.8104 224.845L37.7645 212.278C37.4709 212.049 37.4057 211.608 37.6503 211.33L37.6992 211.248C37.846 211.068 38.0744 210.97 38.3027 210.987C38.4332 210.987 38.5474 211.036 38.6616 211.117L54.6327 223.49L63.3728 223.509C63.7479 223.502 64.0468 223.808 64.0697 224.183L64.0714 224.281C64.0616 224.658 63.7569 224.957 63.3818 224.964L53.822 224.935C53.8315 224.902 53.8409 224.87 53.8504 224.837Z" fill="#263238"/>
<path d="M126.622 223.726C126.49 223.601 126.307 223.525 126.1 223.529L98.6879 223.485C98.6443 223.486 98.6016 223.49 98.5602 223.498L99.6605 213.331L112.188 213.295C113.695 214.282 114.675 214.995 115.129 215.434C115.809 216.093 116.538 216.701 117.33 217.227C119.244 218.485 120.239 218.467 123.15 219.838C123.939 220.201 124.697 220.612 125.439 221.073C126.181 221.535 126.435 222.053 126.644 222.834C126.679 222.964 126.681 223.095 126.7 223.209C126.704 223.467 126.673 223.621 126.622 223.726ZM38.6604 211.116L44.356 203.294L54.1749 210.764L54.4685 211.745C55.6102 215.755 56.23 217.868 56.3279 218.086C56.4456 218.341 56.5676 218.577 56.6959 218.807C57.5827 219.168 58.5897 219.522 60.1282 220.293C60.9111 220.669 61.6614 221.094 62.3953 221.568C63.1293 222.042 63.3739 222.565 63.5697 223.349C63.5861 223.415 63.5943 223.481 63.6004 223.545C63.5293 223.52 63.4528 223.508 63.3728 223.509L54.6327 223.49L38.6616 211.117C38.6612 211.117 38.6608 211.117 38.6604 211.116Z" fill="#455A64"/>
<path d="M86.7196 132.118C86.7683 132.124 86.8171 132.132 86.8659 132.141C87.3379 132.231 87.7786 132.442 88.1449 132.753C102.262 144.758 110.612 154.688 113.194 162.542C114.658 166.996 115.951 178.457 117.071 196.923C117.279 200.347 114.678 203.292 111.261 203.5C111.189 203.504 111.117 203.508 111.045 203.509L100.765 203.776C97.3955 203.863 94.5741 201.236 94.4137 197.862L93.0432 169.034C90.7899 166.647 88.8265 164.544 87.1529 162.726C86.7514 164.92 86.1318 167.236 85.1303 170.335C83.4616 175.498 76.6631 185.704 64.7348 200.952L64.2764 201.564C62.3335 204.158 58.726 204.817 55.9946 203.077L48.3235 198.191C45.4347 196.351 44.5814 192.512 46.4176 189.617C46.494 189.497 46.5745 189.379 46.6589 189.264L63.7427 166.034C64.1499 156.825 64.956 148.767 66.1612 141.863C67.9689 131.506 81.5008 131.73 86.6223 131.9C86.6552 131.971 86.6876 132.044 86.7196 132.118Z" fill="#334FC0"/>
<path opacity="0.2" d="M86.7092 132.115C86.7614 132.122 86.8137 132.13 86.8661 132.14C87.3381 132.23 87.7789 132.441 88.1451 132.752C102.263 144.757 110.612 154.687 113.194 162.541C114.658 166.995 115.951 178.456 117.072 196.922C117.279 200.346 114.678 203.291 111.261 203.499C111.189 203.503 111.117 203.507 111.045 203.508L100.765 203.775C97.3957 203.862 94.5743 201.235 94.4139 197.862L93.0434 169.033C90.7915 166.648 88.8291 164.546 87.1562 162.728C87.8957 158.676 87.8927 155.036 88.1797 147.642C88.4684 140.204 87.9782 135.029 86.7092 132.115Z" fill="#263238"/>
<path d="M96.4332 93.7562L198.288 86.6188L202.873 152.328C202.998 154.129 201.643 155.691 199.846 155.817L104.5 162.498C102.703 162.624 101.144 161.266 101.018 159.465L96.4332 93.7562Z" fill="#ECEFF1"/>
<path d="M101.891 100.608L104.944 100.394C105.123 100.381 105.279 100.517 105.292 100.697L105.376 101.903C105.388 102.083 105.253 102.239 105.073 102.252L102.02 102.466C101.841 102.478 101.685 102.342 101.672 102.162L101.588 100.957C101.575 100.777 101.711 100.62 101.891 100.608ZM180.596 95.0926L193.835 94.1649C194.014 94.1523 194.17 94.2881 194.183 94.4682L194.267 95.6738C194.28 95.8539 194.144 96.0101 193.964 96.0227L180.726 96.9503C180.546 96.9629 180.39 96.8271 180.378 96.647L180.294 95.4415C180.281 95.2614 180.417 95.1052 180.596 95.0926ZM155.596 96.8445L168.834 95.9168C169.014 95.9042 169.17 96.04 169.182 96.2201L169.266 97.4257C169.279 97.6058 169.143 97.762 168.964 97.7746L155.725 98.7022C155.546 98.7148 155.39 98.579 155.377 98.3989L155.293 97.1934C155.28 97.0133 155.416 96.8571 155.596 96.8445ZM171.337 95.7414L178.094 95.2679C178.273 95.2553 178.429 95.3911 178.442 95.5712L178.526 96.7768C178.538 96.9569 178.403 97.1131 178.223 97.1257L171.466 97.5992C171.287 97.6118 171.131 97.476 171.118 97.2959L171.034 96.0903C171.022 95.9102 171.157 95.754 171.337 95.7414Z" fill="#90A4AE"/>
<path d="M133.085 105.977L110.141 108.138C109.526 108.196 109.053 108.718 109.083 109.304L111.336 152.801C111.366 153.387 111.889 153.815 112.503 153.757L135.448 151.595C136.062 151.538 136.535 151.016 136.505 150.43L134.252 106.933C134.222 106.347 133.7 105.919 133.085 105.977Z" fill="#CFD8DC"/>
<path d="M124.425 151.422C125.389 151.331 126.133 150.522 126.087 149.616C126.04 148.709 125.22 148.049 124.255 148.14C123.291 148.231 122.547 149.04 122.594 149.946C122.641 150.852 123.46 151.513 124.425 151.422Z" fill="#ECEFF1"/>
<path d="M122.798 109.393L120.275 109.622C120.02 109.645 119.824 109.854 119.837 110.088C119.849 110.322 120.066 110.492 120.321 110.469L122.844 110.24C123.099 110.217 123.295 110.009 123.282 109.775C123.27 109.541 123.053 109.37 122.798 109.393Z" fill="#ECEFF1"/>
<path d="M132.496 111.214L111.261 113.218L113.071 148.213L134.305 146.21L132.496 111.214Z" fill="#ECEFF1"/>
<path d="M123.441 132.946L118.577 133.403C118.457 133.414 118.409 133.341 118.469 133.24L121.544 128.087C121.604 127.985 121.712 127.973 121.786 128.061L124.355 131.158L125.288 129.585C125.348 129.484 125.458 129.469 125.536 129.555L128.055 132.345C128.131 132.43 128.097 132.509 127.977 132.521L125.873 132.738L123.441 132.946ZM125.337 128.458C124.91 128.499 124.546 128.214 124.526 127.823C124.506 127.432 124.836 127.082 125.264 127.042C125.692 127.002 126.055 127.286 126.075 127.677C126.096 128.068 125.765 128.418 125.337 128.458Z" fill="#CFD8DC"/>
<path d="M144.026 117.724L185.969 114.785C186.149 114.772 186.304 114.908 186.317 115.088L186.531 118.152C186.543 118.332 186.408 118.488 186.228 118.501L144.285 121.44C144.106 121.452 143.95 121.316 143.937 121.136L143.723 118.073C143.711 117.893 143.846 117.737 144.026 117.724ZM144.447 123.762L170.186 121.958C170.366 121.946 170.522 122.081 170.534 122.262L170.748 125.325C170.761 125.505 170.625 125.661 170.445 125.674L144.707 127.477C144.527 127.49 144.371 127.354 144.358 127.174L144.145 124.111C144.132 123.931 144.268 123.774 144.447 123.762ZM144.869 129.8L180.33 127.315C180.51 127.302 180.665 127.438 180.678 127.618L180.892 130.681C180.904 130.862 180.769 131.018 180.589 131.03L145.128 133.515C144.948 133.528 144.792 133.392 144.78 133.212L144.566 130.149C144.553 129.968 144.689 129.812 144.869 129.8Z" fill="#CFD8DC"/>
<path d="M178.14 109.266L143.605 111.686C143.425 111.699 143.289 111.855 143.302 112.035L143.516 115.099C143.528 115.279 143.684 115.414 143.864 115.402L178.399 112.982C178.579 112.969 178.714 112.813 178.702 112.633L178.488 109.57C178.475 109.389 178.32 109.254 178.14 109.266Z" fill="#CFD8DC"/>
<path d="M148.304 139.36L165.292 138.17C166.322 138.097 166.734 138.183 167.147 138.368C167.559 138.553 167.893 138.844 168.134 139.228C168.374 139.611 168.516 140.009 168.588 141.04L168.676 142.298C168.748 143.33 168.663 143.743 168.478 144.156C168.293 144.57 168.003 144.905 167.62 145.146C167.237 145.387 166.841 145.528 165.811 145.601L148.822 146.791C147.793 146.863 147.381 146.778 146.968 146.593C146.556 146.407 146.222 146.117 145.981 145.733C145.741 145.349 145.599 144.952 145.527 143.92L145.439 142.662C145.367 141.631 145.452 141.218 145.637 140.804C145.822 140.391 146.112 140.056 146.495 139.815C146.878 139.574 147.274 139.432 148.304 139.36Z" fill="#334FC0"/>
<path d="M96.126 89.354C96.0003 87.5529 97.3554 85.9907 99.1541 85.8647L194.497 79.1836C196.295 79.0576 197.855 80.4162 197.98 82.2166L198.31 86.9449L96.4559 94.0823L96.126 89.354Z" fill="#E1E5F0"/>
<path d="M101.596 91.5921C102.54 91.526 103.251 90.7059 103.185 89.7604C103.119 88.8148 102.301 88.1019 101.357 88.1681C100.414 88.2342 99.7022 89.0543 99.7681 89.9998C99.8341 90.9453 100.652 91.6582 101.596 91.5921Z" fill="#FF5645"/>
<path d="M107.291 91.193C108.234 91.1269 108.946 90.3068 108.88 89.3613C108.814 88.4157 107.995 87.7028 107.052 87.769C106.108 87.8351 105.397 88.6552 105.463 89.6007C105.529 90.5462 106.347 91.2591 107.291 91.193Z" fill="#FFCB3D"/>
<path d="M113.148 90.7825C114.092 90.7164 114.803 89.8963 114.737 88.9508C114.671 88.0053 113.853 87.2924 112.909 87.3585C111.966 87.4246 111.254 88.2447 111.32 89.1902C111.386 90.1358 112.205 90.8487 113.148 90.7825Z" fill="#3ABF7C"/>
<path d="M65.8662 119.01L64.0621 119.344C63.9946 119.356 63.926 119.362 63.8574 119.36C63.3171 119.345 62.8912 118.894 62.906 118.353C63.0503 113.085 63.5802 109.648 64.4956 108.042C64.7636 107.572 65.1088 107.193 65.5081 106.9C67.1407 105.347 69.9186 104.472 73.2315 103.907L74.1471 103.745C75.5631 103.505 76.9272 103.523 78.1937 103.751C79.774 103.811 81.7193 104.179 83.4884 105.348C83.769 105.53 84.368 105.922 85.0284 106.569C85.0284 106.569 86.3245 107.817 88.0161 112.066C88.2122 112.57 88.4971 113.407 88.8709 114.576C89.0082 115.006 88.7718 115.466 88.3429 115.604C88.3136 115.613 88.2838 115.621 88.2536 115.627L86.2025 116.037L86.7429 122.714C86.758 122.894 86.7702 123.058 86.8014 123.235C86.9326 124.075 86.9372 125.136 86.3966 126.111C85.6216 127.543 84.3912 129.586 77.9548 130.657C71.9682 131.648 70.2271 130.13 69.0481 129.077C68.2044 128.33 67.8503 127.164 67.6926 126.362C67.6614 126.185 67.6171 126.027 67.5698 125.853L65.8662 119.01Z" fill="#C4CAEC"/>
<path opacity="0.176986" d="M78.1652 103.748C81.341 104.313 83.9064 106.198 85.1429 108.642C85.5472 109.434 85.754 110.327 85.8106 111.213L86.2009 116.037L88.2454 115.638C88.2756 115.632 88.3056 115.624 88.335 115.615C88.7645 115.479 89.0028 115.02 88.8672 114.59C88.496 113.411 88.2123 112.57 88.016 112.066C86.3244 107.817 85.0283 106.569 85.0283 106.569C84.3679 105.923 83.769 105.53 83.4884 105.348C81.6913 104.16 79.7492 103.8 78.1652 103.748Z" fill="#444444"/>
<path d="M100.256 203.787C100.438 203.798 100.622 203.802 100.807 203.797L111.088 203.531C111.16 203.529 111.232 203.526 111.304 203.521C111.913 203.484 112.496 203.36 113.042 203.162L112.005 213.379H99.6605L100.256 203.787ZM58.0677 203.932L54.1749 210.764L44.356 203.294L47.8593 197.853C48.0205 197.98 48.1894 198.099 48.366 198.212L56.0371 203.098C56.6768 203.506 57.3645 203.782 58.0677 203.932ZM94.325 128.015L96.6952 128.279C97.7051 127.746 106.904 122.963 107.503 125.283C107.503 125.283 107.464 125.367 107.37 125.512L111.653 124.043C114.015 127.356 112.016 132.535 111.984 132.553C106.519 134.956 102.416 136.232 99.6749 136.383C99.3584 136.4 99.0756 136.38 98.8263 136.322C98.8221 136.352 98.8178 136.383 98.8135 136.413C90.1667 137.452 81.1017 137.068 71.6185 135.259C69.3369 134.823 66.8128 129.502 64.0463 119.294C64.0731 119.291 64.0997 119.287 64.1262 119.282L74.7711 117.31C74.8663 117.293 74.9557 117.262 75.0378 117.22L77.6604 126.162L85.7208 127.058C85.9849 126.702 86.1769 126.358 86.347 126.044C86.8875 125.069 86.883 124.008 86.7517 123.168C86.7206 122.991 86.7083 122.827 86.6932 122.647L86.1397 115.807L88.196 115.444C88.2395 115.436 88.2823 115.425 88.3239 115.41C88.38 115.391 88.4326 115.366 88.4813 115.336L90.6808 119.89C92.5065 118.877 97.825 112.256 97.825 112.256C97.825 112.256 98.1076 116.014 98.6729 123.532L94.325 128.015ZM76.9298 101.95L77.1166 103.503C80.4264 103.639 81.9308 104.928 82.4377 105.491C82.4377 105.491 78.9455 106.13 71.9613 107.408C70.0778 105.894 67.2744 105.551 65.5328 106.868C66.4998 105.929 68.17 105.121 70.5435 104.444C71.1644 104.267 71.7555 104.118 72.3182 103.995L71.7099 98.199C71.6745 98.179 71.6391 98.1577 71.6038 98.1352C70.9677 97.7137 70.4876 96.9289 70.579 96.0075C70.6557 95.1577 71.2907 93.9885 72.0639 93.8486C72.4977 93.766 73.7087 94.1349 73.6232 93.7518C73.5661 93.4963 73.2322 92.1421 72.6213 89.6889C72.5695 89.4321 72.7194 89.1718 72.9715 89.1042C73.5429 88.9677 74.1081 88.9343 74.6687 88.6315C74.7318 88.6146 74.7906 88.5819 74.8536 88.5649C75.3724 88.358 78.2602 87.1595 80.4655 88.9025C80.6537 89.0381 80.8388 89.2253 81.0282 89.4283C81.4753 89.9005 81.7702 90.4981 81.9075 91.1381L82.5371 93.998C82.5816 94.2906 82.6418 94.579 82.6548 94.8801C82.8945 98.5554 81.9965 101.386 80.6984 101.836C80.5451 101.894 79.6986 102.138 78.6343 102.136C78.5313 102.13 78.6227 102.156 77.1558 101.975C77.0784 101.966 77.003 101.958 76.9298 101.95Z" fill="#F2A98A"/>
<path opacity="0.2" d="M94.2006 128.104L98.6728 123.555C98.1076 116.022 97.825 112.256 97.825 112.256C97.825 112.256 92.5065 118.877 90.6808 119.89L88.5245 115.484C88.4661 115.524 88.4014 115.557 88.3312 115.582C88.2895 115.596 88.2467 115.608 88.2033 115.615L86.1469 115.979L86.7005 122.818C86.7156 122.998 86.7278 123.162 86.759 123.339C86.8902 124.179 86.8948 125.24 86.3542 126.216C86.1941 126.511 86.0147 126.833 85.7739 127.167L94.2006 128.104Z" fill="#8C2A00"/>
<path d="M106.783 128.151C107.589 127.919 108.213 127.718 109.6 127.253C110.994 126.786 111.622 126.583 112.437 126.348C112.567 126.311 112.703 126.386 112.74 126.516C112.777 126.646 112.702 126.782 112.572 126.82C111.766 127.052 111.142 127.253 109.755 127.718C108.361 128.185 107.733 128.388 106.918 128.622C106.788 128.66 106.652 128.585 106.615 128.455C106.578 128.324 106.653 128.189 106.783 128.151ZM106.356 131.516C107.234 131.203 107.919 130.977 109.445 130.485C110.967 129.994 111.648 129.769 112.52 129.458C112.647 129.412 112.787 129.479 112.832 129.607C112.878 129.734 112.811 129.874 112.684 129.92C111.806 130.233 111.121 130.459 109.595 130.951C108.073 131.442 107.392 131.668 106.52 131.978C106.393 132.024 106.253 131.957 106.207 131.83C106.162 131.702 106.229 131.562 106.356 131.516Z" fill="#482D1F"/>
<path d="M66.9291 93.918C66.916 93.2867 67.0176 92.5975 67.3413 91.9189C67.6504 91.2437 68.0986 90.8357 68.2896 90.6659C69.3423 89.7403 70.3562 89.8064 72.7382 89.1161C73.2382 88.9649 73.9744 88.7503 74.8314 88.4187C74.8986 88.4175 74.9574 88.3848 75.0204 88.3679C75.5392 88.1609 78.3843 87.2447 80.4739 88.9341C80.4824 88.9657 80.7978 89.1348 80.7947 89.1864C80.7947 89.1864 78.6212 93.8817 74.0788 94.8391C73.9572 94.7078 73.6351 94.3969 73.152 94.1998C73.0963 94.181 72.7021 94.033 72.2683 94.1156C71.4952 94.2555 70.8679 95.067 70.7911 95.9167C70.6913 96.8065 71.1671 97.5756 71.7875 98.0013C72.4079 98.4269 73.0761 98.3998 73.2936 98.3922L73.5487 98.3184C73.7691 98.7413 73.9226 99.1969 73.7446 99.5445C73.4008 100.216 72.7608 100.604 71.8246 100.707C70.9587 101.806 69.5427 102.572 67.8999 102.687C65.0693 102.886 62.6371 101.075 62.4674 98.644C62.305 96.3158 64.2761 94.2622 66.9291 93.918ZM82.7468 93.1339C82.4601 93.2617 81.9686 93.4444 81.4853 93.405C80.733 93.3701 81.3406 92.8008 81.995 92.6589C82.3143 92.5901 82.5928 92.6846 82.7684 92.7728C82.9082 92.8537 82.8959 93.0601 82.7468 93.1339ZM79.6904 93.9546C79.3879 94.0866 78.8965 94.2693 78.3974 94.2341C77.6493 94.215 78.2527 93.63 78.9071 93.4881C79.2421 93.415 79.5207 93.5095 79.6962 93.5977C79.8518 93.6744 79.8395 93.8807 79.6904 93.9546Z" fill="#482D1F"/>
<path d="M81.8903 94.6668C81.8711 94.4689 81.9907 94.2845 82.1797 94.2337C82.3058 94.1999 82.4329 94.2334 82.5393 94.4417C82.7847 94.9173 82.4905 95.7747 82.2097 95.5455C82.0014 95.3984 81.9305 94.9436 81.8903 94.6668ZM79.0606 95.3251C79.0415 95.1271 79.161 94.9427 79.3501 94.892C79.4761 94.8581 79.6033 94.8917 79.7096 95.1C79.955 95.5756 79.6608 96.433 79.38 96.2038C79.1718 96.0567 79.0851 95.6061 79.0606 95.3251Z" fill="#482D1F"/>
<path d="M80.701 98.3028C80.5823 98.3008 80.2891 98.278 80.1954 98.117C80.187 98.0855 80.1585 98.0423 80.1659 98.0065C80.2035 97.8949 80.421 97.8872 80.7131 97.8427C81.2299 97.7547 81.6268 97.5973 81.6268 97.5973C81.6268 97.5973 81.5852 97.9469 81.5276 98.047C81.4376 98.3419 80.887 98.3036 80.701 98.3028Z" fill="#482D1F"/>
<path d="M81.1034 95.0069L81.7398 96.6343L81.7455 96.6516C81.7915 96.8239 81.7167 97.0156 81.5528 97.0903C81.5221 97.1018 81.5049 97.1077 81.4876 97.1136C81.3239 97.1692 81.2047 97.203 80.7755 97.3182C80.6885 97.3416 80.599 97.2898 80.5757 97.2026C80.5524 97.1154 80.604 97.0258 80.691 97.0025C81.1127 96.8892 81.2285 96.8564 81.3829 96.804C81.399 96.7985 81.415 96.793 81.4311 96.7873C81.4275 96.7883 81.4358 96.7664 81.4318 96.7425L80.7953 95.115L80.7883 95.0923L80.5707 94.1524C80.5504 94.0645 80.605 93.9766 80.6928 93.9563C80.7805 93.9359 80.8682 93.9906 80.8885 94.0785L81.1034 95.0069Z" fill="#482D1F"/>
<path d="M75.2508 117.155C74.8543 115.625 74.4309 114.035 73.9806 112.384C73.945 112.253 73.8104 112.176 73.6801 112.212C73.5497 112.248 73.473 112.383 73.5086 112.513C73.9584 114.162 74.3812 115.75 74.7773 117.278C74.8112 117.409 74.9448 117.488 75.0756 117.454C75.2063 117.42 75.2848 117.286 75.2508 117.155Z" fill="#455A64"/>
</g>
<defs>
<clipPath id="clip0_214_2929">
<rect width="300" height="300" fill="white"/>
</clipPath>
</defs>
</svg>
