<svg width="300" height="300" viewBox="0 0 300 300" fill="none" xmlns="http://www.w3.org/2000/svg">
<g clip-path="url(#clip0_214_2794)">
<path fill-rule="evenodd" clip-rule="evenodd" d="M107.359 25.1709C135.809 13.3936 167.419 20.317 197.552 26.184C229.703 32.4438 266.834 35.0996 286.639 60.0773C306.361 84.9495 299.466 120.106 296.931 151.515C294.681 179.381 289.379 206.995 272.906 230.209C256.599 253.188 233.806 273.221 205.808 279.925C179.301 286.27 154.876 267.93 127.866 264.933C93.6959 261.14 53.8325 280.808 27.2378 260.106C0.606895 239.376 -2.28498 199.606 1.5615 166.614C5.09736 136.287 28.6297 113.306 47.2565 88.4031C65.0238 64.6497 79.4434 36.7275 107.359 25.1709Z" fill="#F7F8FC"/>
<path d="M261.471 81.9933H151.36C150.792 81.9933 150.331 82.454 150.331 83.0224V210.456C150.331 211.025 150.792 211.485 151.36 211.485H261.471C262.039 211.485 262.5 211.025 262.5 210.456V83.0224C262.5 82.454 262.039 81.9933 261.471 81.9933Z" fill="#ECEFF1"/>
<path d="M172.435 95.7143V96.7434H159.422C159.326 96.7434 159.249 96.8199 159.249 96.9147H158.22C158.22 96.2513 158.758 95.7143 159.422 95.7143H172.435ZM188.557 95.7143V96.7434H174.493V95.7143H188.557ZM204.679 95.7143V96.7434H190.615V95.7143H204.679ZM220.802 95.7143V96.7434H206.738V95.7143H220.802ZM236.924 95.7143V96.7434H222.86V95.7143H236.924ZM253.046 95.7143V96.7434H238.982V95.7143H253.046ZM254.782 111.452H253.753V97.3877H254.782V111.452ZM249.528 123.671V122.642H253.58C253.676 122.642 253.753 122.565 253.753 122.47V113.51H254.782V122.47C254.782 123.134 254.244 123.671 253.58 123.671H249.528ZM233.406 123.671V122.642H247.47V123.671H233.406ZM217.283 123.671V122.642H231.347V123.671H217.283ZM201.161 123.671V122.642H215.225V123.671H201.161ZM185.039 123.671V122.642H199.103V123.671H185.039ZM168.917 123.671V122.642H182.981V123.671H168.917ZM158.22 116.894H159.249V122.47C159.249 122.565 159.326 122.642 159.422 122.642H166.859V123.671H159.422C158.759 123.671 158.22 123.134 158.22 122.47V116.894ZM158.22 100.772H159.249V114.836H158.22V100.772ZM158.22 96.9147H159.249V98.7136H158.22V96.9147Z" fill="#CFD8DC"/>
<path d="M150.331 83.8808C150.331 81.9859 151.866 80.4498 153.761 80.4498H259.07C260.964 80.4498 262.5 81.9861 262.5 83.8808V87.9964H150.331V83.8808Z" fill="#CFD8DC"/>
<path d="M155.39 85.938C156.29 85.938 157.02 85.2085 157.02 84.3087C157.02 83.4088 156.29 82.6793 155.39 82.6793C154.491 82.6793 153.761 83.4088 153.761 84.3087C153.761 85.2085 154.491 85.938 155.39 85.938Z" fill="#FF5645"/>
<path d="M160.707 85.938C161.607 85.938 162.337 85.2085 162.337 84.3087C162.337 83.4088 161.607 82.6793 160.707 82.6793C159.807 82.6793 159.078 83.4088 159.078 84.3087C159.078 85.2085 159.807 85.938 160.707 85.938Z" fill="#FFCB3D"/>
<path d="M166.196 85.938C167.096 85.938 167.825 85.2085 167.825 84.3087C167.825 83.4088 167.096 82.6793 166.196 82.6793C165.296 82.6793 164.566 83.4088 164.566 84.3087C164.566 85.2085 165.296 85.938 166.196 85.938Z" fill="#3ABF7C"/>
<path d="M158.236 131.045C158.236 130.667 158.541 130.36 158.922 130.36H253.425C253.804 130.36 254.111 130.666 254.111 131.045V160.079C254.111 160.458 253.806 160.764 253.425 160.764H158.922C158.543 160.764 158.236 160.458 158.236 160.079V131.045ZM158.563 166.206H195.095C195.285 166.206 195.439 166.36 195.439 166.549V170.665C195.439 170.855 195.285 171.008 195.095 171.008H158.563C158.374 171.008 158.22 170.855 158.22 170.665V166.549C158.22 166.36 158.374 166.206 158.563 166.206ZM158.563 174.096H184.462C184.651 174.096 184.805 174.249 184.805 174.439V178.555C184.805 178.744 184.651 178.898 184.462 178.898H158.563C158.374 178.898 158.22 178.744 158.22 178.555V174.439C158.22 174.249 158.374 174.096 158.563 174.096ZM158.563 182.157H189.779C189.968 182.157 190.122 182.31 190.122 182.5V186.616C190.122 186.805 189.968 186.959 189.779 186.959H158.563C158.374 186.959 158.22 186.805 158.22 186.616V182.5C158.22 182.31 158.374 182.157 158.563 182.157ZM158.563 190.046H179.145C179.334 190.046 179.488 190.2 179.488 190.389V194.506C179.488 194.695 179.334 194.849 179.145 194.849H158.563C158.374 194.849 158.22 194.695 158.22 194.506V190.389C158.22 190.2 158.374 190.046 158.563 190.046ZM206.415 174.096H244.148C244.338 174.096 244.491 174.249 244.491 174.439V178.555C244.491 178.744 244.338 178.898 244.148 178.898H206.415C206.226 178.898 206.072 178.744 206.072 178.555V174.439C206.072 174.249 206.226 174.096 206.415 174.096ZM206.415 182.157H248.95C249.14 182.157 249.293 182.31 249.293 182.5V186.616C249.293 186.805 249.14 186.959 248.95 186.959H206.415C206.226 186.959 206.072 186.805 206.072 186.616V182.5C206.072 182.31 206.226 182.157 206.415 182.157ZM206.415 190.046H253.753C253.942 190.046 254.096 190.2 254.096 190.389V194.506C254.096 194.695 253.942 194.849 253.753 194.849H206.415C206.226 194.849 206.072 194.695 206.072 194.506V190.389C206.072 190.2 206.226 190.046 206.415 190.046ZM206.415 197.936H239.346C239.535 197.936 239.689 198.089 239.689 198.279V202.395C239.689 202.585 239.535 202.738 239.346 202.738H206.415C206.226 202.738 206.072 202.585 206.072 202.395V198.279C206.072 198.089 206.226 197.936 206.415 197.936ZM206.431 166.237H253.768C253.958 166.237 254.111 166.391 254.111 166.58V170.759C254.111 170.948 253.958 171.102 253.768 171.102H206.431C206.241 171.102 206.088 170.948 206.088 170.759V166.58C206.088 166.391 206.241 166.237 206.431 166.237Z" fill="#CFD8DC"/>
<path fill-rule="evenodd" clip-rule="evenodd" d="M207.286 151.612L206.575 151.62L206.58 151.612H197.883C197.693 151.612 197.62 151.481 197.72 151.321L203.88 141.43C203.98 141.269 204.147 141.268 204.25 141.425L208.692 148.215L210.399 145.467C210.499 145.306 210.667 145.301 210.774 145.457L214.704 151.164C214.811 151.32 214.745 151.45 214.554 151.456L210.934 151.568L210.779 151.57L210.804 151.612C210.804 151.612 210.65 151.612 210.459 151.612H207.286ZM210.721 142.95C209.937 142.95 209.302 142.31 209.302 141.52C209.302 140.73 209.937 140.089 210.721 140.089C211.504 140.089 212.139 140.73 212.139 141.52C212.139 142.31 211.504 142.95 210.721 142.95Z" fill="white"/>
<path d="M62.4306 230.18H79.9249C80.3512 230.18 80.6967 230.526 80.6967 230.952C80.6967 231.378 80.3512 231.724 79.9249 231.724H62.4306C62.0044 231.724 61.6588 231.378 61.6588 230.952C61.6588 230.526 62.0044 230.18 62.4306 230.18ZM116.629 230.18H145.786C146.212 230.18 146.558 230.526 146.558 230.952C146.558 231.378 146.212 231.724 145.786 231.724H116.629C116.202 231.724 115.857 231.378 115.857 230.952C115.857 230.526 116.202 230.18 116.629 230.18Z" fill="#263238"/>
<path d="M145.874 230.185C145.845 230.182 145.816 230.18 145.786 230.18H116.629C116.578 230.18 116.529 230.185 116.482 230.194L117.859 219.205H130.757L133.827 221.469C134.531 222.172 135.302 222.807 136.126 223.373C138.132 224.711 139.179 224.694 142.231 226.169C143.055 226.563 143.844 226.992 144.633 227.489C145.01 227.832 145.679 228.518 145.885 229.342C145.919 229.479 145.919 229.616 145.936 229.736C145.936 229.896 145.913 230.046 145.874 230.185ZM80.1451 230.212C80.0753 230.191 80.0014 230.18 79.9249 230.18H62.4306C62.3851 230.18 62.3405 230.184 62.2971 230.192L66.4401 219.557L78.7204 221.221L80.1451 230.212Z" fill="#455A64"/>
<path d="M74.5417 173.793C74.4681 173.777 74.3944 173.761 74.3206 173.745C78.2825 150.64 81.3031 136.793 83.3821 132.205C85.4612 127.618 87.9114 124.369 90.7329 122.459C93.4254 119.392 98.174 119.563 104.743 119.37C104.91 119.363 105.099 119.364 105.266 119.356C112.058 119.242 110.929 119.501 112.722 120.056C121.327 122.354 128.465 136.869 134.136 163.6L135.939 172.356C135.913 172.285 135.887 172.214 135.859 172.144C135.908 172.371 135.932 172.6 135.931 172.833C136.112 176.574 133.209 179.506 127.221 181.628C123.562 182.925 116.402 186.495 104.631 187.621C99.6332 188.099 90.307 187.995 76.6522 187.31C74.3956 183.519 73.43 180.485 73.7553 178.207C73.9336 176.958 74.1958 175.487 74.5417 173.793H74.5417Z" fill="#334FC0"/>
<path opacity="0.2" d="M74.5325 173.838C94.5925 178.189 109.415 177.853 119 172.83C128.398 167.904 134.014 167.66 135.848 172.096C135.905 172.338 135.932 172.584 135.931 172.833C136.112 176.574 133.209 179.506 127.221 181.628C123.562 182.925 116.402 186.495 104.631 187.621C99.6332 188.099 90.307 187.995 76.6522 187.31C74.3956 183.519 73.43 180.485 73.7553 178.207C73.9321 176.969 74.1911 175.513 74.5325 173.838Z" fill="#263238"/>
<path d="M92.7937 106.069C90.8735 105.773 89.3331 105.458 88.1725 105.123C87.2214 104.989 85.7676 104.612 85.1975 103.493C84.3667 101.886 85.8874 99.6926 87.5846 97.2292C89.6275 94.2775 90.8791 93.2128 92.8479 91.8204C96.1997 89.4498 98.2695 89.3579 99.7711 90.8831C99.9222 91.0366 100.073 91.2905 100.222 91.645C100.65 91.5826 101.088 91.5534 101.534 91.5599L105.307 91.6285C110.092 91.6799 113.9 95.7791 113.831 100.736V101.045L113.728 110.598L113.636 115.071C113.572 118.151 111.057 120.614 107.977 120.614H98.3554C98.3344 120.614 98.3135 120.614 98.2925 120.614C95.1668 120.579 92.6611 118.017 92.6958 114.891L92.7937 106.069Z" fill="#E8EAF7"/>
<path d="M171.068 110.617L41.5826 103.831C40.6366 103.782 39.8296 104.508 39.78 105.454L37.5898 147.246C37.5403 148.192 38.2669 148.999 39.2129 149.048L168.699 155.834C169.645 155.884 170.452 155.157 170.501 154.211L172.691 112.42C172.741 111.474 172.014 110.667 171.068 110.617Z" fill="#C4CAEC"/>
<path d="M127.567 121.39L46.7238 117.153C46.3454 117.134 46.0226 117.424 46.0028 117.803L45.5719 126.024C45.5521 126.402 45.8428 126.725 46.2211 126.745L127.064 130.982C127.443 131.002 127.765 130.711 127.785 130.333L128.216 122.111C128.236 121.733 127.945 121.41 127.567 121.39Z" fill="white"/>
<path d="M106.669 89.256L106.445 92.105C106.434 92.2452 106.338 92.3645 106.204 92.4059C105.455 92.6371 104.726 92.7211 104.018 92.6579C103.291 92.5928 102.22 92.3318 100.806 91.8748C100.639 91.8206 100.539 91.6484 100.576 91.4763L101.713 86.19L101.78 86.2089C101.156 84.9489 100.761 84.244 100.595 84.0942C99.9617 83.4881 99.462 79.7468 102.282 79.9723C102.593 79.9742 102.895 80.0631 103.186 80.205L103.205 80.2203C103.299 80.2966 103.42 80.3011 103.542 80.3056C103.832 80.2751 104.049 80.0453 104.035 79.7536L103.721 75.2855C103.691 74.9955 103.891 74.7675 104.181 74.737C104.812 74.6707 105.422 74.572 106.039 74.3692C106.124 74.3603 106.191 74.3361 106.259 74.3289C106.866 74.1961 110.137 73.6454 112.167 75.8982C112.346 76.1208 112.524 76.3435 112.669 76.5697C113.04 77.1515 113.248 77.8195 113.272 78.5413L113.411 81.6654C113.409 81.976 113.407 82.2867 113.373 82.6179C112.958 86.5419 111.498 89.3857 110.04 89.6251C109.291 89.7211 108.532 89.7147 107.775 89.57C107.679 89.534 107.741 89.5637 106.669 89.256ZM91.7472 176.539L78.7203 221.221L66.44 219.557L74.3204 173.745L74.3594 173.747C74.3565 173.764 74.3536 173.782 74.3506 173.799C80.6672 175.175 86.466 176.089 91.7472 176.539ZM114.67 174.663C116.216 174.144 117.659 173.533 119 172.83C128.231 167.992 133.814 167.67 135.747 171.865C136.853 175.388 137.169 178.604 136.696 181.511C135.275 190.238 133.296 202.803 130.757 219.205H117.859L118.083 182.382L114.67 174.663ZM85.8443 104.21C86.5368 104.778 87.5155 105.01 88.2191 105.109C90.3534 105.725 93.7724 106.274 98.4759 106.758L96.0369 116.304L111.486 121.827C111.562 121.843 111.922 121.987 112.568 122.26C119.266 124.168 123.728 125.897 125.954 127.448C127.68 128.65 127.33 130.224 124.903 132.169C122.971 133.717 120.38 134.165 118.041 133.355L108.056 129.897C108.057 129.885 108.057 129.872 108.058 129.86C95.5435 128.496 88.01 125.806 85.4574 121.79C83.1023 118.085 83.2313 112.225 85.8443 104.211V104.21ZM124.487 108.2C128.616 103.953 132.395 103.269 135.824 106.15C139.253 109.031 135.474 109.714 124.487 108.2Z" fill="#ED9474"/>
<path d="M96.9565 82.2509C96.4366 82.4568 95.9225 82.536 95.4141 82.4885C92.0505 82.1743 89.7706 79.2192 88.8701 76.3305C87.9697 73.4419 89.5517 71.9599 92.0827 70.3437C94.6138 68.7274 97.5112 69.8798 99.9266 71.1291C101.338 71.8593 102.167 73.1259 102.411 74.9289C102.793 74.8943 103.215 74.8506 103.686 74.789C104.232 74.7316 104.841 74.5834 105.853 74.3735C105.939 74.3645 106.419 74.246 106.487 74.2388C107.094 74.1061 110.156 73.6607 112.186 75.9134C112.174 75.9664 111.649 75.9134 110.113 76.9336C108.363 78.0955 106.638 83.1878 105.095 83.1086C105.078 83.1082 105.044 83.1253 104.991 83.1598L105.059 83.0951L104.114 81.1594C103.901 80.768 103.577 80.4744 103.207 80.2373C102.916 80.0954 102.614 80.0065 102.303 80.0046C101.477 80.0225 100.656 80.7468 100.403 81.6185C100.167 82.4883 100.419 83.4104 101.084 83.9958C101.504 84.3828 102.046 84.619 102.62 84.6622L103.317 84.5755C103.289 84.6007 103.261 84.6262 103.232 84.6521C102.043 86.5278 101.448 87.4656 101.448 87.4656C101.448 87.4656 100.933 87.327 99.9034 87.0497C98.6378 86.6116 97.6555 85.012 96.9565 82.2509ZM110.911 81.0142C110.579 81.1353 110.042 81.278 109.552 81.2088C108.732 81.1224 109.433 80.566 110.163 80.4547C110.502 80.4018 110.789 80.5096 110.974 80.6281C111.106 80.735 111.078 80.9621 110.911 81.0142ZM113.804 80.6412C113.475 80.7964 112.961 80.9884 112.459 80.9722C111.611 80.9406 112.27 80.3195 112.977 80.1589C113.347 80.0683 113.615 80.1608 113.815 80.2605C113.98 80.3467 113.969 80.5721 113.804 80.6412Z" fill="#482D1F"/>
<path d="M109.955 83.2359C109.763 83.0492 109.781 82.5644 109.801 82.2691C109.795 82.0455 109.985 81.8876 110.173 81.8678C110.294 81.8723 110.455 81.9244 110.514 82.1596C110.693 82.71 110.212 83.5538 109.955 83.2359ZM112.767 82.9231C112.609 82.7327 112.593 82.2515 112.614 81.9562C112.608 81.7327 112.798 81.5747 112.986 81.555C113.107 81.5595 113.268 81.6116 113.327 81.8468C113.505 82.3971 113.008 83.2427 112.767 82.9231Z" fill="#482D1F"/>
<path d="M112.46 81.6506C112.462 81.5559 112.388 81.4768 112.293 81.474C112.199 81.4712 112.12 81.5456 112.117 81.6403L112.086 82.661L112.087 82.6825L112.26 84.4919C112.255 84.5128 112.241 84.5279 112.219 84.5324C112.013 84.5313 111.748 84.5313 111.425 84.5325C111.33 84.5329 111.254 84.6099 111.254 84.7047C111.254 84.7994 111.331 84.8759 111.426 84.8755C111.755 84.8743 112.023 84.8743 112.229 84.8755L112.248 84.8746C112.447 84.8537 112.592 84.6953 112.603 84.5034L112.603 84.4767L112.429 82.6605L112.46 81.6506Z" fill="#482D1F"/>
<path d="M111.431 86.2884C111.31 86.2839 110.996 86.2479 110.908 86.0675C110.904 86.0334 110.865 85.9858 110.878 85.9499C110.92 85.8592 111.449 85.8036 111.449 85.8036C112.15 85.7472 112.317 85.6951 112.377 85.775C112.4 85.8244 112.407 85.8927 112.304 86.0587C112.181 86.3648 111.622 86.3028 111.431 86.2884Z" fill="#482D1F"/>
<path d="M138.396 121.958L161.954 123.192C163.099 123.252 163.508 123.393 163.915 123.639C164.322 123.885 164.634 124.231 164.836 124.661C165.038 125.092 165.135 125.513 165.075 126.658L164.918 129.663C164.858 130.808 164.717 131.217 164.471 131.624C164.225 132.031 163.879 132.342 163.449 132.544C163.018 132.746 162.597 132.844 161.452 132.784L137.894 131.549C136.748 131.489 136.339 131.348 135.933 131.102C135.526 130.857 135.214 130.511 135.012 130.08C134.81 129.65 134.713 129.228 134.773 128.083L134.93 125.079C134.99 123.933 135.131 123.524 135.377 123.117C135.623 122.71 135.969 122.399 136.399 122.197C136.83 121.995 137.251 121.898 138.396 121.958Z" fill="#334FC0"/>
<path d="M113.396 138.473L63.8969 135.879C63.7077 135.869 63.5463 136.014 63.5364 136.204L63.2851 140.999C63.2752 141.189 63.4205 141.35 63.6097 141.36L113.109 143.954C113.298 143.964 113.459 143.819 113.469 143.629L113.721 138.834C113.731 138.644 113.585 138.483 113.396 138.473Z" fill="#F2F6FB"/>
<path d="M145.44 140.275L117.351 138.803C117.162 138.793 117 138.938 116.99 139.127L116.739 143.923C116.729 144.112 116.874 144.274 117.064 144.284L145.153 145.756C145.342 145.766 145.504 145.62 145.514 145.431L145.765 140.635C145.775 140.446 145.63 140.285 145.44 140.275Z" fill="#F2F6FB"/>
<path d="M123.449 132.703C123.581 132.756 123.731 132.692 123.784 132.56C123.837 132.428 123.773 132.279 123.642 132.225C122.814 131.892 122.163 131.653 120.706 131.136C119.256 130.623 118.61 130.385 117.791 130.055C117.659 130.002 117.509 130.066 117.456 130.197C117.403 130.329 117.467 130.479 117.599 130.532C118.426 130.866 119.078 131.105 120.534 131.621C121.984 132.135 122.63 132.372 123.449 132.703ZM126.011 130.863C126.146 130.908 126.291 130.835 126.336 130.7C126.381 130.565 126.308 130.42 126.173 130.375C125.25 130.067 124.54 129.813 122.962 129.233C121.379 128.652 120.666 128.396 119.736 128.086C119.601 128.041 119.455 128.114 119.41 128.249C119.365 128.384 119.438 128.53 119.573 128.575C120.496 128.882 121.207 129.137 122.784 129.716C124.367 130.297 125.081 130.553 126.011 130.863Z" fill="#482D1F"/>
<path d="M100.834 106.268C102.127 102.739 102.879 100.209 103.089 98.6648C103.108 98.5241 103.01 98.3944 102.869 98.3752C102.728 98.356 102.598 98.4546 102.579 98.5954C102.375 100.093 101.632 102.595 100.351 106.091C100.302 106.224 100.37 106.372 100.504 106.421C100.637 106.47 100.785 106.401 100.834 106.268Z" fill="#233DAA"/>
</g>
<defs>
<clipPath id="clip0_214_2794">
<rect width="300" height="300" fill="white"/>
</clipPath>
</defs>
</svg>
