<svg width="40" height="40" viewBox="0 0 40 40" fill="none" xmlns="http://www.w3.org/2000/svg">
<path d="M34.1045 40H5.89552C2.63682 40 0 37.3632 0 34.1045V5.89553C0 2.63682 2.63682 0 5.89552 0H34.1045C37.3632 0 40 2.63682 40 5.89553V34.1045C39.9751 37.3632 37.3383 40 34.1045 40Z" fill="#00218A"/>
<path d="M14.9255 16.6414H10.1743V29.9498H14.9255V16.6414Z" fill="#F7F7F5"/>
<path d="M17.3876 16.6418H21.0692V18.4826C21.0692 18.4826 21.6413 16.6169 25.0244 16.6169C27.8353 16.6169 29.8254 17.7115 29.8254 20.7214C29.8254 22.3881 29.8254 29.9503 29.8254 29.9503H25.895C25.895 29.9503 25.9199 22.1891 25.9448 21.9403C25.9697 21.6916 25.7209 19.7513 23.7309 19.7513C21.7408 19.7513 21.094 21.1941 21.094 22.2637C21.094 23.3334 21.094 29.9254 21.094 29.9254H17.3876V16.6418Z" fill="#F7F7F5"/>
<path d="M12.5367 14.8257C13.8556 14.8257 14.9248 13.7565 14.9248 12.4376C14.9248 11.1187 13.8556 10.0496 12.5367 10.0496C11.2179 10.0496 10.1487 11.1187 10.1487 12.4376C10.1487 13.7565 11.2179 14.8257 12.5367 14.8257Z" fill="#F7F7F5"/>
</svg>
