<svg width="300" height="300" viewBox="0 0 300 300" fill="none" xmlns="http://www.w3.org/2000/svg">
<path d="M187.442 48H65.5209C62.5416 48 60.1265 50.4117 60.1265 53.3867V142.267C60.1265 145.242 62.5416 147.654 65.5209 147.654H187.442C190.421 147.654 192.836 145.242 192.836 142.267V53.3867C192.836 50.4117 190.421 48 187.442 48Z" fill="#F7F8FC"/>
<path d="M60.1265 53.3884C60.1265 50.4124 62.5408 48 65.5194 48H187.706C190.684 48 193.099 50.4112 193.099 53.3884V59.2719H60.1265V53.3884Z" fill="#C4CAEC"/>
<path d="M67.8635 56.1977C69.2396 56.1977 70.3551 55.1081 70.3551 53.764C70.3551 52.4199 69.2396 51.3303 67.8635 51.3303C66.4875 51.3303 65.3719 52.4199 65.3719 53.764C65.3719 55.1081 66.4875 56.1977 67.8635 56.1977Z" fill="#FF5645"/>
<path d="M75.994 56.1977C77.37 56.1977 78.4855 55.1081 78.4855 53.764C78.4855 52.4199 77.37 51.3303 75.994 51.3303C74.6179 51.3303 73.5024 52.4199 73.5024 53.764C73.5024 55.1081 74.6179 56.1977 75.994 56.1977Z" fill="#FFCB3D"/>
<path d="M84.3867 56.1977C85.7628 56.1977 86.8783 55.1081 86.8783 53.764C86.8783 52.4199 85.7628 51.3303 84.3867 51.3303C83.0107 51.3303 81.8951 52.4199 81.8951 53.764C81.8951 55.1081 83.0107 56.1977 84.3867 56.1977Z" fill="#3ABF7C"/>
<path d="M66.6982 66.8798H70.4451C70.7431 66.8798 70.9846 67.1209 70.9846 67.4184V68.701C70.9846 68.9985 70.7431 69.2397 70.4451 69.2397H66.6982C66.4003 69.2397 66.1588 68.9985 66.1588 68.701V67.4184C66.1588 67.1209 66.4003 66.8798 66.6982 66.8798ZM169.247 66.8798H186.265C186.563 66.8798 186.804 67.1209 186.804 67.4184V68.701C186.804 68.9985 186.563 69.2397 186.265 69.2397H169.247C168.949 69.2397 168.707 68.9985 168.707 68.701V67.4184C168.707 67.1209 168.949 66.8798 169.247 66.8798ZM136.673 66.8798H153.69C153.988 66.8798 154.23 67.1209 154.23 67.4184V68.701C154.23 68.9985 153.988 69.2397 153.69 69.2397H136.673C136.375 69.2397 136.133 68.9985 136.133 68.701V67.4184C136.133 67.1209 136.375 66.8798 136.673 66.8798ZM157.182 66.8798H165.755C166.053 66.8798 166.294 67.1209 166.294 67.4184V68.701C166.294 68.9985 166.053 69.2397 165.755 69.2397H157.182C156.884 69.2397 156.643 68.9985 156.643 68.701V67.4184C156.643 67.1209 156.884 66.8798 157.182 66.8798Z" fill="#C4CAEC"/>
<path d="M72.7304 83.9895H107.845C108.143 83.9895 108.385 84.2307 108.385 84.5282V88.1708C108.385 88.4683 108.143 88.7094 107.845 88.7094H72.7304C72.4325 88.7094 72.191 88.4683 72.191 88.1708V84.5282C72.191 84.2307 72.4325 83.9895 72.7304 83.9895ZM72.7304 91.6594H101.813C102.111 91.6594 102.352 91.9006 102.352 92.1981V95.8406C102.352 96.1381 102.111 96.3793 101.813 96.3793H72.7304C72.4325 96.3793 72.191 96.1381 72.191 95.8406V92.1981C72.191 91.9006 72.4325 91.6594 72.7304 91.6594ZM72.7304 106.999H89.7484C90.0463 106.999 90.2878 107.24 90.2878 107.538V111.18C90.2878 111.478 90.0463 111.719 89.7484 111.719H72.7304C72.4325 111.719 72.191 111.478 72.191 111.18V107.538C72.191 107.24 72.4325 106.999 72.7304 106.999ZM72.7304 99.3293H107.845C108.143 99.3293 108.385 99.5704 108.385 99.8679V103.511C108.385 103.808 108.143 104.049 107.845 104.049H72.7304C72.4325 104.049 72.191 103.808 72.191 103.511V99.8679C72.191 99.5704 72.4325 99.3293 72.7304 99.3293Z" fill="#E1E5F0"/>
<path d="M203.078 52.3085C203.078 50.8217 204.287 49.6165 205.775 49.6165H229.942L239.76 59.4065V90.2862C239.76 91.7736 238.55 92.9794 237.063 92.9794H205.776C204.286 92.9794 203.078 91.7744 203.078 90.2873V52.3085Z" fill="#F7F8FC"/>
<path d="M228.528 73.5799L216.299 79.7242C216.205 79.771 216.092 79.7336 216.045 79.6405C216.032 79.6142 216.025 79.5852 216.025 79.5558V67.2671C216.025 67.163 216.11 67.0786 216.214 67.0786C216.243 67.0786 216.272 67.0855 216.299 67.0987L228.528 73.2431C228.622 73.2899 228.659 73.4032 228.612 73.4962C228.594 73.5324 228.565 73.5617 228.528 73.5799Z" fill="#E8EAF7"/>
<path d="M229.942 49.6161L239.76 59.4061L230.549 61.0631C229.082 61.327 228.097 60.3539 228.349 58.887L229.942 49.6161Z" fill="#E8EAF7"/>
<path d="M203.078 105.637C203.078 104.15 204.287 102.944 205.775 102.944H229.942L239.76 112.734V143.614C239.76 145.102 238.55 146.307 237.063 146.307H205.776C204.286 146.307 203.078 145.102 203.078 143.615V105.637Z" fill="#F7F8FC"/>
<path d="M229.942 102.944L239.76 112.734L230.549 114.391C229.082 114.655 228.097 113.682 228.349 112.215L229.942 102.944Z" fill="#E8EAF7"/>
<path d="M211.44 132.707V121.273C211.44 121.04 211.54 120.819 211.714 120.666C213.091 119.457 214.771 118.95 216.757 119.145C218.876 119.354 220.28 120.427 220.971 122.366V134.866C220.971 135.014 220.85 135.135 220.701 135.135C220.617 135.135 220.538 135.096 220.487 135.029C219.534 133.781 218.455 133.001 217.249 132.687C216.057 132.378 214.496 132.632 212.565 133.451C212.154 133.625 211.679 133.434 211.504 133.023C211.462 132.923 211.44 132.816 211.44 132.707ZM231.514 132.707C231.514 132.816 231.492 132.923 231.45 133.023C231.275 133.434 230.8 133.625 230.389 133.451C228.458 132.632 226.897 132.378 225.705 132.687C224.499 133.001 223.42 133.781 222.467 135.029C222.416 135.096 222.337 135.135 222.253 135.135C222.104 135.135 221.983 135.014 221.983 134.866V122.366C222.674 120.427 224.078 119.354 226.198 119.145C228.183 118.95 229.863 119.457 231.24 120.666C231.414 120.819 231.514 121.04 231.514 121.273V132.707Z" fill="#E8EAF7"/>
<path d="M52.5769 238.689H247.423L261.246 181.374C263.808 170.754 274.094 163.867 284.905 165.534C285.393 165.609 285.878 165.704 286.358 165.82C295.919 168.119 301.804 177.723 299.501 187.271L283.93 251.833C281.368 262.454 271.082 269.341 260.271 267.674C259.783 267.599 259.298 267.504 258.818 267.388C253 265.989 248.543 261.885 246.464 256.735H53.5356C51.4567 261.885 47.0001 265.989 41.1819 267.388C40.7018 267.504 40.2171 267.599 39.7291 267.674C28.9175 269.341 18.6316 262.454 16.0702 251.833L0.499082 187.271C-1.80362 177.723 4.08068 168.119 13.642 165.82C14.1221 165.704 14.6069 165.609 15.0949 165.534C25.9064 163.867 36.1924 170.754 38.7538 181.374L52.5769 238.689Z" fill="#E8EAF7"/>
<mask id="mask0_214_3106" style="mask-type:alpha" maskUnits="userSpaceOnUse" x="40" y="165" width="220" height="74">
<path d="M67.6786 165.43H232.208C247.104 165.43 259.18 177.489 259.18 192.364V238.689H40.7065V192.364C40.7065 177.489 52.7823 165.43 67.6786 165.43Z" fill="white"/>
</mask>
<g mask="url(#mask0_214_3106)">
<path d="M67.6786 165.43H232.208C247.104 165.43 259.18 177.489 259.18 192.364V238.689H40.7065V192.364C40.7065 177.489 52.7823 165.43 67.6786 165.43Z" fill="#F7F8FC"/>
</g>
<path d="M34.098 271.548L26.6611 284.411C25.5067 286.408 22.9498 287.092 20.9502 285.939C18.9506 284.786 18.2655 282.233 19.42 280.236L25.3511 269.978C23.6162 268.622 22.5011 266.512 22.5011 264.142C22.5011 260.051 25.822 256.735 29.9184 256.735H269.43C273.527 256.735 276.848 260.051 276.848 264.142C276.848 266.367 275.865 268.362 274.31 269.72L280.39 280.236C281.544 282.233 280.859 284.786 278.86 285.939C276.86 287.092 274.303 286.408 273.149 284.411L265.712 271.548H34.098Z" fill="#C4CAEC"/>
<path d="M144.642 271.889C144.755 271.854 144.875 271.835 144.998 271.835H159.968C160.642 271.835 161.209 272.401 161.209 273.074C161.209 273.747 160.642 274.313 159.968 274.313H147.104H103.949C103.279 274.313 102.735 273.77 102.735 273.101C102.735 272.431 103.279 271.889 103.949 271.889H144.642Z" fill="#263238"/>
<path d="M147.091 271.889H144.998C144.875 271.889 144.755 271.908 144.642 271.943H103.949C103.753 271.943 103.568 271.989 103.404 272.071L103.005 254.637L123.196 254.924L127.023 244.147L144.77 249.519C145.656 252.527 146.569 255.535 147.482 258.57C147.965 260.154 148.449 261.712 148.932 263.27C150.436 263.861 151.725 264.398 152.638 264.801C154.384 265.553 155.861 266.251 157.472 267.298C157.472 267.298 158.868 268.158 159.647 269.393C159.889 269.796 160.104 270.253 160.238 270.736C160.292 270.951 160.292 271.166 160.318 271.354C160.31 271.53 160.27 271.727 160.219 271.915C160.138 271.898 160.054 271.889 159.968 271.889H147.096C147.107 271.85 147.113 271.811 147.112 271.771C147.111 271.811 147.104 271.85 147.091 271.889Z" fill="#455A64"/>
<path opacity="0.2" d="M147.138 271.889C147.157 271.828 147.16 271.765 147.147 271.7C147.12 271.485 147.12 271.269 147.066 271.081C146.742 269.788 145.717 268.711 145.124 268.145C143.91 267.364 142.696 266.664 141.375 266.044C136.601 263.674 135.225 263.701 132.096 261.573C130.802 260.684 129.615 259.688 128.509 258.557L123.868 254.948L123.234 254.939L127.065 244.147L144.812 249.519C145.699 252.527 146.612 255.535 147.525 258.57C148.008 260.154 148.491 261.712 148.975 263.27C150.479 263.861 151.768 264.398 152.681 264.801C154.426 265.553 155.903 266.251 157.514 267.298C157.514 267.298 158.911 268.158 159.69 269.393C159.931 269.796 160.146 270.253 160.28 270.736C160.334 270.951 160.334 271.166 160.361 271.354C160.353 271.533 160.311 271.734 160.259 271.925C160.166 271.901 160.068 271.889 159.968 271.889H147.138Z" fill="#263238"/>
<path d="M129.297 236.767C129.393 239.065 129.523 240.976 129.71 242.379C129.741 242.73 129.724 245.311 129.241 246.228C127.741 249.034 119.425 248.209 112.018 248.415C104.612 248.621 100.529 249.344 98.325 247.641C97.1173 246.713 96.938 245.047 96.8661 244.466C96.5355 241.505 96.1509 238.506 95.7453 235.491C86.5138 239.148 80.7081 241.318 78.328 241.998C75.9728 242.672 73.3632 242.854 70.9897 242.964C50.7646 250.3 39.8754 238.464 38.7285 235.652C34.3476 224.914 35.7053 216.078 39.4234 209.807C41.8212 205.763 60.2072 195.974 94.5812 180.438C95.3519 180.09 97.0452 179.231 99.6611 177.861C102.712 176.231 106.734 175.32 111.727 175.128C112.88 175.084 114.035 175.168 115.169 175.377C122.375 176.707 126.257 179.271 126.814 183.069C126.822 183.115 126.826 183.138 126.834 183.184C127.08 184.817 127.296 186.537 127.486 188.325C128.742 188.06 129.933 187.781 131.059 187.488C131.063 187.485 131.067 187.483 131.071 187.48C134.035 185.439 144.988 183.754 150.341 186.077C156.958 188.948 160.844 195.874 159.841 203.008H159.841C158.409 213.195 157.589 218.716 157.383 219.574C157.075 220.888 153.332 235.75 151.966 241.205C151.666 242.443 150.351 243.382 148.664 243.552C146.806 243.75 135.463 239.32 129.297 236.767Z" fill="#334FC0"/>
<path opacity="0.2" d="M129.4 236.809C128.948 225.12 129.274 204.041 127.598 188.338C128.835 188.076 130.009 187.801 131.12 187.512C131.124 187.509 131.127 187.507 131.131 187.504C134.095 185.463 145.049 183.778 150.401 186.101C157.019 188.972 160.905 195.898 159.902 203.032C158.47 213.218 157.65 218.74 157.444 219.598C157.136 220.912 153.393 235.774 152.027 241.229C151.727 242.467 150.412 243.406 148.725 243.576C146.871 243.773 135.576 239.365 129.4 236.809ZM95.8549 235.495C86.595 239.165 80.773 241.34 78.3887 242.022C76.1422 242.665 73.6642 242.86 71.3805 242.972C71.77 242.828 72.163 242.677 72.5594 242.519C81.1808 239.075 88.548 233.84 94.6611 226.816C95.0587 229.71 95.4662 232.609 95.8549 235.495Z" fill="#263238"/>
<path d="M68.3379 192.77C53.6225 199.987 44.4958 205.175 40.9577 208.334L39.8907 208.864C34.5069 201.714 32.329 192.032 33.357 179.818C30.7854 179.19 28.58 178.547 27.5724 178.076C25.5573 177.133 25.0117 175.072 25.9358 171.891C26.7098 168.835 28.2757 165.291 30.6334 161.26C33.4356 156.468 37.3889 156.329 39.9404 156.648C42.1689 154.991 53.0315 154.803 55.0695 155.216C58.2756 155.889 63.03 156.831 65.6353 160.693C66.4717 161.896 66.8606 163.067 67.0632 163.903C67.0632 163.903 67.4521 165.073 67.7284 166.348C68.3634 169.264 69.6224 179.467 68.3379 192.77Z" fill="#C4CAEC"/>
<path d="M100.166 154.405L73.3067 178.555C72.6978 179.102 72.6486 180.039 73.1969 180.647C73.7451 181.255 74.6831 181.304 75.2919 180.756L102.151 156.607C102.76 156.059 102.809 155.123 102.261 154.515C101.713 153.907 100.775 153.858 100.166 154.405Z" fill="#455A64"/>
<path d="M90.776 162.43L74.7437 152.096C73.7476 151.454 72.4483 151.537 71.542 152.3L55.8458 165.521C54.7071 166.48 54.5626 168.179 55.5231 169.316C55.6839 169.507 55.8705 169.674 56.0775 169.813L74.0498 181.907L91.1093 166.702C92.2206 165.712 92.3174 164.009 91.3255 162.9C91.1642 162.719 90.9794 162.561 90.776 162.43Z" fill="#00A0ED"/>
<path d="M46.5091 145.377C45.7025 144.334 44.9798 143.353 44.5961 142.546C44.0271 141.371 44.3235 137.944 45.3993 136.577C46.4752 135.21 55.006 128.888 55.1137 128.88C56.0228 128.736 61.145 128.135 64.049 131.766C64.3138 132.072 64.5535 132.406 64.7719 132.823C65.2451 133.789 65.5087 134.85 65.5033 135.931L65.4615 140.739C65.4415 141.227 65.3947 141.716 65.319 142.18C64.7758 145.62 63.705 148.476 62.482 150.316C61.5786 151.702 60.5551 152.53 59.6152 152.622C59.3481 152.668 57.8932 152.743 56.1624 152.35C56.0495 152.321 56.0792 152.345 55.3751 152.096L55.519 155.265C57.8542 155.753 60.8774 156.426 63.3095 158.196C59.8374 160.041 55.9922 160.871 51.774 160.686C49.9596 160.607 48.0465 160.364 46.0347 159.957C44.5415 158.193 42.7222 157.153 41.7066 156.986C41.2437 156.909 40.6161 156.782 39.8811 156.698C39.8939 156.687 39.9067 156.676 39.9196 156.665C40.8069 155.936 43.3574 155.482 46.1413 155.236L46.3147 145.316L46.5091 145.377ZM69.2604 183.977C69.3229 183.977 69.3854 183.973 69.4476 183.966C69.3874 183.969 69.3272 183.969 69.2671 183.965C69.2648 183.969 69.2626 183.973 69.2604 183.977ZM72.8684 181.033L74.0125 181.794L75.075 180.849C75.1099 180.823 75.144 180.795 75.1771 180.766L75.8122 180.194L90.9867 166.711C91.1978 166.524 91.3725 166.31 91.5101 166.08L96.0989 161.954C98.1769 160.928 99.7891 160.524 100.327 161.279C100.327 161.279 92.2827 169.99 88.0342 174.563C86.9226 177.472 85.2751 181.193 83.0915 185.725C77.6523 188.265 72.7195 190.62 68.2932 192.792C68.5781 189.953 68.7458 187.253 68.8269 184.733C63.5425 193.772 55.3743 201.411 44.3222 207.649C30.1882 215.626 27.8844 188.428 27.5176 177.928C27.5696 177.954 27.6227 177.979 27.6768 178.003C30.5753 179.299 44.0172 182.286 46.5078 181.882C46.5794 181.873 46.6485 181.857 46.7151 181.832L46.2917 188.357L61.9733 177.234C61.9765 177.23 61.9797 177.226 61.983 177.222L69.7876 167.247C70.3838 166.485 71.4855 166.35 72.2485 166.945C72.4876 167.131 72.665 167.368 72.7777 167.627L73.0034 167.293C73.5449 166.491 74.6345 166.28 75.4372 166.821C75.9665 167.177 76.2389 167.772 76.2079 168.365C76.6288 168.325 77.0655 168.436 77.4297 168.71L77.4346 168.713C78.1746 169.27 78.3224 170.321 77.7648 171.059C77.75 171.079 77.7348 171.098 77.7191 171.117L77.6043 171.256C78.156 171.125 78.7609 171.264 79.2067 171.679C79.9148 172.338 79.9536 173.446 79.2932 174.153L72.8684 181.033ZM130.236 237.041C134.971 238.985 142.064 241.757 146.052 242.934L144.77 249.519L129.606 244.929C129.724 244.128 129.719 243.317 129.699 243.098C129.529 241.819 129.409 240.108 129.32 238.058C129.306 237.655 129.29 237.234 129.272 236.796L130.236 237.041ZM103.012 248.733C105.236 248.766 108.158 248.523 112.018 248.415C114.774 248.339 117.656 248.405 120.265 248.373L123.429 254.268L123.196 254.924L103.03 254.637L103.012 248.733Z" fill="#F2A98A"/>
<path opacity="0.2" d="M68.7508 184.535C68.8584 184.348 68.9648 184.162 69.07 183.975C69.5714 184.002 70.0812 183.816 70.4505 183.421L72.7206 180.99L73.9302 181.794L74.9928 180.85C75.0277 180.823 75.0617 180.795 75.0948 180.766L75.7299 180.195L90.9044 166.711C91.1155 166.524 91.2902 166.31 91.4279 166.08L96.0166 161.954C98.0947 160.929 99.7068 160.524 100.245 161.279C100.245 161.279 92.208 169.982 87.9579 174.556C86.8476 177.481 85.2033 181.233 83.059 185.702C77.6001 188.25 72.6507 190.614 68.2109 192.792C68.5034 189.878 68.6722 187.111 68.7508 184.535Z" fill="#8C2A00"/>
<path d="M55.3759 152.105L51.6237 150.838L55.5029 155.258L55.3759 152.105Z" fill="#482D1F"/>
<path d="M59.6567 129.006C61.1638 129.391 62.7474 130.169 63.9504 131.673C64.2151 131.979 64.4548 132.313 64.6732 132.73C64.8819 133.156 65.0498 133.6 65.1718 134.057L51.5091 138.815L53.2614 129.624C55.8752 129.244 58.007 129.038 59.6567 129.006Z" fill="#482D1F"/>
<path d="M60.714 129.584C55.9299 134.262 52.8833 137.319 51.5744 138.753C51.5261 138.823 51.4776 138.895 51.4288 138.969C51.3709 138.725 51.1462 137.932 50.5296 137.165C50.472 137.115 49.9732 136.556 49.2529 136.309C47.9545 135.914 46.3258 136.595 45.4919 137.814C44.606 139.064 44.717 140.649 45.3129 141.822C45.9088 142.996 46.9439 143.49 47.3049 143.627L48.7573 143.904L48.904 143.837C47.8363 146.093 46.863 148.123 46.24 148.27C45.1072 148.538 43.3604 146.122 42.1271 144.952C41.3433 144.208 39.4605 141.775 38.8973 138.387C38.7299 137.266 38.1081 133.464 40.4464 130.469C41.2624 129.428 42.2317 128.884 42.6299 128.647C43.9852 127.926 49.1884 127.514 53.186 127.295C52.4245 126.117 51.9616 123.676 51.7971 119.971C51.7917 119.849 51.8278 119.729 51.8997 119.63C52.0748 119.39 52.4122 119.336 52.6532 119.511C55.9651 121.916 58.0729 123.662 58.9765 124.752C59.6399 123.697 61.5759 122.469 64.7843 121.067C64.897 121.018 65.0233 121.008 65.142 121.04C65.4295 121.119 65.5993 121.414 65.5211 121.702C64.1904 126.59 63.178 129.159 62.4837 129.406C62.1021 129.543 61.5122 129.602 60.714 129.584Z" fill="#00218A"/>
<path d="M64.1515 141.678C64.2097 141.35 64.5156 141.085 64.8423 141.117C65.0594 141.128 65.2321 141.278 65.3392 141.649C65.4858 142.584 64.5461 143.837 64.2106 143.294C63.9709 142.959 64.0778 142.169 64.1515 141.678ZM58.2312 141.352C58.2893 141.024 58.5953 140.76 58.9219 140.791C59.139 140.803 59.3118 140.953 59.4188 141.323C59.5654 142.258 58.6257 143.512 58.2903 142.968C58.0506 142.634 58.1574 141.843 58.2312 141.352Z" fill="#482D1F"/>
<path d="M62.1449 142.027L62.3599 144.712C62.3606 144.722 62.3225 144.766 62.3097 144.766C62.1625 144.777 62.0114 144.778 61.775 144.771C61.7291 144.77 61.6811 144.769 61.612 144.766C61.5249 144.764 61.4771 144.762 61.4315 144.761C61.275 144.756 61.1455 144.753 61.0071 144.75C60.8582 144.748 60.7354 144.866 60.7329 145.015C60.7304 145.164 60.8491 145.286 60.998 145.289C61.1336 145.291 61.2608 145.294 61.415 145.299C61.4603 145.301 61.5077 145.302 61.595 145.305C61.6649 145.307 61.7137 145.308 61.7607 145.31C62.0129 145.316 62.1793 145.316 62.3473 145.304C62.6574 145.282 62.9195 144.981 62.8979 144.671L62.6826 141.984C62.6707 141.835 62.5407 141.725 62.3922 141.737C62.2438 141.749 62.133 141.878 62.1449 142.027Z" fill="#482D1F"/>
<path d="M60.5886 146.831C60.3946 146.763 59.9221 146.58 59.8764 146.313C59.8726 146.26 59.8401 146.181 59.892 146.15C60.0171 146.006 60.3494 146.118 60.8432 146.219C61.7192 146.374 62.4226 146.379 62.4226 146.379C62.4226 146.379 62.1836 146.827 62.0297 146.946C61.7294 147.291 60.8671 146.946 60.5886 146.831Z" fill="#482D1F"/>
<path d="M54.0492 140.627L52.4385 140.254C52.2209 140.204 52.0853 139.987 52.1357 139.769C52.1862 139.552 52.4036 139.417 52.6212 139.467L54.353 139.868C54.952 138.74 56.1025 137.937 57.4716 137.841C59.5817 137.694 61.4119 139.283 61.5595 141.39C61.563 141.44 61.5656 141.49 61.5671 141.54L62.3871 141.583C62.6338 139.834 64.0768 138.433 65.9129 138.305C68.023 138.158 69.8532 139.746 70.0008 141.854C70.1483 143.961 68.5573 145.788 66.4472 145.936C64.3384 146.083 62.5092 144.496 62.3596 142.391L61.507 142.346C61.2002 144.024 59.7883 145.348 58.006 145.472C55.8958 145.619 54.0656 144.031 53.9181 141.924C53.8866 141.474 53.9342 141.037 54.0492 140.627ZM54.9175 140.577C54.7641 140.975 54.6935 141.413 54.7253 141.867C54.8417 143.529 56.2852 144.782 57.9495 144.666C59.6138 144.55 60.8687 143.108 60.7523 141.446C60.6359 139.784 59.1924 138.531 57.5281 138.648C56.3853 138.727 55.4356 139.432 54.9903 140.404C54.9889 140.412 54.9872 140.42 54.9853 140.429C54.9725 140.484 54.949 140.534 54.9175 140.577ZM63.1591 142.101C63.1587 142.177 63.1611 142.254 63.1665 142.331C63.2829 143.993 64.7265 145.246 66.3908 145.13C68.0551 145.013 69.3099 143.572 69.1936 141.91C69.0772 140.248 67.6336 138.995 65.9693 139.111C64.4371 139.218 63.252 140.448 63.1643 141.94C63.1692 141.969 63.171 141.998 63.1694 142.029C63.1681 142.054 63.1646 142.078 63.1591 142.101Z" fill="#482D1F"/>
<path d="M94.9111 227.003L92.586 204.514C92.563 204.292 92.3643 204.13 92.142 204.153C91.9197 204.176 91.7582 204.375 91.7811 204.597L94.1062 227.086C94.1291 227.308 94.3279 227.469 94.5502 227.446C94.7724 227.423 94.934 227.225 94.9111 227.003Z" fill="#233DAA"/>
<path d="M48.35 175.488C48.35 175.488 48.5911 180.034 46.7845 181.705" stroke="#455A64" stroke-width="1.30588" stroke-linecap="round" stroke-linejoin="round"/>
<path d="M187.519 235.475H236.878C238.07 235.475 239.036 236.44 239.036 237.63V241.939C239.036 243.129 238.07 244.094 236.878 244.094H187.519C186.327 244.094 185.361 243.129 185.361 241.939V237.63C185.361 236.44 186.327 235.475 187.519 235.475ZM184.822 201H234.181C235.372 201 236.339 201.965 236.339 203.155V207.464C236.339 208.654 235.372 209.619 234.181 209.619H184.822C183.63 209.619 182.664 208.654 182.664 207.464V203.155C182.664 201.965 183.63 201 184.822 201ZM179.158 218.237H228.517C229.708 218.237 230.674 219.202 230.674 220.392V224.702C230.674 225.892 229.708 226.856 228.517 226.856H179.158C177.966 226.856 177 225.892 177 224.702V220.392C177 219.202 177.966 218.237 179.158 218.237Z" fill="#334FC0"/>
<path d="M192.374 226.856H241.733C242.925 226.856 243.891 227.821 243.891 229.011V233.32C243.891 234.51 242.925 235.475 241.733 235.475H192.374C191.182 235.475 190.216 234.51 190.216 233.32V229.011C190.216 227.821 191.182 226.856 192.374 226.856ZM193.992 209.619H243.351C244.543 209.619 245.509 210.584 245.509 211.774V216.083C245.509 217.273 244.543 218.238 243.351 218.238H193.992C192.801 218.238 191.835 217.273 191.835 216.083V211.774C191.835 210.584 192.801 209.619 193.992 209.619Z" fill="#00BCF0"/>
<path d="M187.384 204.232H236.339V206.656H187.384C186.714 206.656 186.17 206.113 186.17 205.444C186.17 204.775 186.714 204.232 187.384 204.232ZM191.835 212.851H239.845V215.275H191.835V212.851ZM182.664 221.47H230.674V223.894H182.664V221.47ZM190.216 230.088H238.227V232.512H190.216V230.088ZM191.025 238.707H239.036V241.131H191.025V238.707Z" fill="#E8EAF7"/>
</svg>
