<svg width="40" height="40" viewBox="0 0 40 40" fill="none" xmlns="http://www.w3.org/2000/svg">
<path d="M34.1045 40H5.89552C2.63682 40 0 37.3632 0 34.1045V5.89552C0 2.63681 2.63682 0 5.89552 0H34.1045C37.3632 0 40 2.63681 40 5.89552V34.1045C39.9751 37.3632 37.3383 40 34.1045 40Z" fill="#00218A"/>
<path d="M29.453 10.4228C29.453 10.4228 27.9604 8.63174 25.3734 8.70637C22.2888 8.80587 19.453 10.6964 19.7763 15.5223C19.7763 15.5223 15.1495 16.9402 7.93556 10.0745C7.93556 10.0745 5.62213 13.8556 9.7266 17.4128C9.7266 17.4128 8.58233 17.7362 7.04004 16.8656C7.04004 16.8656 6.21913 20.0496 11.4928 22.4875C11.4928 22.4875 9.70173 22.985 8.90571 22.4875C8.90571 22.4875 9.37834 25.8705 14.1047 26.6914C14.1047 26.6914 11.6669 29.1044 5.89575 29.0546C5.89575 29.0546 17.8858 35.1989 26.1943 27.3133C32.1395 21.6914 31.2938 14.179 31.2938 14.179C31.2938 14.179 33.035 13.6317 34.0798 11.7412C34.0798 11.7412 32.0898 12.3631 30.9455 12.2636C30.9455 12.2636 33.1346 10.8954 33.3087 9.27851C33.3087 9.25363 31.443 10.5969 29.453 10.4228Z" fill="#F7F7F5"/>
</svg>
