<svg width="40" height="40" viewBox="0 0 40 40" fill="none" xmlns="http://www.w3.org/2000/svg">
<path d="M34.1045 39.9751H5.89552C2.63681 39.9751 0 37.3383 0 34.0796V5.89553C0 2.63682 2.63681 0 5.89552 0H34.1045C37.3632 0 40 2.63682 40 5.89553V34.1045C40 37.3383 37.3632 39.9751 34.1045 39.9751Z" fill="#00218A"/>
<path d="M28.9791 10.1741H11.0438C8.23281 10.1741 5.91937 12.4875 5.91937 15.2985V24.7014C5.91937 27.5124 8.23281 29.8258 11.0438 29.8258H29.004C31.8149 29.8258 34.1283 27.5124 34.1283 24.7014V15.2985C34.1034 12.4875 31.79 10.1741 28.9791 10.1741ZM20.795 22.7611L16.4169 25.4726V20.0497V14.6268L20.795 17.3383L25.1731 20.0497L20.795 22.7611Z" fill="#F7F7F5"/>
</svg>
