<svg width="40" height="40" viewBox="0 0 40 40" fill="none" xmlns="http://www.w3.org/2000/svg">
<path d="M34.1036 39.999H5.89537C2.63675 39.999 0 37.3623 0 34.1036V5.89538C0 2.63675 2.63675 0 5.89537 0H34.1036C37.3623 0 39.999 2.63675 39.999 5.89538V34.1036C39.999 37.3623 37.3623 39.999 34.1036 39.999Z" fill="#00218A"/>
<rect width="39.999" height="38.115" rx="3" fill="white"/>
<path d="M7.16935 33.2397C7.01302 33.17 6.89811 33.0909 7.08271 32.9345C7.19572 32.8479 7.31816 32.7687 7.44059 32.6896C8.58394 31.9473 9.6576 31.1353 10.3658 29.9389C10.9592 28.9442 10.8631 28.3582 10.121 27.6253C5.9808 23.4842 4.165 18.533 5.0729 12.6831C5.58712 9.38226 7.09778 6.52607 9.29783 4.04669C10.6258 2.54512 12.2042 1.32992 13.9334 0.318191C14.0389 0.257902 14.1858 0.239062 14.2046 0.0826873C14.1688 -0.00397808 14.1086 0.0223984 14.0558 0.0223984C11.1136 0.0223984 8.17143 -0.0378904 5.23866 0.0393548C2.42643 0.12602 0.000344399 2.30019 0.00976244 5.41826C0.0267149 14.5257 0.00976244 23.635 0.00976244 32.7518C0.00976244 35.5816 2.16649 37.9479 4.98625 38.0534C7.36902 38.1495 9.75366 38.0704 12.1458 38.0629C12.321 38.0723 12.4943 38.0798 12.6695 38.0798H25.2765C28.4202 38.0798 31.5621 38.0968 34.7058 38.0798C37.6216 38.0798 39.9874 35.7229 39.9874 32.8139V32.7612V27.6517C39.9874 27.5292 40.0308 27.3992 39.9517 27.2674C39.7953 27.2768 39.7332 27.4068 39.6465 27.4953C37.9532 29.1985 35.9528 30.5701 33.7621 31.5385C28.392 33.9048 22.9276 34.0706 17.3842 32.1677C16.9038 31.9925 16.3802 31.9756 15.8829 32.098C15.1502 32.2808 14.425 32.4993 13.6998 32.7179C11.5695 33.3792 9.3939 33.675 7.16935 33.2397ZM13.4983 18.5236C13.6471 18.3314 13.7262 18.2184 13.8128 18.1053C14.9562 16.6565 16.0995 15.2058 17.2448 13.7476C17.5763 13.3293 17.9078 12.8997 18.1188 12.3948C18.3636 11.8183 18.1018 11.2776 17.5085 11.0666C17.2467 10.9875 16.9679 10.9535 16.6872 10.9705C15.1332 10.9611 13.5699 10.9611 12.0159 10.9705C11.7974 10.9705 11.5789 10.9969 11.3698 11.0496C10.8801 11.1721 10.5843 11.6695 10.7068 12.1669C10.7934 12.4984 11.0552 12.7603 11.3886 12.8395C11.5977 12.8922 11.8162 12.9186 12.0347 12.9092C12.9784 12.9186 13.9296 12.9092 14.8714 12.9186C14.9769 12.9186 15.1069 12.8489 15.186 13.0053C15.1069 13.1108 15.0296 13.2144 14.9505 13.3105C13.5981 15.0212 12.2532 16.7432 10.8989 18.4539C10.5674 18.8815 10.3922 19.3526 10.6371 19.8782C10.8819 20.4038 11.3792 20.498 11.8859 20.5338C12.2871 20.5602 12.6977 20.5433 13.1084 20.5433C14.523 20.5433 15.9281 20.5527 17.3427 20.5338C18.0943 20.5244 18.4955 20.0704 18.4164 19.3733C18.3561 18.8231 17.9794 18.5349 17.2806 18.5255C16.0468 18.516 14.8168 18.5236 13.4983 18.5236ZM23.6264 13.9303C22.5358 12.9789 21.3303 12.9167 20.1512 13.6157C18.7196 14.4541 18.196 15.8256 18.3693 17.4139C18.535 18.8985 19.1811 20.1118 20.7351 20.6092C21.7033 20.9238 22.6036 20.8108 23.3985 20.1646C23.6076 19.9988 23.6698 20.0327 23.8167 20.2173C24.1049 20.5847 24.6021 20.7241 25.0391 20.5583C25.4761 20.4264 25.7643 20.0252 25.7643 19.5711C25.7737 17.8246 25.7813 16.0781 25.7643 14.3316C25.7549 13.6326 25.1013 13.188 24.4194 13.3274C24.0446 13.4066 23.8355 13.6609 23.6264 13.9303ZM29.6766 17.1708C29.6408 19.3544 31.4491 21.0048 33.7188 20.7769C35.8058 20.5678 37.1583 19.004 37.0886 16.794C37.0189 14.6104 35.3952 13.1183 33.1688 13.188C31.0818 13.2502 29.6069 14.927 29.6766 17.1708ZM28.9081 15.4338C28.9081 14.0622 28.9175 12.7 28.9081 11.3285C28.9081 10.6295 28.4635 10.1924 27.7986 10.2018C27.1525 10.2112 26.725 10.6464 26.7155 11.319C26.7061 11.7298 26.7155 12.1311 26.7155 12.5418V19.4844C26.7155 20.0252 27.0471 20.498 27.4841 20.6111C28.0868 20.7769 28.7065 20.4189 28.8629 19.816C28.8892 19.7105 28.9062 19.6069 28.8987 19.4939C28.9175 18.1392 28.9081 16.7865 28.9081 15.4338Z" fill="#FDFEFE"/>
<path d="M12.1346 38.3003C9.75213 38.3003 7.36024 38.3799 4.97588 38.2908C2.15647 38.177 0 35.7955 0 32.9551C0 23.7893 0.0169504 14.6216 0 5.44626C0 2.30819 2.43521 0.12007 5.23767 0.040433C8.17009 -0.0392039 11.1119 0.0233678 14.0538 0.0233678C14.1065 0.0233678 14.1762 -0.00317763 14.2025 0.0840438C14.1856 0.241422 14.0274 0.260383 13.9313 0.321058C12.2043 1.34307 10.6241 2.56417 9.29635 4.07727C7.10598 6.57256 5.5861 9.43759 5.07193 12.7691C4.16415 18.6489 5.98914 23.6414 10.1175 27.8072C10.8501 28.5542 10.9462 29.1345 10.3623 30.1356C9.65607 31.3396 8.58067 32.1569 7.43746 32.9039C7.31504 32.9741 7.19262 33.0613 7.0702 33.141C6.88751 33.2983 7.00051 33.378 7.15683 33.4481C7.19262 33.5278 7.23593 33.5979 7.28867 33.6681C8.29251 34.5649 9.24362 35.5225 10.2305 36.4364C10.6938 36.8668 11.1552 37.3162 11.6016 37.7637C11.7843 37.9306 12.0913 37.9836 12.1346 38.3003Z" fill="#00218A"/>
<path d="M11.9665 38.8733C11.923 38.5442 11.6159 38.4874 11.4302 38.2903C10.9829 37.8007 10.5167 37.3294 10.0504 36.8683C9.05731 35.8891 8.1002 34.8633 7.09002 33.9024C7.03695 33.8272 6.99336 33.7521 6.95735 33.6668C9.19756 34.138 11.3847 33.8171 13.5377 33.1122C14.2674 32.8765 14.9952 32.6409 15.7343 32.4438C16.2347 32.3016 16.7616 32.3301 17.2449 32.519C22.8151 34.5707 28.3132 34.3839 33.7242 31.8405C35.9284 30.7963 37.9412 29.3256 39.6451 27.4912C39.7322 27.3977 39.7948 27.2555 39.9521 27.2454C40.0317 27.3774 39.9881 27.5176 39.9881 27.6598V33.169C40.0052 36.3137 37.6512 38.8754 34.7174 38.9038H34.6738C31.5106 38.9221 28.3493 38.9038 25.186 38.9038H12.4934C12.3172 38.8815 12.1428 38.8733 11.9665 38.8733Z" fill="#00218A"/>
<path d="M13.4989 18.5237C14.8174 18.5237 16.0568 18.5143 17.2887 18.5237C17.9781 18.5332 18.3529 18.8214 18.4245 19.3715C18.5036 20.0611 18.1024 20.5246 17.3509 20.5321C15.9363 20.5491 14.5311 20.5415 13.1165 20.5415C12.7059 20.5415 12.3047 20.5585 11.894 20.5321C11.3874 20.5057 10.8901 20.4002 10.6452 19.8765C10.4003 19.3527 10.5755 18.8817 10.907 18.4521C12.2519 16.7414 13.6044 15.0194 14.9587 13.3087C15.0378 13.2032 15.115 13.0996 15.1941 13.0035C15.1075 12.8547 14.985 12.9244 14.8796 12.9169C13.9359 12.9074 12.9847 12.9169 12.0429 12.9074C11.8244 12.9074 11.6059 12.8811 11.3968 12.8377C10.8995 12.7247 10.5944 12.2273 10.7074 11.7375C10.7865 11.4059 11.0483 11.1346 11.3798 11.0554C11.5889 11.0027 11.8074 10.9763 12.0259 10.9763C13.5799 10.9669 15.1433 10.9669 16.6972 10.9763C16.976 10.9669 17.2473 11.0027 17.5185 11.0724C18.1118 11.274 18.3661 11.8241 18.1288 12.4006C17.9197 12.898 17.5882 13.3257 17.2548 13.7534C16.1114 15.2116 14.9681 16.6604 13.8229 18.1017C13.7249 18.2185 13.6383 18.3316 13.4989 18.5237Z" fill="#00218A"/>
<path d="M23.6267 13.9301C23.8358 13.6588 24.0543 13.4063 24.4121 13.3366C25.1015 13.1972 25.7476 13.6418 25.757 14.3408C25.7834 16.0873 25.774 17.8338 25.757 19.5803C25.757 20.0344 25.4594 20.4357 25.0318 20.5675C24.5948 20.7333 24.0976 20.6033 23.8094 20.2265C23.6606 20.0438 23.6003 20.008 23.3912 20.1738C22.5963 20.82 21.6979 20.933 20.7278 20.6184C19.1738 20.1116 18.5372 18.8983 18.362 17.4231C18.1793 15.8254 18.7105 14.4633 20.1439 13.6249C21.3306 12.9184 22.5342 12.9787 23.6267 13.9301ZM20.5357 17.1179C20.5526 17.5022 20.6751 17.8696 20.903 18.1748C21.3739 18.8041 22.2742 18.9341 22.9109 18.4631C23.0164 18.3839 23.1124 18.2879 23.1991 18.1748C23.6888 17.5116 23.6888 16.4189 23.1991 15.7557C22.9542 15.4147 22.57 15.215 22.1593 15.2056C21.1987 15.1453 20.5263 15.8876 20.5357 17.1179ZM29.6768 17.1706C29.6071 14.9267 31.082 13.25 33.1784 13.1878C35.4049 13.1181 37.0285 14.6121 37.0982 16.7938C37.1679 19.0038 35.8155 20.5657 33.7285 20.7767C31.4493 21.0046 29.641 19.3542 29.6768 17.1706ZM31.8675 16.9615C31.8505 17.3986 31.9805 17.8263 32.2423 18.1842C32.7226 18.8135 33.6211 18.936 34.2502 18.4461C34.3463 18.3764 34.4254 18.2897 34.5026 18.2012C35.0093 17.538 35.0093 16.4189 34.512 15.7557C34.2672 15.4241 33.8829 15.215 33.4723 15.2056C32.5324 15.1528 31.8675 15.8688 31.8675 16.9615ZM28.9083 15.4336C28.9083 16.7863 28.9177 18.1409 28.9083 19.4936C28.9177 20.1135 28.428 20.6297 27.8083 20.6467C27.7028 20.6467 27.5898 20.6372 27.4843 20.6109C27.0473 20.4978 26.7158 20.0344 26.7158 19.4842V12.5416C26.7158 12.1308 26.7064 11.7295 26.7158 11.3188C26.7252 10.6462 27.1528 10.2091 27.7989 10.2091C28.4619 10.1997 28.9083 10.6368 28.9083 11.3358C28.9177 12.6998 28.9083 14.0714 28.9083 15.4336Z" fill="#00218A"/>
<path d="M20.5344 17.1175C20.525 15.8853 21.1974 15.143 22.1487 15.1958C22.5593 15.2127 22.9435 15.4143 23.1884 15.7553C23.6781 16.411 23.6781 17.5112 23.1884 18.1744C22.7175 18.8037 21.8171 18.9337 21.1805 18.4627C21.075 18.3835 20.9789 18.2874 20.8923 18.1744C20.6738 17.8692 20.5514 17.5018 20.5344 17.1175ZM31.8662 16.9611C31.8662 15.8778 32.5292 15.1543 33.4729 15.2052C33.8835 15.2146 34.2678 15.4237 34.5126 15.7553C35.0099 16.4185 35.0099 17.5451 34.5032 18.2008C34.0135 18.8206 33.1056 18.9261 32.4859 18.4363C32.3898 18.3666 32.3107 18.2799 32.241 18.1838C31.9811 17.8259 31.8586 17.3982 31.8662 16.9611Z" fill="#FDFEFE"/>
</svg>
